<?xml version="1.0" encoding="UTF-8" standalone="no"?>
<!-- Created with Inkscape (http://www.inkscape.org/) -->

<svg
   xmlns:dc="http://purl.org/dc/elements/1.1/"
   xmlns:cc="http://creativecommons.org/ns#"
   xmlns:rdf="http://www.w3.org/1999/02/22-rdf-syntax-ns#"
   xmlns:svg="http://www.w3.org/2000/svg"
   xmlns="http://www.w3.org/2000/svg"
   xmlns:sodipodi="http://sodipodi.sourceforge.net/DTD/sodipodi-0.dtd"
   xmlns:inkscape="http://www.inkscape.org/namespaces/inkscape"
   version="1.1"
   id="svg2"
   width="672"
   height="1706.6667"
   viewBox="0 0 672 1706.6667"
   sodipodi:docname="hands-azar.jpg.svg"
   inkscape:version="0.92.4 (5da689c313, 2019-01-14)">
  <metadata
     id="metadata8">
    <rdf:RDF>
      <cc:Work
         rdf:about="">
        <dc:format>image/svg+xml</dc:format>
        <dc:type
           rdf:resource="http://purl.org/dc/dcmitype/StillImage" />
        <dc:title></dc:title>
      </cc:Work>
    </rdf:RDF>
  </metadata>
  <defs
     id="defs6" />
  <sodipodi:namedview
     pagecolor="#ffffff"
     bordercolor="#666666"
     borderopacity="1"
     objecttolerance="10"
     gridtolerance="10"
     guidetolerance="10"
     inkscape:pageopacity="0"
     inkscape:pageshadow="2"
     inkscape:window-width="1920"
     inkscape:window-height="1016"
     id="namedview4"
     showgrid="false"
     inkscape:zoom="0.13828124"
     inkscape:cx="-408.85879"
     inkscape:cy="853.33337"
     inkscape:window-x="0"
     inkscape:window-y="27"
     inkscape:window-maximized="1"
     inkscape:current-layer="svg2" />
  <path
     style="fill:#0c0c0c;stroke-width:1.33333337;fill-opacity:1"
     d="m 182.88751,1687.6071 c -1.3176,-4.1513 -3.9615,-25.8053 -6.1507,-50.3755 -0.7842,-8.8 -1.9486,-18.4 -2.5876,-21.3333 -6.8423,-31.4063 -9.7313,-51.9919 -9.4762,-67.522 0.2765,-16.8336 -3.0952,-46.1796 -6.7629,-58.8604 -1.4395,-4.9771 -2.8593,-12.3725 -3.1551,-16.4344 -0.2957,-4.0619 -0.8402,-8.3899 -1.2098,-9.6176 -0.3697,-1.2277 -0.9544,-3.7323 -1.2994,-5.5656 -0.8966,-4.7647 -7.1022,-33.0036 -8.6437,-39.3333 -0.7144,-2.9334 -2.2692,-10.1334 -3.4553,-16 -2.1529,-10.649 -5.4246,-23.111 -10.2815,-39.1628 -1.4986,-4.9528 -2.2288,-10.0527 -1.7509,-12.2284 0.5953,-2.7103 -0.1159,-5.2146 -2.5965,-9.1442 -1.87891,-2.9764 -3.41622,-5.7364 -3.41622,-6.1334 0,-0.397 -1.60181,-3.2589 -3.55957,-6.3598 -1.95777,-3.101 -4.87258,-7.7381 -6.47736,-10.3048 -1.60478,-2.5666 -3.67974,-6.7666 -4.61102,-9.3333 -0.93127,-2.5667 -4.91646,-11.2707 -8.85597,-19.3423 -3.93951,-8.0716 -7.16274,-15.6862 -7.16274,-16.9213 0,-1.2351 -0.53082,-2.5738 -1.17961,-2.9747 -0.64878,-0.401 -1.5715,-2.6864 -2.05048,-5.0787 -0.47898,-2.3923 -1.48759,-7.3497 -2.24136,-11.0163 -0.75376,-3.6667 -1.69273,-9.6667 -2.08659,-13.3334 -0.39386,-3.6666 -1.19525,-7.2666 -1.78088,-8 -0.58562,-0.7333 -1.47363,-5.2333 -1.97336,-10 -0.49973,-4.7666 -1.39871,-12.6847 -1.99774,-17.5956 -0.59902,-4.911 -0.80546,-19.1172 -0.45874,-31.5695 0.46027,-16.5304 0.0689,-26.355 -1.45021,-36.4043 -1.14433,-7.5702 -3.03019,-22.1639 -4.1908,-32.4306 -1.1606,-10.2666 -2.69362,-22.8666 -3.4067,-28 -0.71308,-5.1333 -1.79188,-12.9333 -2.39733,-17.3333 -0.60546,-4.4 -2.42768,-13.4 -4.04939,-20 -1.62171,-6.6 -3.48424,-15.3893 -4.13897,-19.5317 -1.85597,-11.7426 -6.9809,-31.53463 -9.27598,-35.82303 -0.72702,-1.35847 -1.32186,-4.50931 -1.32186,-7.00188 0,-5.38632 -2.439,-19.47678 -3.86177,-22.31003 -1.50442,-2.99584 -0.51537,-35.17066 1.25913,-40.96116 0.84929,-2.77136 2.0297,-7.73884 2.62315,-11.03884 0.59344,-3.3 2.7816,-10.64916 4.86257,-16.33148 3.29855,-9.00703 4.72368,-11.10508 11.11692,-16.36614 9.04004,-7.43913 21.28965,-13.4195 29.60698,-14.4544 4.98448,-0.6202 7.72434,-0.1052 13.33333,2.50602 3.88283,1.80764 7.80969,3.29248 8.72635,3.29964 1.94396,0.0152 2.2648,-4.79327 0.39687,-5.94771 -0.69839,-0.43163 -3.16689,-6.91704 -5.48555,-14.41203 -2.31866,-7.49498 -5.59829,-17.82724 -7.28807,-22.96057 -4.71244,-14.31576 -6.69103,-23.83508 -7.89833,-38 -2.10013,-24.64047 -2.10959,-24.38195 1.29347,-35.33334 1.82302,-5.86666 3.31467,-11.99332 3.31477,-13.61478 1e-4,-1.62146 2.70018,-6.26299 6.00018,-10.3145 3.3,-4.0515 6,-7.97056 6,-8.70901 0,-1.85393 17.98058,-14.89793 25.46818,-18.47589 5.3169,-2.54067 7.9025,-2.87088 19.3921,-2.47667 8.9511,0.30713 14.7121,1.18072 17.7366,2.68953 2.4637,1.22906 5.0934,2.23466 5.8437,2.23466 2.9253,0 15.3838,9.80777 21.9856,17.30778 9.54,10.838 19.3052,27.16402 22.8295,38.16775 3.2007,9.99324 6.9539,17.10112 13.1071,24.82255 5.926,7.43631 11.3323,19.39284 12.0241,26.59256 0.8223,8.55809 3.3574,10.63777 7.6882,6.30704 3.113,-3.11303 3.2805,-4.15948 3.8255,-23.89331 0.7309,-26.4652 2.7545,-56.38156 4.7328,-69.97104 0.9552,-6.56129 1.0963,-11.88771 0.3665,-13.83921 -0.7755,-2.07367 -0.5501,-5.53739 0.6508,-10 1.0104,-3.7551 2.366,-11.02746 3.0124,-16.16079 0.6465,-5.13333 1.7673,-12.63333 2.4907,-16.66667 0.7234,-4.03333 2.3031,-13.93333 3.5103,-22 1.2072,-8.06666 2.7696,-17.66666 3.4721,-21.33333 3.5684,-18.62714 4.2099,-21.56651 5.3243,-24.39607 0.6634,-1.68451 1.2062,-4.52808 1.2062,-6.31904 0,-1.79096 1.1997,-6.41272 2.666,-10.27059 3.4285,-9.02052 3.2955,-12.47292 -0.7324,-19.0143 -1.8062,-2.93334 -4.1711,-7.24231 -5.2553,-9.5755 -1.0842,-2.33318 -2.5803,-4.6186 -3.3248,-5.07869 -0.7444,-0.46008 -1.3535,-1.70727 -1.3535,-2.77151 0,-1.06424 -2.1072,-4.93294 -4.6827,-8.59712 -2.6026,-3.70278 -5.345,-9.75029 -6.1737,-13.61426 -0.82,-3.82368 -2.6128,-9.56931 -3.9839,-12.76807 -1.3712,-3.19876 -2.493,-6.66459 -2.493,-7.70184 0,-1.03724 -1.7324,-5.63749 -3.8497,-10.22279 -2.6555,-5.7507 -4.1004,-11.439 -4.6577,-18.33689 -0.4444,-5.5 -1.712,-12.94536 -2.817,-16.54524 -1.1049,-3.59988 -2.009,-8.51448 -2.009,-10.92131 0,-2.40684 -0.5697,-4.7282 -1.2661,-5.15857 -2.0446,-1.26363 0,-14.436 2.6747,-17.2512 2.3414,-2.46224 2.2894,-2.80095 -1.6362,-10.66667 -2.2299,-4.46803 -5.3812,-9.62368 -7.0029,-11.45701 -3.2947,-3.7245 -6.6213,-11.17532 -8.7557,-19.61038 -0.7808,-3.0857 -2.0033,-5.9711 -2.7167,-6.41201 -0.7134,-0.44092 -1.2971,-1.63323 -1.2971,-2.64957 0,-1.01636 -2.7268,-7.43095 -6.0597,-14.25466 -11.3041,-23.14426 -15.9386,-43.35089 -17.5003,-76.30141 -0.5248,-11.07461 -0.2861,-13.41876 1.4666,-14.39959 2.2613,-1.26549 2.8917,-5.03905 0.8418,-5.03905 -0.6884,0 -1.6738,-2.85 -2.1897,-6.33334 -0.5159,-3.48333 -1.7893,-8.73333 -2.8297,-11.66666 -1.0405,-2.93334 -2.4163,-7.73334 -3.0572,-10.66667 -2.1065,-9.63985 -7.7486,-30.58748 -9.3373,-34.66667 -0.8568,-2.2 -2.1385,-7.56078 -2.8483,-11.91284 -1.8454,-11.31629 -5.197,-20.91782 -14.5873,-41.78949 -1.4111,-3.13629 -2.5655,-7.61623 -2.5655,-9.95543 0,-2.33919 -0.8593,-6.67314 -1.9095,-9.63099 -3.0064,-8.46711 -5.7973,-19.15377 -7.9783,-30.550067 -1.1058,-5.778016 -3.0045,-11.60384 -4.2194,-12.946273 -2.2833,-2.522982 -1.7977,-8.116372 0.9968,-11.483641 3.6383,-4.383844 24.7978,10.648002 33.0158,23.454637 2.3158,3.608961 5.3133,10.368527 6.6611,15.021254 3.2452,11.20316 5.0994,15.2538 10.3628,22.63814 2.4222,3.39825 4.404,6.83277 4.404,7.63226 0,2.37119 9.5571,20.2891 14.9757,28.07682 2.7634,3.97157 5.0243,8.0527 5.0243,9.06917 0,1.01648 1.1419,4.06701 2.5376,6.77896 1.3956,2.71196 3.5001,7.03083 4.6766,9.59749 1.1765,2.56667 3.6206,7.06667 5.4315,10 1.8108,2.93334 4.9543,8.63334 6.9855,12.66667 2.0311,4.03333 6.1602,10.63333 9.1756,14.66667 3.0154,4.03333 5.921,8.72473 6.4569,10.42533 1.0632,3.37388 7.9982,8.2284 11.7661,8.23635 1.2997,0.003 4.9668,2.40498 8.1491,5.33832 3.1823,2.93333 6.3738,5.33333 7.0922,5.33333 0.7184,0 5.0624,4.05 9.6532,9 4.5909,4.95 10.3457,11.1 12.7884,13.66667 4.7033,4.94193 11.1986,14.91345 14.7647,22.66667 1.1805,2.56666 3.8811,7.24674 6.0012,10.40017 2.1201,3.15343 3.8547,6.23443 3.8547,6.84665 0,0.61223 1.4976,2.09436 3.3279,3.29363 1.8303,1.19927 5.1528,5.79575 7.3833,10.21439 4.1227,8.16697 7.3931,10.97914 9.2584,7.96106 0.5686,-0.91997 2.0162,-6.2574 3.217,-11.86096 3.0672,-14.31382 9.9656,-35.24092 14.5234,-44.05878 2.1216,-4.10455 4.9501,-9.56283 6.2855,-12.1295 1.3354,-2.56666 5.8732,-13.55149 10.0839,-24.41073 4.2108,-10.85923 9.5155,-22.19738 11.7883,-25.19587 2.2728,-2.99849 5.0077,-6.71367 6.0777,-8.25595 1.0699,-1.54226 3.9862,-5.12925 6.4807,-7.97108 3.7857,-4.313 4.4158,-5.90365 3.812,-9.62445 -0.7101,-4.37583 1.9669,-13.76039 5.0991,-17.87525 0.8373,-1.1 2.2239,-4.4 3.0814,-7.33334 8.78,-30.03529 9.6933,-33.65619 11.4348,-45.33333 0.8748,-5.86667 2.5022,-12.76667 3.6163,-15.33333 1.1141,-2.56667 2.8063,-8.26667 3.7606,-12.666673 0.9542,-4.4 3.1677,-11.756313 4.919,-16.347361 1.7512,-4.59105 3.1841,-9.447119 3.1841,-10.791267 0,-1.344147 1.2626,-5.987835 2.8059,-10.319306 1.5433,-4.331469 3.3183,-13.483755 3.9444,-20.338411 1.5903,-17.410572 5.0891,-20.582483 12.4825,-11.316415 3.5814,4.488579 3.9823,6.092534 4.9155,19.666627 0.5589,8.128707 1.6727,21.979466 2.4752,30.779466 1.8123,19.872451 2.1759,64.18304 0.79,96.26546 -1.0189,23.58672 -0.9664,24.39789 1.8778,29 1.6094,2.604 3.4257,4.73454 4.0362,4.73454 1.9048,0 12.1922,22.99171 13.4232,30 0.6441,3.66667 2.0831,10.84002 3.1978,15.94078 3.0248,13.84003 3.1701,56.98201 0.2147,63.71508 -1.2045,2.74404 -2.0888,7.54404 -1.9651,10.66667 0.1238,3.12261 -0.7768,8.97748 -2.0012,13.01081 -1.2244,4.03333 -3.1389,13.33333 -4.2545,20.66667 -1.1156,7.33333 -2.9871,17.23333 -4.1589,22 -1.1718,4.76666 -2.6341,13.16666 -3.2497,18.66666 -1.6633,14.86238 -4.0064,25.38914 -6.9036,31.01592 -2.3146,4.49509 -2.3794,5.32633 -0.624,8.00535 2.0431,3.11814 2.8608,6.9753 5.0127,23.6454 0.71,5.5 1.878,12.7 2.5955,16 2.9986,13.79207 -0.064,115.46286 -3.9968,132.66667 -0.6705,2.93334 -1.2338,7.35164 -1.2517,9.81847 -0.018,2.46681 -1.3239,6.78273 -2.9022,9.59093 -2.8228,5.02239 -2.829,5.16698 -0.379,8.84822 3.2698,4.91321 6.8577,15.48596 7.9626,23.4645 0.5224,3.77184 2.1958,7.94686 4.0854,10.19248 1.7603,2.09203 3.2006,4.15546 3.2006,4.5854 0,0.42995 2.3088,5.74334 5.1308,11.80754 2.8219,6.06418 6.1367,13.24781 7.3663,15.9636 1.2296,2.7158 2.9708,5.74113 3.8693,6.72298 2.5366,2.77191 4.8351,6.57899 7.0474,11.67255 1.1147,2.56667 4.0854,8.86667 6.6015,14 2.5161,5.13333 5.1378,11.92628 5.8261,15.09543 0.6882,3.16916 2.0792,6.76916 3.091,8 2.5683,3.12438 5.8586,10.71212 7.0436,16.24325 0.5492,2.56372 1.8374,6.16132 2.8626,7.99466 2.6485,4.73625 6.9197,17.65542 9.6979,29.33333 1.3084,5.5 3.6243,12.43073 5.1464,15.40164 1.5222,2.97089 4.3643,11.67089 6.3158,19.33333 1.9516,7.66243 4.1431,16.0317 4.8701,18.59836 0.7269,2.56667 1.8522,7.57684 2.5006,11.13371 0.6483,3.55688 2.0379,8.95688 3.088,12 2.4853,7.20283 4.8759,20.34391 4.8759,26.8028 0,2.81013 1.1715,9.07401 2.6033,13.91975 1.4318,4.84572 3.2208,12.41041 3.9756,16.81041 1.8303,10.66955 7.1567,29.69496 9.7055,34.66667 1.1278,2.2 2.4752,8.8 2.9942,14.66667 0.519,5.86667 1.8512,18.16667 2.9604,27.33327 3.2704,27.0259 5.2302,74.958 4.1705,102 -0.2011,5.1334 -0.2133,14.1334 -0.027,20 0.6497,20.4579 -0.6066,45.4331 -2.9803,59.2474 -1.3608,7.9192 -2.0879,16.8493 -1.6877,20.727 0.3916,3.7945 -0.078,9.8262 -1.061,13.6141 -0.9703,3.7406 -1.8134,13.0134 -1.8736,20.6063 -0.1431,18.0603 -3.7409,52.5441 -6.1006,58.4719 -1.0217,2.5667 -2.5527,10.0667 -3.4022,16.6667 -1.542,11.979 -6.3773,24.4358 -11.9037,30.6666 -1.3009,1.4667 -3.9986,5.1816 -5.995,8.2555 -3.4068,5.2456 -3.6632,6.7045 -4.1758,23.7639 -0.3004,9.9962 -1.0737,19.1813 -1.7186,20.4112 -0.6448,1.2298 -1.5338,7.5093 -1.9756,13.9542 -0.4417,6.4451 -1.3345,12.7451 -1.9841,14 -0.6496,1.2551 -1.4775,6.6231 -1.8399,11.9291 -0.3624,5.306 -1.3934,10.5323 -2.2912,11.614 -0.9599,1.1567 -2.1267,9.5411 -2.8322,20.3528 -0.6599,10.1123 -1.8268,22.286 -2.593,27.0527 -0.7662,4.7666 -1.6151,19.956 -1.8865,33.7541 -0.2715,13.7981 -1.1264,28.7981 -1.9,33.3333 -0.7735,4.5352 -1.8808,11.2012 -2.4606,14.8132 -0.5798,3.612 -1.7098,6.7806 -2.5111,7.0412 -1.8198,0.5919 -4.5108,-36.3766 -3.9022,-53.6085 0.2331,-6.6 0.5723,-18.9 0.7537,-27.3333 0.2941,-13.6682 1.7584,-32.3536 5.329,-68 0.6244,-6.2334 1.7053,-18.0076 2.4021,-26.1651 0.6968,-8.1573 1.9286,-16.0679 2.7373,-17.5789 1.8526,-3.4616 1.9115,-10.4927 0.097,-11.6139 -0.7552,-0.4668 -3.3203,0.8479 -5.7001,2.9213 -2.3799,2.0735 -9.412,7.0194 -15.627,10.9911 -6.2149,3.9716 -13.4321,8.6216 -16.0382,10.3333 -2.6061,1.7116 -5.2135,3.1122 -5.7942,3.1122 -0.5807,0 -2.6484,1.1146 -4.595,2.477 -1.9465,1.3624 -5.3391,2.8995 -7.5391,3.4156 -5.4913,1.2884 -16.6308,3.3924 -20.6667,3.9034 -1.8333,0.2321 -5.4333,1.1013 -8,1.9317 -9.5029,3.0741 -12.0046,3.0429 -11.9521,-0.1493 0.026,-1.6015 1.3764,-4.5228 3,-6.4919 3.006,-3.6456 12.1987,-10.4199 14.1398,-10.4199 0.5881,0 2.8717,-0.8992 5.0747,-1.9981 2.203,-1.0991 6.9452,-2.3561 10.5382,-2.7935 8.8655,-1.0792 12.743,-2.9934 26.6269,-13.1456 6.5482,-4.7882 13.8999,-10.0612 16.3371,-11.7177 2.4372,-1.6564 5.1372,-3.8188 6,-4.8053 0.8628,-0.9866 2.9187,-3.2638 4.5687,-5.0607 1.65,-1.7968 3,-4.0961 3,-5.1096 0,-1.0135 1.35,-2.9523 3,-4.3087 7.8288,-6.4353 18.8717,-28.9865 21.7391,-44.3941 3.5364,-19.0028 7.0042,-51.5153 7.8928,-74 0.4637,-11.7333 1.0834,-22.2333 1.3771,-23.3333 2.4279,-9.0933 4.7583,-39.6652 4.8784,-64 0.1518,-30.7529 -1.3511,-45.9652 -5.4337,-54.997 -3.141,-6.9488 -5.1341,-13.4324 -6.128,-19.9336 -0.4146,-2.7118 -2.6825,-7.2917 -5.0397,-10.1775 -2.3573,-2.8858 -5.449,-6.9671 -6.8704,-9.0695 -3.3405,-4.9408 -23.0511,-24.4891 -24.6925,-24.4891 -0.6908,0 -3.9231,-1.8 -7.1829,-4 -3.2598,-2.2 -6.4969,-4 -7.1935,-4 -0.6967,0 -2.267,-1.1053 -3.4895,-2.4562 -1.2226,-1.351 -7.4656,-5.0764 -13.8734,-8.2788 -6.4077,-3.2024 -15.1934,-8.0971 -19.5238,-10.8771 -4.3304,-2.78 -8.5994,-5.0546 -9.4869,-5.0546 -0.8874,0 -3.2903,-1.319 -5.3398,-2.9311 -2.0495,-1.6122 -7.0804,-4.6673 -11.1798,-6.7893 -4.0994,-2.1219 -10.9718,-6.2028 -15.272,-9.0688 -4.3003,-2.86589 -8.1124,-5.21074 -8.4715,-5.21074 -0.359,0 -4.2431,-3 -8.6313,-6.66667 -4.3882,-3.66666 -8.676,-6.6674 -9.5286,-6.66829 -0.8525,-8.9e-4 -3.3092,-1.51451 -5.4593,-3.36359 -2.1501,-1.84906 -4.4977,-3.1658 -5.2169,-2.92606 -0.7192,0.23973 -2.328,4.00333 -3.575,8.36357 -1.2471,4.36024 -3.1031,9.72771 -4.1244,11.92771 -2.5865,5.57177 -11.8215,17.99997 -13.3751,17.99997 -0.7061,0 -0.3499,-1.3335 0.7917,-2.9634 1.1416,-1.6298 2.0756,-4.0749 2.0756,-5.4335 0,-1.3586 2.3384,-6.47509 5.1963,-11.36997 2.858,-4.89488 5.9802,-12.08378 6.9381,-15.97534 l 1.7418,-7.07559 -4.5007,-4.20627 c -4.8457,-4.52869 -12.9041,-10.29589 -14.4347,-10.33053 -0.5174,-0.012 -2.9721,-1.81172 -5.4548,-4 -2.4827,-2.18829 -5.2281,-3.97871 -6.1009,-3.97871 -2.2412,0 -6.652,5.23548 -8.6245,10.23695 -0.919,2.33031 -2.8161,5.27331 -4.2158,6.53997 -1.3996,1.26668 -2.5448,2.8166 -2.5448,3.44427 0,0.62767 -1.1351,3.68467 -2.5224,6.79335 -1.3873,3.10866 -3.008,6.85213 -3.6016,8.3188 -0.906,2.23886 -1.1594,1.93445 -1.5793,-1.89763 -0.275,-2.51035 0.1155,-5.81035 0.8678,-7.33333 0.7523,-1.52298 2.341,-5.76904 3.5304,-9.43571 1.1893,-3.66667 4.0409,-10.08539 6.3367,-14.26383 4.0862,-7.43704 4.1221,-7.65471 1.7028,-10.32797 -1.3592,-1.50196 -5.5305,-4.15208 -9.2695,-5.88918 -3.739,-1.73709 -12.1917,-7.20608 -18.7838,-12.1533 l -11.9856,-8.99495 -6.6811,1.07835 c -3.6746,0.59309 -10.9322,1.10966 -16.128,1.14794 -8.7502,0.0644 -9.8008,-0.24132 -14.2457,-4.14608 -2.6393,-2.31862 -5.9113,-4.56876 -7.271,-5.00032 -2.5945,-0.82346 -12.3697,-11.75369 -12.3697,-13.83129 0,-0.66335 -1.2,-2.29205 -2.6666,-3.61937 -1.4667,-1.32732 -2.6667,-3.15152 -2.6667,-4.05378 0,-0.90226 -4.05,-5.40894 -9,-10.01484 -4.95,-4.60589 -9.9787,-9.83062 -11.1749,-11.61049 -1.1962,-1.77988 -5.0962,-5.64727 -8.6667,-8.5942 -9.0296,-7.45268 -26.6951,-24.75125 -33.5802,-32.88285 -4.2437,-5.012 -7.5272,-7.41591 -12.503,-9.15375 -4.0307,-1.40773 -7.592,-3.69904 -8.8441,-5.69009 -1.1529,-1.83334 -3.1765,-4.40671 -4.497,-5.71862 -2.6808,-2.66348 -2.9672,-4.65481 -1.0949,-7.61472 2.5507,-4.03248 24.966,-0.18136 38.6941,6.64794 12.5407,6.23864 18.6667,8.06978 18.6667,5.57978 0,-0.60808 -2.38,-4.35808 -5.2889,-8.33333 -5.0287,-6.87233 -17.3778,-29.80256 -17.3778,-32.26787 0,-2.35229 -11.2314,-20.49679 -16.6881,-26.95985 -15.6844,-18.57707 -22.4743,-23.1111 -36.9971,-24.7053 -10.8126,-1.18692 -16.2153,0.20296 -25.9812,6.68375 -6.46976,4.29343 -12.33362,12.62132 -12.33362,17.51631 0,0.83809 -1.26542,3.57132 -2.81205,6.07381 -2.41389,3.90576 -2.78549,6.44325 -2.62446,17.92105 0.20641,14.71175 2.32998,25.01525 7.25003,35.17705 1.7753,3.66666 4.59182,11.16666 6.25895,16.66666 1.66712,5.5 4.64125,13.3 6.60905,17.33334 1.9679,4.03333 4.5914,9.43333 5.8299,12 3.2874,6.81272 12.4767,21.62929 13.9975,22.56916 0.7192,0.44448 3.5989,5.08728 6.3993,10.31733 2.8005,5.23007 7.8338,13.62017 11.1851,18.64468 8.4177,12.62036 16.9993,26.97139 22.7873,38.10716 2.6844,5.16455 5.3907,9.75869 6.014,10.20921 0.6234,0.45052 2.4366,3.81913 4.0295,7.48579 1.5928,3.66667 4.4365,10.18918 6.3193,14.49446 1.8828,4.30529 3.4233,8.8864 3.4233,10.18025 0,3.1166 2.5083,8.66773 7.184,15.89901 2.1008,3.24888 4.711,8.04888 5.8006,10.66669 1.0896,2.6178 4.2629,7.2409 7.0518,10.2737 2.7889,3.0328 6.0268,7.3631 7.1953,9.6227 1.1685,2.2597 6.6058,7.4226 12.0829,11.4731 13.0915,9.6815 14.8944,11.1549 20.8094,17.0055 4.9118,4.8583 11.0903,7.6147 12.9345,5.7704 0.514,-0.5139 -1.7175,-5.8278 -4.9587,-11.8086 -4.8292,-8.911 -5.9559,-12.3218 -6.2406,-18.8924 -0.191,-4.41 0.3242,-9.9439 1.145,-12.2976 1.3535,-3.8809 1.1797,-4.5255 -1.8667,-6.9217 -1.8475,-1.4533 -6.0093,-6.12752 -9.2483,-10.38724 -3.2391,-4.25971 -6.9392,-8.52896 -8.2226,-9.4872 -1.2833,-0.95825 -2.3333,-2.49169 -2.3333,-3.40763 0,-0.91594 -1.529,-3.73193 -3.3978,-6.25773 -4.1384,-5.59336 -11.7558,-21.08725 -14.3849,-29.25904 -2.2174,-6.8925 -7.2019,-20.74146 -8.8779,-24.66667 -0.6262,-1.46667 -1.4629,-4.16667 -1.8594,-6 -0.3965,-1.83333 -1.6241,-7.23333 -2.7282,-12 -1.3463,-5.81275 -1.7351,-11.65655 -1.1807,-17.74621 0.4936,-5.42231 0.1408,-12.71408 -0.8759,-18.1027 -1.7814,-9.44109 -0.6496,-14.81776 3.1193,-14.81776 1.7728,0 7.5188,5.43706 7.5188,7.11452 0,0.51847 1.65,3.43366 3.6667,6.47822 3.2527,4.91065 3.7518,7.15401 4.4209,19.87196 0.4322,8.21609 1.4484,15.17293 2.3804,16.29592 0.8945,1.07773 2.1966,5.46368 2.8936,9.74654 0.6971,4.28286 2.4291,10.19583 3.849,13.13992 1.4198,2.94411 3.9079,8.35292 5.5291,12.01959 5.1566,11.66314 12.9466,26.28608 14.561,27.33334 0.5652,0.36666 2.4538,2.77028 4.1968,5.34134 1.7431,2.57108 6.7101,9.04995 11.0379,14.3975 4.3277,5.34753 8.8277,11.45246 10,13.56649 3.6059,6.50314 24.9867,30.69464 27.1283,30.69464 0.7283,0 6.9026,4.65 13.7207,10.3333 6.8182,5.6834 15.1086,11.937 18.4232,13.8971 3.3146,1.96 7.8774,6.16 10.1395,9.3333 2.2621,3.1733 5.3122,7.2696 6.7779,9.103 1.4658,1.8333 4.0023,5.554 5.6367,8.2682 3.3881,5.6265 18.9524,23.2336 30.9968,35.0651 12.343,12.1247 34.8281,31.3333 36.6781,31.3333 0.6643,0 4.125,2.55 7.6907,5.6667 3.5656,3.1167 9.0313,7.4667 12.1462,9.6667 3.1148,2.2 7.2675,5.2617 9.2282,6.8038 1.9607,1.5421 5.665,3.713 8.2317,4.8242 2.5666,1.1112 8.2467,3.5652 12.6224,5.4532 4.3757,1.8881 8.3145,4.4553 8.7528,5.7049 1.0597,3.0211 -2.5844,13.8805 -4.6579,13.8805 -5.6931,0 -18.265,-6.3498 -30.2111,-15.259 -7.4296,-5.5409 -14.1374,-10.0743 -14.906,-10.0743 -0.7687,0 -5.7839,-3.6 -11.1449,-8 -5.3609,-4.4 -10.0953,-8 -10.5207,-8 -0.4255,0 -8.2931,-6.45 -17.4837,-14.3333 -9.1906,-7.8834 -17.4539,-14.7584 -18.363,-15.2779 -2.2472,-1.2841 -6.8157,2.1317 -11.5002,8.5984 l -3.8905,5.3707 2.7547,4.9014 c 1.7163,3.0538 2.5901,6.6302 2.3181,9.4877 -0.3898,4.0938 -0.903,4.6313 -4.7792,5.0048 -2.9908,0.2882 -4.5916,-0.2306 -5.1427,-1.6667 -1.4842,-3.8678 -5.5862,-2.1933 -9.7537,3.9817 -2.2519,3.3368 -4.0944,6.5875 -4.0944,7.2238 0,0.6363 -1.5,4.1434 -3.3334,7.7935 -1.8333,3.6501 -3.3358,7.1494 -3.3389,7.7762 0,0.6268 -1.5031,4.0914 -3.3333,7.699 -1.8303,3.6076 -3.3278,7.5429 -3.3278,8.7452 0,1.2022 -0.8809,3.3505 -1.9576,4.774 -1.0766,1.4235 -1.9771,3.4882 -2.001,4.5882 -0.066,3.0344 -7.7517,18.6666 -9.1777,18.6666 -0.7482,0 -0.8115,1.9422 -0.1578,4.8405 1.0635,4.7154 6.7811,13.7787 12.919,20.4786 3.3965,3.7075 5.3907,11.532 3.4371,13.4857 -2.2835,2.2834 -16.3151,-0.2428 -20.3891,-3.6708 -2.0485,-1.7237 -4.6879,-3.134 -5.8654,-3.134 -1.1774,0 -2.1408,-0.9039 -2.1408,-2.0088 0,-1.1048 -1.6041,-3.3548 -3.5647,-5 -1.9606,-1.6451 -5.933,-5.2412 -8.8275,-7.9912 -2.8945,-2.75 -6.0191,-5 -6.9437,-5 -0.9245,0 -3.2827,2.1 -5.2404,4.6667 -1.9577,2.5667 -4.0501,4.6667 -4.6499,4.6667 -0.5997,0 -0.2785,-3.45 0.7137,-7.6667 0.9923,-4.2167 1.8135,-8.4116 1.825,-9.322 0.029,-2.3444 -15.2019,-17.4711 -24.3125,-24.1455 -4.2167,-3.0892 -7.6667,-6.1473 -7.6667,-6.7959 0,-0.6485 -2.4375,-3.1098 -5.4168,-5.4694 l -5.4168,-4.2901 -7.5638,3.8448 c -9.1749,4.6637 -8.8429,4.4416 -16.2692,10.8782 -7.8989,6.8461 -16.5615,11.5481 -19.3232,10.4883 -3.576,-1.3722 -1.7472,-4.9189 4.1642,-8.0758 3.0292,-1.6178 7.3116,-4.4049 9.5163,-6.1937 2.2048,-1.7887 7.0763,-4.9021 10.8257,-6.9185 3.7493,-2.0165 6.817,-4.5613 6.817,-5.6553 0,-1.7744 -6.5159,-6.2378 -18.9005,-12.9467 -2.3029,-1.2475 -6.3424,-4.3223 -8.9767,-6.8329 -2.6342,-2.5105 -6.5895,-4.9861 -8.7895,-5.5012 -8.7966,-2.0598 -18.4638,-7.8161 -26.7878,-15.9507 -2.8667,-2.8015 -7.9122,-7.2601 -11.2122,-9.9079 -11.0084,-8.8329 -29.4563,-28.1224 -36.6667,-38.3393 -1.46665,-2.0783 -4.48772,-5.8984 -6.71347,-8.4892 -5.29349,-6.1617 -9.46001,-12.8656 -16.60076,-26.7105 -7.66193,-14.8555 -8.12699,-15.693 -12.38659,-22.3069 -1.99787,-3.1021 -3.6325,-6.8092 -3.6325,-8.2381 0,-6.75 10.54446,-9.3042 15.63978,-3.7884 1.52421,1.65 3.75971,5.4 4.96778,8.3334 1.20808,2.9333 4.98168,8.8804 8.38579,13.2157 4.73493,6.0302 6.12309,8.8654 5.90757,12.0656 -0.20452,3.0368 0.9209,5.6269 4.1065,9.4509 2.4135,2.8973 5.9605,7.3678 7.8823,9.9344 6.1861,8.2622 17.6494,19.5475 22.2679,21.9223 2.47,1.2701 11.128,9.1571 19.24,17.5268 8.1119,8.3697 15.4946,15.2176 16.4059,15.2176 0.9113,0 4.4931,3.3198 7.9596,7.3773 6.4713,7.5747 21.8649,20.6227 24.33,20.6227 0.7599,0 1.7501,-3.45 2.2003,-7.6667 1.886,-17.6618 1.8549,-17.6089 13.3991,-22.8158 5.1954,-2.3434 7.4324,-2.7274 10,-1.7167 4.0782,1.6052 18.0968,13.4522 20.9744,17.7252 1.1633,1.7274 4.344,5.5407 7.0683,8.474 10.2926,11.0827 15.6616,17.5011 18.9603,22.6667 4.615,7.2268 10.2108,12.9188 12.0911,12.2991 0.8507,-0.2803 2.2,-1.8082 2.9984,-3.3953 0.7985,-1.587 2.3236,-3.9396 3.3892,-5.228 1.0656,-1.2884 3.3443,-5.2723 5.0638,-8.8532 3.34,-6.956 12.8903,-18.5908 27.1971,-33.1335 9.351,-9.5052 9.842,-11.331 4.2964,-15.9781 -1.5023,-1.259 -3.7533,-2.309 -5.0021,-2.3334 -2.2495,-0.044 -9.1123,2.5674 -10.3961,3.9557 -0.9681,1.0469 -7.9049,4 -9.396,4 -2.5183,0 -1.1953,-2.2544 2.396,-4.083 6.8277,-3.4764 13.6667,-8.2649 13.6667,-9.569 0,-2.9309 -13.4972,-18.3876 -29.6667,-33.9737 -3.4833,-3.3577 -6.3333,-6.8109 -6.3333,-7.6738 0,-3.7606 -6.8465,-7.9539 -14.3947,-8.8163 -11.0993,-1.2682 -21.4488,-3.6108 -26.0144,-5.8884 -4.6673,-2.3284 -11.5909,-2.6479 -11.5909,-0.5349 0,0.8036 0.822,3.0536 1.8266,5 1.0047,1.9465 4.6267,9.2391 8.049,16.2058 3.4223,6.9666 8.3003,16.4674 10.8401,21.1127 2.5397,4.6453 4.6176,9.0282 4.6176,9.7398 0,0.7116 1.2326,3.9993 2.739,7.3062 2.2999,5.0486 2.5932,7.4912 1.8299,15.2381 -0.5204,5.2811 -1.7084,9.889 -2.7785,10.7771 -3.4643,2.8752 -8.184,-0.8498 -12.8077,-10.1084 -13.1954,-26.4228 -24.705,-48.2616 -31.6562,-60.0655 -4.3185,-7.3334 -7.8836,-14.4073 -7.9225,-15.7198 -0.1252,-4.2285 -8.8902,-19.5101 -16.2205,-28.2802 -1.2259,-1.4667 -2.6518,-4.7667 -3.1687,-7.3334 -0.5169,-2.5666 -2.0817,-6.6509 -3.4773,-9.0762 -1.3956,-2.4252 -2.5375,-5.196 -2.5375,-6.1572 0,-0.9612 -2.1,-5.8484 -4.6666,-10.8603 -2.5667,-5.0119 -4.6667,-9.77889 -4.6667,-10.59323 0,-2.1857 -6.348,-14.95865 -7.9158,-15.92761 -0.7415,-0.45831 -2.1952,-3.65752 -3.2303,-7.10935 -2.2393,-7.4678 -12.261,-27.03535 -19.2172,-37.52205 -2.7335,-4.12087 -6.17,-9.80004 -7.6367,-12.62038 -1.4667,-2.82033 -4.1709,-6.76158 -6.0094,-8.75833 -3.6943,-4.01221 -8.9634,-11.88616 -12.0672,-18.03252 -1.1083,-2.19481 -3.1564,-4.21036 -4.5513,-4.479 -1.3949,-0.26864 -4.8133,-1.99535 -7.5964,-3.83713 -2.78314,-1.84179 -7.77122,-3.65427 -11.08465,-4.02775 -3.31342,-0.37347 -6.0244,-1.13288 -6.0244,-1.68757 0,-1.17884 -11.01177,-3.23695 -16.32453,-3.05106 -6.26133,0.21907 -21.0088,9.14598 -21.0088,12.717 0,0.64851 -1.72971,3.39392 -3.8438,6.10092 -4.56453,5.84468 -4.74016,6.53016 -7.51697,29.33835 -1.3674,11.23155 -1.70045,18.33137 -0.90692,19.33333 0.68973,0.87091 1.63872,5.78347 2.10888,10.91681 1.76208,19.23912 3.6309,27.25646 9.12245,39.13584 3.51402,7.60153 3.96674,10.13853 4.41922,24.76453 0.27727,8.9625 1.16694,18.0387 1.97705,20.1695 0.81011,2.1307 2.05962,10.6295 2.77669,18.8861 0.71708,8.2567 2.24601,17.5693 3.39764,20.6947 1.46938,3.9878 2.24099,11.9574 2.58719,26.7218 0.29516,12.5878 1.12162,22.2131 2.05743,23.9617 1.05973,1.9801 1.66206,14.3286 1.86791,38.2942 0.16709,19.4544 0.76517,40.3386 1.32906,46.4094 0.89182,9.6014 1.50781,11.5102 4.7331,14.6667 4.05214,3.9658 6.55773,9.403 6.55773,14.2306 0,6.9273 12.25069,37.655 22.08645,55.3982 1.01627,1.8334 3.74527,7.2334 6.06427,12 2.3191,4.7667 6.0839,10.8538 8.3662,13.5268 2.2824,2.6731 5.5073,6.8731 7.1664,9.3334 1.6592,2.4602 5.4446,7.7732 8.412,11.8065 2.9674,4.0333 6.6329,10.0107 8.1455,13.2828 5.5742,12.0587 22.7531,30.2229 33.0925,34.9908 4.0334,1.8599 10.5119,5.8957 14.3968,8.9685 3.8849,3.0727 12.2849,8.2038 18.6666,11.4023 7.8557,3.9372 14.5796,8.6409 20.8186,14.564 5.0684,4.8117 10.3533,9.1097 11.7444,9.5512 1.6608,0.5272 2.388,1.7933 2.118,3.6883 -0.451,3.1656 -0.8071,3.1914 -17.149,1.2437 -4.8059,-0.5728 -10.3348,-2.0877 -12.2864,-3.3665 -1.9517,-1.2788 -5.5961,-2.3251 -8.0988,-2.3251 -2.6244,0 -5.3248,-0.9399 -6.3803,-2.2207 -1.66,-2.0146 -12.2497,-9.5113 -18.773,-13.2898 -1.4342,-0.8307 -4.5087,-3.3087 -6.8323,-5.5067 -4.8234,-4.5625 -9.0661,-6.9828 -12.241,-6.9828 -2.8652,0 -17.9119,-13.4089 -17.9542,-16 -0.04,-2.4357 -5.7838,-9.3333 -7.7725,-9.3333 -2.2217,0 -3.3009,2.6053 -1.8191,4.3917 0.7336,0.8845 2.2792,6.4083 3.4346,12.2749 1.1553,5.8667 2.7067,12.9167 3.4474,15.6667 0.7408,2.75 1.9556,7.25 2.6995,10 0.744,2.75 1.9733,7.7 2.7319,11 0.7585,3.3 1.9616,8.4 2.6735,11.3333 0.7118,2.9334 1.5767,9.0466 1.922,13.585 0.3453,4.5382 1.8335,11.3105 3.3072,15.0493 1.4737,3.7388 2.6795,8.5948 2.6795,10.7912 0,2.1964 0.9,6.1475 2,8.7801 1.1699,2.8002 2,8.9058 2,14.7116 0,5.4587 0.678,11.1916 1.5066,12.74 0.9361,1.7492 1.4396,9.6691 1.3296,20.9124 -0.098,9.9534 0.3286,19.8971 0.9468,22.0971 0.6182,2.2 0.6276,5.8 0.021,8 -0.7237,2.6245 -0.4021,6.7477 0.9352,11.9907 1.121,4.3948 2.0467,10.9948 2.057,14.6666 0.02,7.1148 0.5682,25.3087 1.7074,56.676 0.7908,21.7747 -0.1048,29.7583 -3.4101,30.3948 -1.2197,0.235 -2.5444,-0.6644 -2.9744,-2.0193 z m 147.9367,-464.2738 c 0.4161,-2.6226 1.3237,-5.8102 2.017,-7.0836 0.6933,-1.2734 1.2605,-3.4294 1.2605,-4.7912 0,-1.3619 1.2,-5.9639 2.6667,-10.2269 1.4666,-4.2629 2.6666,-9.136 2.6666,-10.8291 0,-1.693 1.8,-5.9166 4,-9.3856 2.2,-3.4691 4.0132,-7.2399 4.0293,-8.3797 0.052,-3.6393 4.7674,-12.6534 9.1039,-17.4013 4.6888,-5.1336 5.3743,-8.0439 1.8668,-7.9257 -1.9463,0.066 -9.3918,8.0668 -19,20.4179 -1.1,1.414 -3.0462,3.677 -4.325,5.0289 -1.2788,1.3519 -6.5857,8.7615 -11.7932,16.4658 -5.2074,7.7043 -10.0112,14.3434 -10.6749,14.7537 -1.9262,1.1904 -1.396,6.7716 0.8177,8.6089 1.1136,0.9241 3.011,3.8476 4.2167,6.4966 1.2056,2.6489 3.6902,6.8517 5.5212,9.3393 3.1128,4.2289 3.4444,4.3656 5.0997,2.1017 0.9738,-1.3317 2.111,-4.5671 2.527,-7.1897 z m 38.524,-110.7353 c 3.9346,-1.496 4.2698,-3.0741 1.3526,-6.3664 -1.1371,-1.2833 -4.7542,-6.1082 -8.0379,-10.7219 -3.3345,-4.6851 -6.5952,-8.0025 -7.3855,-7.514 -2.8937,1.7884 2.0278,16.3085 7.9887,23.5693 2.2532,2.7445 1.7881,2.6656 6.0821,1.033 z m 217.8227,-52.1404 c 0.2215,-6.1743 -0.2466,-13.626 -1.04,-16.5593 -0.7935,-2.9333 -2.0517,-11.0333 -2.796,-18 -2.2359,-20.9268 -3.4806,-28.12241 -6.9192,-39.99997 -4.2316,-14.61691 -6.314,-23.39212 -6.314,-26.60711 0,-3.82569 -1.9529,-4.343 -6.5385,-1.73196 -4.0435,2.30236 -4.2197,2.27892 -11.2294,-1.49409 -6.5293,-3.5144 -18.6579,-12.83351 -16.7026,-12.83351 0.4586,0 5.252,1.4517 10.6521,3.22603 5.4001,1.7743 12.2891,3.61365 15.3089,4.08742 6.8139,1.06906 7.7684,-0.66301 5.2918,-9.60268 -0.9717,-3.5076 -2.5121,-11.47744 -3.4231,-17.71077 -0.911,-6.23334 -3.0345,-15.53334 -4.7189,-20.66667 -1.6845,-5.13333 -3.4871,-11.73333 -4.0058,-14.66667 -1.6523,-9.34316 -6.0204,-24.70622 -13.4583,-47.33333 -9.9406,-30.24075 -9.8429,-29.91919 -9.8429,-32.38276 0,-2.05329 -2.6601,-9.05349 -5.6282,-14.81065 -1.2204,-2.36734 -4.158,-10.40883 -8.3312,-22.80659 -0.9874,-2.93334 -5.668,-13.43334 -10.4013,-23.33334 -4.7334,-9.9 -9.0634,-19.5 -9.6224,-21.33333 -0.5589,-1.83333 -5.7231,-13.05607 -11.4759,-24.93941 -5.7529,-11.88334 -10.8292,-23.28334 -11.2807,-25.33334 -1.3134,-5.96348 -3.7047,-11.9172 -13.3598,-33.26209 -1.0453,-2.31083 -1.9005,-4.81896 -1.9005,-5.57364 0,-0.75468 -1.7324,-5.164 -3.8499,-9.79849 -2.1175,-4.6345 -4.2584,-9.92636 -4.7577,-11.7597 -1.6441,-6.0367 -6.2831,-17.89629 -9.3878,-24 -1.6786,-3.3 -3.4856,-8.1 -4.0156,-10.66667 -0.53,-2.56666 -1.4129,-5.26666 -1.9622,-6 -0.5492,-0.73333 -2.6717,-6.73333 -4.7166,-13.33333 -2.0449,-6.6 -4.1229,-12.6 -4.6178,-13.33333 -0.4949,-0.73334 -1.9829,-4.33334 -3.3066,-8 -1.3237,-3.66667 -3.827,-9.83446 -5.5629,-13.70619 -1.7359,-3.87172 -3.1753,-7.77172 -3.1986,-8.66667 -0.023,-0.89493 -0.9233,-2.79182 -2,-4.21532 -1.0767,-1.42349 -1.9576,-3.47625 -1.9576,-4.56168 0,-1.08542 -0.8025,-2.92074 -1.7834,-4.07849 -0.9809,-1.15775 -2.5379,-5.61723 -3.4599,-9.90997 -0.9221,-4.29274 -2.7484,-9.69274 -4.0584,-12 -1.31,-2.30726 -3.4261,-7.19502 -4.7024,-10.86168 -3.2929,-9.45952 -5.7354,-15.39066 -8.2363,-20 -4.7424,-8.7408 -9.7596,-19.45399 -9.7596,-20.83971 0,-0.80514 -1.1198,-3.64558 -2.4884,-6.3121 -1.3686,-2.6665 -3.7225,-7.5482 -5.2309,-10.8482 -10.1484,-22.202 -14.1042,-29.63589 -22.3495,-42 -2.9342,-4.4 -6.3852,-10.2245 -7.6688,-12.94336 -1.2836,-2.71885 -2.8798,-5.28084 -3.5472,-5.6933 -0.6674,-0.41247 -2.7417,-3.98051 -4.6097,-7.92899 -1.8679,-3.94848 -4.8122,-8.88651 -6.5428,-10.97337 -1.7306,-2.08687 -5.7332,-8.59431 -8.8946,-14.46098 -9.1887,-17.05153 -20.0451,-31.93904 -28.641,-39.27574 -2.1851,-1.865 -6.2228,-5.49092 -8.9725,-8.05759 -4.5891,-4.28345 -14.0424,-9.6818 -26.7181,-15.25746 -8.0463,-3.53936 -18.6207,-0.2778 -25.3069,7.80566 -2.8747,3.47548 -2.9583,11.70228 -0.2924,28.78513 1.0871,6.96667 2.1987,14.76667 2.4701,17.33334 0.2714,2.56666 1.7034,7.43236 3.1821,10.81266 4.3843,10.02247 9.5474,21.48831 12.2424,27.18734 1.3872,2.93333 3.8134,8.63333 5.3916,12.66666 1.5782,4.03334 3.41,8.23334 4.0705,9.33334 15.7351,26.2034 26.1878,45.96269 26.9012,50.85264 0.5876,4.02781 3.5421,9.50762 5.8662,10.88028 1.1276,0.66597 1.8054,3.51925 1.8054,7.60041 0,8.45188 -2.4918,10.15699 -9.5676,6.54716 -7.6801,-3.91809 -8.2504,-3.54692 -7.2769,4.73608 0.4708,4.00578 1.4252,8.65578 2.1208,10.33334 3.8299,9.2352 10.7237,29.23776 10.7237,31.11489 0,1.19969 1.1581,3.65356 2.5736,5.45305 1.4154,1.7995 4.1993,7.59414 6.1863,12.87698 1.9871,5.28284 4.3822,10.50517 5.3225,11.60517 0.9404,1.1 2.1216,3.65 2.6249,5.66667 0.9365,3.7527 1.6867,4.14854 7.0299,3.70958 5.4995,-0.4518 6.6308,1.821 5.9114,11.87572 -0.5716,7.98882 -0.2801,9.70555 2.1791,12.83184 1.5614,1.98503 2.8389,4.99282 2.8389,6.68398 0,1.69116 0.6,3.44565 1.3334,3.89888 0.7333,0.45322 1.3333,1.98864 1.3333,3.41202 0,1.42339 0.5297,2.58798 1.1772,2.58798 0.6475,0 2.7362,3.15 4.6415,7 6.612,13.36033 11.9644,21.71398 19.6341,30.64399 6.1171,7.1223 7.9007,10.24692 8.6317,15.12152 0.7485,4.99121 0.427,6.80944 -1.7134,9.68933 -3.163,4.25593 -9.4943,5.28463 -14.0706,2.28613 -1.749,-1.14601 -3.5822,-1.68156 -4.0736,-1.19009 -2.2102,2.21019 -0.03,12.56123 5.856,27.80823 1.4211,3.68084 2.5838,8.05473 2.5838,9.71977 0,1.66505 1.2,5.37955 2.6666,8.25445 1.4667,2.87491 2.6667,6.41559 2.6667,7.86819 0,1.45261 0.5562,2.98487 1.236,3.40503 0.6799,0.42016 1.9323,3.00557 2.7832,5.74536 0.851,2.73978 2.6947,7.52489 4.0973,10.63356 1.4026,3.10868 2.5502,5.98954 2.5502,6.40194 0,0.4124 3.2163,7.46894 7.1473,15.6812 3.9311,8.21227 7.9089,17.27603 8.8395,20.14171 0.9307,2.86568 4.6144,10.93247 8.186,17.92621 3.5716,6.99375 6.4938,13.70611 6.4938,14.91637 0,1.21026 1.2,3.28645 2.6667,4.61377 1.4667,1.32732 2.6667,3.31777 2.6667,4.42325 0,1.10548 1.8625,4.91248 4.139,8.46002 3.8533,6.00497 4.5204,6.45057 9.6666,6.4575 3.0402,0.004 7.6277,0.57944 10.1944,1.27856 2.5666,0.69912 9.397,1.84763 15.1787,2.55223 13.5216,1.64789 15.4863,3.35415 12.6907,11.02155 -1.8713,5.1322 -2.5564,5.67952 -9.2783,7.41257 -9.1009,2.34639 -13.1671,2.47228 -37.9245,1.17417 -29.1567,-1.52878 -40.6666,-1.01333 -40.6666,1.82116 0,1.5224 4.9927,2.69263 11.5798,2.71412 3.069,0.0107 7.2056,0.63628 9.1925,1.39171 1.9869,0.75543 12.676,1.64892 23.7534,1.98555 23.7239,0.72092 36.6179,1.92198 37.5943,3.50188 0.3872,0.62648 2.1686,1.13906 3.9586,1.13906 1.7901,0 3.2547,0.679 3.2547,1.5089 0,1.05325 -1.7112,1.18745 -5.6667,0.44441 -3.1166,-0.58545 -15.013,-1.21341 -26.4362,-1.39545 -11.4233,-0.18204 -23.2102,-0.98816 -26.1931,-1.79138 -2.9829,-0.80321 -15.9762,-1.4948 -28.8741,-1.53685 -14.0381,-0.0457 -23.7798,-0.60919 -24.2708,-1.40372 -0.4512,-0.73 0.2371,-2.49576 1.5296,-3.92389 2.2523,-2.48878 2.23,-2.7242 -0.5361,-5.66859 -1.7097,-1.81993 -2.8859,-4.79967 -2.8859,-7.311 0,-3.40205 1.0373,-4.99048 5.2538,-8.04488 4.4998,-3.25968 6.9395,-3.9252 17,-4.63752 14.025,-0.99301 17.7462,-1.92265 17.7462,-4.43356 0,-3.37139 -7.919,-17.66927 -10.5729,-19.0896 -1.4219,-0.76095 -4.0892,-1.38353 -5.9275,-1.38353 -1.8382,0 -3.7131,-0.6 -4.1663,-1.33334 -0.4532,-0.73333 -4.4387,-1.33333 -8.8565,-1.33333 -5.7395,0 -7.8772,-0.46556 -7.4888,-1.63095 0.385,-1.1549 3.7247,-1.51041 11.4421,-1.21798 8.9365,0.33862 11.0432,0.0356 11.7028,-1.68338 0.7553,-1.96821 -3.8814,-15.47391 -6.5691,-19.13436 -1.6472,-2.24344 -4.6522,-2.10212 -7.0877,0.33333 -2.3009,2.30091 -4.3055,2.49292 -7.1428,0.6842 -2.9727,-1.895 0.017,-5.91397 4.8011,-6.45346 2.1261,-0.23976 4.336,-0.89022 4.911,-1.44547 0.575,-0.55524 -1.375,-5.74249 -4.3333,-11.52721 -2.9584,-5.78474 -5.3788,-11.35258 -5.3788,-12.373 0,-1.02042 -1.1135,-4.037 -2.4743,-6.70352 -4.8337,-9.47103 -8.1924,-17.61819 -8.1974,-19.88387 0,-1.26372 -1.3053,-4.39767 -2.8947,-6.96433 -1.5894,-2.56667 -3.9626,-8.86667 -5.2739,-14 -2.5045,-9.80502 -6.884,-25.26892 -8.1186,-28.66667 -5.4457,-14.98773 -9.2891,-45.76511 -7.0104,-56.13967 0.6603,-3.00632 0.3746,-3.86033 -1.2911,-3.86033 -3.1259,0 -4.8423,5.5118 -6.851,22 -5.0711,41.62487 -5.9507,48.15837 -6.7318,50 -2.7153,6.402 -4.8964,25.28784 -9.855,85.33333 -1.8276,22.13168 -1.7919,48.04329 0.069,49.90406 0.7562,0.7562 3.9072,2.3608 7.0021,3.5658 4.4245,1.72264 5.719,2.9568 6.0569,5.77448 0.8248,6.87932 -0.087,7.22124 -27.0772,10.15768 -7.3228,0.79668 -13.5549,1.68928 -13.8492,1.98357 -0.5614,0.56142 9.1906,13.45787 13.915,18.40166 1.5134,1.58368 7.991,7.92789 14.3946,14.09825 6.4036,6.17035 13.5499,13.67035 15.8806,16.66667 2.3307,2.9963 4.5569,5.74784 4.9472,6.1145 0.3903,0.36667 2.8058,3.47338 5.3678,6.90379 4.5653,6.11277 7.1537,7.90357 23.3248,16.13736 4.4,2.24033 10.6345,6.37257 13.8544,9.18276 3.7272,3.25293 7.1803,5.10943 9.5034,5.10943 2.007,0 4.4004,0.90537 5.3188,2.01193 0.9184,1.10656 4.0321,2.38969 6.9194,2.85139 2.8873,0.46169 6.1613,1.75113 7.2756,2.8654 2.4526,2.45256 7.1058,5.88404 21.1284,15.58077 15.5424,10.74767 37.8281,27.09495 46.6426,34.21382 4.2154,3.40449 12.8453,8.80449 19.1776,12 6.3322,3.19552 11.8132,6.19302 12.1798,6.66112 0.7278,0.92906 24.693,13.15831 36.1689,18.45671 7.3332,3.3857 17.7533,9.8459 20.9575,12.9932 0.9861,0.9686 3.5103,2.6492 5.6094,3.7347 4.7449,2.4537 19.1642,12.6722 24.8458,17.6074 2.3365,2.0296 6.0911,7.3735 8.3436,11.8754 4.2316,8.4573 11.5715,16.8686 14.015,16.0607 0.7772,-0.2569 1.5712,-5.424 1.7957,-11.6866 z m -61.7359,-155.36786 c -2.9333,-1.14136 -6.6833,-2.3963 -8.3333,-2.78875 -1.65,-0.39244 -3,-1.24359 -3,-1.89144 0,-0.64784 -1.3,-1.17789 -2.8889,-1.17789 -1.5889,0 -2.5131,-0.37582 -2.0538,-0.83514 0.4594,-0.45932 5.5094,0.18972 11.2223,1.44232 5.7129,1.2526 11.7797,2.55055 13.4818,2.88431 3.605,0.70692 3.2199,3.70251 -0.5325,4.14181 -1.4092,0.16499 -4.9622,-0.63386 -7.8956,-1.77522 z m -83.3333,-35.95478 c -4.7667,-0.97836 -12.4167,-1.80684 -17,-1.84106 -7.9138,-0.0591 -8.3333,-0.225 -8.3333,-3.29503 0,-2.94772 0.4409,-3.18273 5,-2.66508 2.75,0.31224 7.7,1.17936 11,1.92693 3.3,0.74756 10.4925,1.79686 15.9833,2.33174 7.9783,0.77721 10.0733,1.44116 10.4311,3.30586 0.5458,2.84451 -4.0641,2.90838 -17.0811,0.23664 z m 28.6667,-9.27286 c -0.7334,-0.21075 -5.0834,-1.16258 -9.6667,-2.11518 -12.2727,-2.55076 -11.0398,-5.16774 2,-4.2453 5.6833,0.40204 10.9076,1.26005 11.6095,1.9067 1.4654,1.34999 -1.8219,5.06327 -3.9428,4.45378 z m -54,-64.63382 c 0,-2.56745 0.7683,-2.6571 19.9986,-2.33333 14.3706,0.24195 19.9991,0.78276 20,1.92168 0,2.42497 -11.3271,3.58469 -19.3258,1.97832 -4.6877,-0.94141 -8.6607,-0.99823 -11.5648,-0.16536 -6.809,1.95281 -9.108,1.59911 -9.108,-1.40131 z m -3,-23.53935 c -3.3109,-0.92629 -2.896,-2.69374 1.2738,-5.42654 2.7492,-1.80183 6.1581,-2.33512 14.3333,-2.24238 12.5497,0.14238 24.4767,1.72922 25.5052,3.39338 1.3497,2.18392 -3.3889,2.76453 -9.8711,1.20948 -5.3082,-1.27343 -7.9785,-1.16584 -15.0155,0.60493 -11.6557,2.93304 -13.5254,3.21663 -16.2257,2.46113 z m 1.9581,-30.24048 c -3.7595,-2.08714 -2.5243,-3.55013 2.9974,-3.55013 3.9786,0 7.3778,1.9658 7.3778,4.26667 0,1.65102 -6.9787,1.16905 -10.3752,-0.71654 z M 368.18461,596.6992 c -0.5052,-0.81751 -0.1305,-1.7103 0.8326,-1.98396 10.0439,-2.85391 11.8165,-3.12315 12.567,-1.90888 1.2808,2.07234 -1.005,3.54585 -6.9817,4.50068 -3.5084,0.56048 -5.8318,0.34042 -6.4179,-0.60784 z m -20.514,-18.35967 c 0.2371,-1.22399 1.9854,-3.17399 3.8851,-4.33333 1.8997,-1.15934 5.9377,-3.75788 8.9735,-5.77455 3.0357,-2.01667 6.358,-3.66667 7.3827,-3.66667 1.0248,0 2.547,-0.8238 3.3826,-1.83068 0.8356,-1.00686 5.2591,-2.85296 9.8299,-4.10241 10.0385,-2.74408 15.644,-5.03455 15.644,-6.39239 0,-1.42216 3.6884,-1.25737 4.5923,0.20516 1.6366,2.6481 -1.1116,5.3164 -7.6881,7.4647 -3.7974,1.24044 -9.2669,3.3954 -12.1547,4.78881 -2.8877,1.39341 -6.0497,2.53348 -7.0265,2.53348 -0.9768,0 -4.2624,1.65 -7.3012,3.66667 -15.1882,10.07925 -20.4167,12.07246 -19.5196,7.44121 z m -3.3467,-25.33011 c -1.7625,-1.76245 -0.768,-2.98598 6.7778,-8.339 7.9894,-5.66776 10.2317,-6.42726 11.7452,-3.9783 1.2845,2.07838 -2.1237,7.87117 -4.6372,7.88165 -1.1594,0.005 -3.908,1.20088 -6.108,2.65788 -4.1966,2.77928 -6.2963,3.25923 -7.7778,1.77777 z M 318.26421,443.3603 c -2.662,-1.68606 -1.0435,-3.41108 5.104,-5.43993 2.9701,-0.98021 5.4002,-2.28617 5.4002,-2.90213 0,-0.61596 1.2,-1.11992 2.6666,-1.11992 4.5522,0 2.9415,3.58557 -3.2374,7.20664 -6.4762,3.79529 -7.2314,3.96676 -9.9334,2.25534 z m -23.5658,-14.04431 c -4.2214,-3.13456 -1.1316,-6.05914 14.8799,-14.08434 8.0471,-4.03334 16.0903,-8.38334 17.8739,-9.66667 3.746,-2.69533 6.7992,-3.05091 6.3162,-0.73555 -0.5494,2.6332 -6.3819,6.91892 -17.6667,12.98143 -5.8667,3.15173 -12.4981,7.46357 -14.7366,9.58187 -3.6855,3.48764 -4.3152,3.6693 -6.6667,1.92326 z m -7.2901,-30.78324 c -2.0874,-2.51516 -2.4956,-2.20097 8.5203,-6.5578 8.537,-3.37642 12.6706,-3.35034 10.4509,0.0659 -1.2595,1.9384 -13.231,8.52409 -15.4952,8.52409 -0.9842,0 -2.5484,-0.91449 -3.476,-2.03222 z m 62.4378,435.26557 c -0.2627,-0.78833 -1.0477,-1.43333 -1.7444,-1.43333 -0.6967,0 -1.4817,0.645 -1.7445,1.43333 -0.2627,0.78834 0.5223,1.43334 1.7445,1.43334 1.2222,0 2.0072,-0.645 1.7444,-1.43334 z m 120.0334,-245.78004 c 0,-7.63403 0.64,-15.076 1.4223,-16.53771 0.9616,-1.79667 1.0471,-6.69507 0.264,-15.11996 -0.6371,-6.85427 -0.8067,-17.26229 -0.3769,-23.12896 1.9039,-25.98756 0.3346,-63.63056 -2.7317,-65.52567 -0.6896,-0.42617 -3.5694,0.26932 -6.3996,1.54556 -9.6306,4.34278 -12.6899,0.0751 -6.8328,-9.53144 2.1759,-3.56865 5.2759,-10.98845 6.889,-16.48845 1.613,-5.5 3.4622,-10.6518 4.1092,-11.44844 2.8485,-3.50739 9.4627,-27.7766 11.9602,-43.8849 1.2245,-7.89792 6.0242,-35.59696 7.9709,-46 1.262,-6.74372 3.1124,-30.80205 2.9741,-38.66666 -0.3694,-20.99947 -1.2137,-35.99634 -2.0265,-35.99798 -0.55,-0.001 -1,-2.01249 -1,-4.46973 0,-2.45723 -0.5557,-6.20723 -1.2348,-8.33334 -0.6791,-2.12609 -1.6229,-6.76234 -2.0973,-10.30278 -0.6208,-4.63352 -2.0921,-7.80902 -5.2512,-11.33334 -2.4138,-2.69289 -6.0049,-8.19617 -7.9801,-12.2295 -4.3902,-8.96439 -5.7172,-10.69586 -10.5865,-13.81392 -4.3858,-2.80847 -12.2346,-2.21135 -20.7293,1.57704 -4.0291,1.79689 -14.8604,12.47556 -19.8498,19.57021 -1.4543,2.06792 -5.7959,14.14212 -6.9518,19.33333 -1.2252,5.5026 -5.9672,17.41071 -9.5571,24.00001 -3.0921,5.67564 -9.408,18.75604 -12.5377,25.96617 -1.2653,2.91473 -3.1143,10.11473 -4.1091,16 -0.9948,5.88528 -2.3343,11.90049 -2.9767,13.36716 -0.6424,1.46667 -1.9407,5.36667 -2.8851,8.66667 -0.9445,3.3 -2.2129,6.57 -2.8187,7.26666 -0.6058,0.69667 -1.1015,2.92579 -1.1015,4.9536 0,2.19532 -1.6182,5.53006 -4,8.2427 -2.2,2.50565 -4,5.08941 -4,5.74168 0,0.65226 2.3831,4.77305 5.2957,9.15732 2.9126,4.38425 5.3126,8.66466 5.3333,9.51204 0.057,2.32766 5.7099,12.45933 6.9517,12.45933 0.5973,0 1.086,1.71908 1.086,3.82019 0,2.1011 1.1127,5.2511 2.4727,7 1.3601,1.74889 3.2066,5.42981 4.1034,8.17981 1.7515,5.3704 2.4614,5.66348 9.1037,3.75848 3.6931,-1.05916 5.7482,-0.55367 13.9912,3.44156 14.0134,6.79193 22.3871,9.79996 27.281,9.79996 3.5217,0 4.7144,3.03487 2.4238,6.16744 -1.4493,1.98196 -2.3487,2.16362 -4.9085,0.99136 -12.4839,-5.71719 -16.1652,-7.1588 -18.2808,-7.1588 -1.3248,0 -2.8199,-0.4112 -3.3225,-0.91379 -3.3543,-3.35426 -17.3146,-5.59318 -18.8982,-3.03084 -0.4721,0.76379 1.5283,6.31379 4.4452,12.33334 5.3995,11.14287 8.5471,18.22223 12.869,28.94463 1.3302,3.3 3.5363,8.54346 4.9026,11.65213 1.3662,3.10868 2.4841,6.74597 2.4841,8.08289 0,1.33692 1.2234,4.9629 2.7186,8.05774 1.4953,3.09484 2.4248,6.10246 2.0656,6.68362 -1.0117,1.637 2.8884,15.97379 6.7619,24.85695 5.1828,11.88556 5.4651,12.70491 7.1205,20.66667 0.8386,4.03333 2.027,8.53333 2.6409,10 0.6139,1.46666 3.3195,8.34237 6.0124,15.27936 2.693,6.93697 6.0477,14.2296 7.4549,16.20582 1.4071,1.97623 2.5585,4.28031 2.5585,5.12019 0,2.92231 4.0807,9.39463 5.9231,9.39463 1.4652,0 1.8547,-2.91459 1.8547,-13.88004 z m -27.9313,-177.94371 c -5.8713,-4.5984 -21.7886,-11.81019 -28.1076,-12.73499 -3.5693,-0.52239 -8.6418,-0.27524 -11.7988,0.57487 -4.7332,1.27449 -5.9062,1.15789 -8.0723,-0.80246 -1.394,-1.2615 -2.5345,-2.70896 -2.5345,-3.21657 0,-5.11148 24.781,-3.17261 37.3334,2.92096 9.9115,4.81156 18.6666,11.36467 18.6666,13.97175 0,2.45005 -1.7357,2.22432 -5.4868,-0.71356 z m -12.7422,-36.27194 c -0.8288,-0.82876 -6.2552,-1.67742 -12.0588,-1.88592 -10.8786,-0.39081 -23.4177,-4.84622 -20.854,-7.40988 2.6116,-2.61161 37.5641,5.44787 37.8379,8.72482 0.1623,1.94237 -3.1677,2.32842 -4.9251,0.57098 z m -70.4376,1070.19757 c -1.4667,-1.0072 -6.1856,-2.1411 -10.4864,-2.5196 -12.4988,-1.1002 -13.028,-3.2326 -2.2801,-9.187 5.1341,-2.8442 5.1375,-4.3561 0.021,-9.1358 -4.0748,-3.8064 -4.0791,-3.8262 -3.9988,-18.2018 0.044,-7.915 0.1074,-15.291 0.1406,-16.391 0.2563,-8.4891 -2.7637,-25.8379 -5.2232,-30.0066 -3.4486,-5.8449 -3.8473,-15.0237 -0.7049,-16.2296 2.9119,-1.1173 4.4459,1.8292 3.9077,7.5059 -0.2717,2.8657 0.4868,6.3069 1.9244,8.7303 1.3051,2.2 3.0776,9.1 3.939,15.3333 0.8614,6.2333 2.5265,17.0333 3.7004,24 1.1738,6.9667 2.5098,15.6848 2.9688,19.3737 1.0384,8.3464 7.4266,18.9575 12.0918,20.0851 8.7199,2.1077 20,6.3713 20,7.5596 0,0.8401 -2.562,0.9492 -7,0.2979 -8.0444,-1.1804 -9.9766,-1.2011 -13.6667,-0.1458 -1.4667,0.4195 -3.8667,-0.061 -5.3333,-1.0686 z m 16.9333,-463.70187 c -4.3969,-4.39687 2.119,-18.4 8.5617,-18.4 1.9186,0 0.9981,3.80824 -3.3035,13.66666 -3.0661,7.02703 -3.0127,6.9789 -5.2582,4.73334 z M 78.72153,947.15587 c -0.47899,-0.775 -0.49441,-2.90909 -0.0343,-4.74241 0.69372,-2.76403 1.34138,-3.15515 3.79219,-2.29012 7.37366,2.60258 24.0645,-0.92235 33.89153,-7.15754 9.66274,-6.13096 12.73254,-5.70434 5.57485,0.77476 -3.14468,2.84656 -7.54607,6.06244 -9.78087,7.1464 -3.8523,1.86851 -5.663,2.64226 -14.45933,6.17869 -4.71644,1.89617 -17.82945,1.95849 -18.9841,0.0903 z m 1.1736,-23.31505 c -0.43425,-1.13163 -0.56542,-2.18163 -0.29149,-2.33334 0.27393,-0.1517 2.66818,-1.47582 5.32056,-2.94249 2.65237,-1.46667 8.59539,-5.21667 13.20671,-8.33333 4.61132,-3.11667 9.47008,-5.66667 10.79725,-5.66667 7.04478,0 4.29194,12.16645 -3.48839,15.41728 -2.52217,1.05383 -5.95503,1.91975 -7.62858,1.92427 -1.67356,0.004 -4.76141,0.90452 -6.8619,2 -4.93782,2.57525 -10.05239,2.54484 -11.05416,-0.0657 z m -0.4601,-23.2131 c 0,-3.25922 3.42171,-8.20142 6.1528,-8.88689 6.71292,-1.68484 8.2512,4.84585 1.91341,8.12325 -4.45918,2.30594 -8.06621,2.64742 -8.06621,0.76364 z m 47.47378,-114.1127 c -4.16715,-4.1672 -1.5885,-6.74842 6.9823,-6.98922 8.8714,-0.24922 22.2652,-7.55252 28.0485,-15.29415 5.2584,-7.03885 6.8288,-7.79862 6.8288,-3.30378 0,6.70096 -12.7892,17.85861 -26.6667,23.26481 -11.4217,4.44948 -12.8477,4.66747 -15.1929,2.32234 z m -4.51044,-18.6923 c -3.08591,-2.16145 -4.03946,-5.9244 -1.50128,-5.9244 0.80414,0 4.18862,-2.4 7.52102,-5.33333 3.3325,-2.93334 6.8011,-5.33334 7.7081,-5.33334 0.9069,0 2.4051,-0.91106 3.3292,-2.0246 1.8812,-2.26669 7.1752,-4.93125 15.6979,-7.901 3.1451,-1.0959 7.188,-3.73913 8.9842,-5.87384 3.5589,-4.22944 8.6309,-6.35425 8.6309,-3.61572 0,2.57628 -4.6302,6.33783 -22.8467,18.56047 -4.8656,3.26469 -12.222,8.99255 -16.3474,12.72859 -4.1255,3.73602 -7.661,6.79277 -7.8567,6.79277 -0.1958,0 -1.6894,-0.93403 -3.31924,-2.0756 z m -2.96334,-17.6538 c 0,-0.58451 2.4,-3.40628 5.33333,-6.2706 2.93335,-2.86432 5.33335,-5.83804 5.33335,-6.60827 0,-2.96848 14.9355,-14.0584 18.9333,-14.0584 1.6837,0 3.7586,5.04944 2.9455,7.16824 -0.428,1.11544 -3.6883,2.99467 -7.2452,4.17606 -4.2609,1.41528 -8.1808,4.05385 -11.4914,7.73517 -5.4366,6.04551 -13.80888,10.80967 -13.80888,7.8578 z"
     id="path817"
     inkscape:connector-curvature="0" />
</svg>
