<?xml version="1.0" encoding="UTF-8" standalone="no"?>
<!-- Created with Inkscape (http://www.inkscape.org/) -->

<svg
   xmlns:dc="http://purl.org/dc/elements/1.1/"
   xmlns:cc="http://creativecommons.org/ns#"
   xmlns:rdf="http://www.w3.org/1999/02/22-rdf-syntax-ns#"
   xmlns:svg="http://www.w3.org/2000/svg"
   xmlns="http://www.w3.org/2000/svg"
   xmlns:sodipodi="http://sodipodi.sourceforge.net/DTD/sodipodi-0.dtd"
   xmlns:inkscape="http://www.inkscape.org/namespaces/inkscape"
   version="1.1"
   id="svg2"
   width="640"
   height="640"
   viewBox="0 0 640 640"
   sodipodi:docname="hands-heart.svg"
   inkscape:version="0.92.4 (5da689c313, 2019-01-14)"
   inkscape:export-filename="/home/nat/Pictures/hands-heart.png"
   inkscape:export-xdpi="96"
   inkscape:export-ydpi="96">
  <metadata
     id="metadata8">
    <rdf:RDF>
      <cc:Work
         rdf:about="">
        <dc:format>image/svg+xml</dc:format>
        <dc:type
           rdf:resource="http://purl.org/dc/dcmitype/StillImage" />
        <dc:title></dc:title>
      </cc:Work>
    </rdf:RDF>
  </metadata>
  <defs
     id="defs6" />
  <sodipodi:namedview
     pagecolor="#ffffff"
     bordercolor="#666666"
     borderopacity="1"
     objecttolerance="10"
     gridtolerance="10"
     guidetolerance="10"
     inkscape:pageopacity="0"
     inkscape:pageshadow="2"
     inkscape:window-width="1920"
     inkscape:window-height="1016"
     id="namedview4"
     showgrid="false"
     inkscape:zoom="0.36875"
     inkscape:cx="322.71186"
     inkscape:cy="320"
     inkscape:window-x="0"
     inkscape:window-y="27"
     inkscape:window-maximized="1"
     inkscape:current-layer="svg2" />
  <path
     style="fill:#fafafa;fill-opacity:1"
     d="m 544.22445,625.40324 c 0.5112,-1.53372 4.7602,-1.82273 4.8067,-0.32694 0.017,0.55 -1.1569,1.14712 -2.609,1.32694 -1.8443,0.2284 -2.5067,-0.073 -2.1977,-1 z M 84.507201,620.3263 c -0.23654,-0.6875 -0.55992,-2.825 -0.71861,-4.75 -0.26952,-3.26935 -0.49899,-3.48378 -3.48192,-3.25387 -1.75635,0.13537 -3.47041,-0.20213 -3.80901,-0.75 -0.36952,-0.59789 0.97853,-0.99613 3.37194,-0.99613 4.53996,0 7.39057,-2.19281 6.93367,-5.33365 -0.34391,-2.36408 -3.18415,-3.41797 -9.61224,-3.56667 -2.36996,-0.0548 -4.05747,-0.50668 -3.75004,-1.00413 0.30744,-0.49744 3.5965,-0.80238 7.30902,-0.67763 9.58563,0.3221 11.86174,-1.77506 6.00004,-5.52827 l -3.25,-2.08096 3.10417,0.54149 c 3.10627,0.54185 5.39583,-0.69722 5.39583,-2.92013 0,-0.64808 -2.04606,-1.40057 -4.58696,-1.68696 -7.7018,-0.86811 -7.8522,-2.74309 -0.22003,-2.74309 4.67888,0 6.74655,-0.40011 7.12186,-1.37814 0.81099,-2.11343 -1.33863,-3.61575 -5.26487,-3.67949 -3.71337,-0.0603 -12.28401,-1.58849 -10.55,-1.88114 0.55,-0.0928 4.77464,-0.25708 9.38808,-0.365 6.66657,-0.15596 8.60903,-0.54555 9.46463,-1.89827 0.5921,-0.93612 0.84828,-1.9303 0.56928,-2.2093 -0.279,-0.279 -4.20058,-0.81529 -8.71463,-1.19174 -4.51405,-0.37646 -8.20736,-1.09686 -8.20736,-1.60088 0,-0.50403 4.07746,-0.82679 9.06103,-0.71725 9.30897,0.20461 11.478409,-0.50946 10.364759,-3.41157 -0.442349,-1.15275 -1.815839,-1.66722 -4.450989,-1.66722 -4.47978,0 -6.9748,-0.80544 -6.9748,-2.25159 0,-0.67242 2.28269,-0.82446 6.48567,-0.43198 5.848679,0.54616 6.593249,0.40463 7.581019,-1.44104 0.60244,-1.12568 0.90555,-2.23648 0.67357,-2.46846 -0.54681,-0.54682 -13.472649,-2.41282 -21.490259,-3.10238 -5.65466,-0.48634 -7.55056,-1.397 -5.5,-2.64181 0.4125,-0.25041 3.08419,-0.0836 5.93709,0.37077 9.80203,1.56103 22.351499,1.5162 23.379039,-0.0835 2.45382,-3.82023 0.90777,-4.42726 -12.886959,-5.05979 -7.55563,-0.34645 -13.77681,-1.08785 -14.40575,-1.71679 -0.80934,-0.80934 2.95098,-1.08754 13.9844,-1.0346 8.300269,0.0398 15.575329,-0.22668 16.166789,-0.59223 0.59147,-0.36554 1.07539,-1.35262 1.07539,-2.1935 0,-1.22967 -0.78285,-1.39662 -4,-0.85309 -4.57049,0.77218 -5.57983,-0.92449 -1.5,-2.52144 3.58109,-1.40173 6.69589,-2.87556 9.02035,-4.26815 1.11119,-0.66573 4.20431,-2.49948 6.8736,-4.075 5.14798,-3.03855 4.93187,-4.58905 -0.64395,-4.6201 -1.5125,-0.008 -2.75,-0.46532 -2.75,-1.01532 0,-1.38568 7.33902,-1.26098 8.74865,0.14865 0.86487,0.86487 1.77898,0.73565 3.7,-0.52305 1.40324,-0.91944 2.55135,-2.03882 2.55135,-2.48751 0,-0.4487 -3.9375,-1.38353 -8.75,-2.07742 -4.8125,-0.69388 -9.425,-1.53579 -10.25,-1.87091 -2.72244,-1.10586 6.10178,-1.34993 9.24099,-0.2556 1.6816,0.58621 5.64265,1.06584 8.80234,1.06584 5.59096,0 5.90797,-0.15072 11.83222,-5.62551 3.34804,-3.09403 5.84414,-6.01903 5.54688,-6.5 -0.29725,-0.48097 -2.51235,-0.87449 -4.92243,-0.87449 -2.41008,0 -4.70041,-0.51525 -5.08962,-1.145 -0.51668,-0.83602 1.2047,-1.00818 6.37895,-0.63796 6.53117,0.4673 9.21067,-0.20281 9.21067,-2.3035 0,-0.37755 -2.1375,-1.01481 -4.75,-1.41613 -4.37786,-0.67251 -4.55414,-0.80478 -2.25,-1.6883 1.375,-0.52724 4.12237,-0.70508 6.10526,-0.39519 2.77178,0.43317 4.00815,0.11824 5.34796,-1.36223 2.60022,-2.87321 1.07766,-4.04994 -5.26224,-4.067 -3.13004,-0.008 -6.36598,-0.45153 -7.19098,-0.98469 -1.02482,-0.66229 1.61509,-0.97423 8.33333,-0.98469 7.41366,-0.0115 9.73234,-0.3229 9.42288,-1.26531 -0.22574,-0.6875 -1.72574,-1.45386 -3.33333,-1.70302 -2.34535,-0.36351 -1.93493,-0.5611 2.07712,-1 3.53468,-0.38668 5,-0.98658 5,-2.04698 0,-1.0498 -1.27555,-1.59229 -4.25,-1.8075 -6.87951,-0.49775 -4.85826,-2.07031 2.21366,-1.72225 6.4151,0.31573 6.4787,0.29262 8.46627,-3.07607 2.19247,-3.71596 4.07007,-4.43601 4.07007,-1.56085 0,2.86144 1.00708,3.21437 4.30532,1.50879 5.32142,-2.75182 16.08085,-6.34212 19.00609,-6.34212 1.55104,0 3.61642,-0.42619 4.58974,-0.9471 1.68387,-0.90118 13.72127,-2.4916 28.32222,-3.74203 5.26266,-0.4507 7.2666,-0.21985 9.22379,1.06255 1.37524,0.90109 5.04074,2.30001 8.14556,3.10871 3.10482,0.80871 6.15411,1.86577 6.7762,2.34903 0.62209,0.48326 2.66789,1.39644 4.54621,2.02929 2.8684,0.96643 3.70888,0.88481 5.25,-0.50989 1.00918,-0.9133 1.83487,-2.49079 1.83487,-3.50555 0,-1.48585 0.77867,-1.84501 4,-1.84501 4.09528,0 4.8872,-1.04861 3.02081,-4 -0.66195,-1.04676 -2.66973,-1.5 -6.6448,-1.5 -3.6646,0 -5.84718,-0.44583 -6.11946,-1.25 -0.29287,-0.86502 0.8344,-1.25 3.66012,-1.25 2.96296,0 4.08333,-0.41156 4.08333,-1.5 0,-1.07527 -1.09722,-1.5 -3.875,-1.5 -5.16026,0 -10.125,-1.04198 -10.125,-2.125 0,-0.48125 1.65344,-0.875 3.67431,-0.875 h 3.67432 l -2.32068,-2.47025 c -1.70383,-1.81364 -3.27856,-2.43629 -5.92432,-2.34246 -6.31803,0.22405 -9.10363,-0.158 -9.10363,-1.24856 0,-0.69111 1.56956,-0.82591 4.5,-0.38646 5.01009,0.75131 5.91939,-0.44468 2.27749,-2.99557 -1.38894,-0.97285 -4.38938,-1.5567 -8,-1.5567 -3.58713,0 -5.77749,-0.42332 -5.77749,-1.11658 0,-0.65179 1.04065,-0.91764 2.5,-0.63867 1.65014,0.31544 2.5,0.0271 2.5,-0.84824 0,-2.2854 -4.22376,-3.71663 -10.31916,-3.49667 -4.13196,0.1491 -5.66234,-0.12076 -5.17319,-0.91222 0.38206,-0.61818 1.30972,-0.88794 2.06148,-0.59947 0.75175,0.28848 1.60102,0.14556 1.88727,-0.3176 0.28624,-0.46315 -2.51185,-1.906 -6.21798,-3.20632 -5.24069,-1.83874 -6.80715,-2.84678 -7.04762,-4.53527 -0.33998,-2.3871 -11.43187,-9.65476 -16.6908,-10.93618 -1.65,-0.40206 -5.025,-1.62731 -7.5,-2.72278 -6.27055,-2.77546 -17.36498,-5.51405 -20.1677,-4.97827 -3.06427,0.58577 -12.13895,-3.29397 -11.55902,-4.94189 0.25286,-0.71855 1.87951,-1.17591 3.8266,-1.07593 1.86273,0.0957 5.76858,-0.44647 8.67968,-1.20471 2.91109,-0.75824 6.00395,-1.10577 6.873,-0.77228 1.32113,0.50696 1.39902,0.26797 0.47523,-1.45814 -0.60768,-1.13546 -1.66277,-2.25044 -2.34464,-2.47773 -0.68187,-0.22729 -1.24952,-1.49571 -1.26146,-2.81872 -0.015,-1.66554 -0.93038,-2.84251 -2.97583,-3.8263 -2.87737,-1.38392 -2.89687,-1.44204 -0.75,-2.23622 3.44316,-1.27371 2.77321,-3.85389 -1.04586,-4.02787 -7.99729,-0.36433 -9.2579,-1.04663 -3.25,-1.75904 6.3623,-0.75444 6.97699,-3.31214 1,-4.16096 -2.84488,-0.40401 -3.52437,-0.78447 -2.35296,-1.31748 0.90587,-0.41218 2.25587,-0.66574 3,-0.56346 4.10123,0.56371 5.5778,-2.93506 2.10296,-4.98301 -1.13697,-0.6701 -1.38041,-1.30053 -0.69493,-1.79969 1.43589,-1.04562 1.63064,-9.53549 0.23847,-10.3959 -0.76956,-0.47562 -0.58606,-1.22274 0.58892,-2.39772 2.08273,-2.08273 1.68903,-3.60788 -1.32222,-5.12213 -2.25608,-1.1345 -2.25838,-1.15489 -0.20363,-1.80704 2.89638,-0.91928 2.74497,-7.38742 -0.19841,-8.47625 -1.96369,-0.72641 -1.95982,-0.75712 0.16554,-1.31292 1.63189,-0.42674 2.17626,-1.32818 2.17626,-3.6037 0,-1.66903 0.45,-3.31272 1,-3.65264 1.47214,-0.90983 1.21633,-2.5 -0.40217,-2.5 -0.7712,0 -1.87279,1.35 -2.44799,3 -0.57519,1.65 -1.47519,3 -2,3 -0.5248,0 -1.4248,1.35 -2,3 -0.85393,2.44959 -1.60576,3 -4.09782,3 -3.8666,0 -3.83111,-0.96203 0.23185,-6.2848 5.35802,-7.01939 12.96263,-20.63046 12.37783,-22.15441 -0.29855,-0.77801 0.10543,-1.95256 0.89774,-2.61012 1.65684,-1.37506 1.91272,-4.54082 0.44056,-5.45067 -1.84217,-1.13852 -1.02528,-2.5 1.5,-2.5 3.00448,0 3.38963,-2.53409 0.5,-3.28975 -3.26331,-0.85337 -2.27604,-2.71025 1.44098,-2.71025 4.16406,0 5.3897,-1.48507 2.50138,-3.03085 -2.41846,-1.29432 -1.76215,-2.46915 1.37937,-2.46915 1.24213,0 2.28458,-0.73472 2.48297,-1.75 0.20908,-1.07003 -0.26937,-1.75 -1.23138,-1.75 -0.86532,0 -1.57332,-0.70329 -1.57332,-1.56286 0,-1.03081 0.73432,-1.45635 2.15705,-1.25 1.18637,0.17207 2.34887,-0.24964 2.58333,-0.93714 0.23446,-0.6875 -0.28621,-1.25 -1.15705,-1.25 -0.87083,0 -1.58333,-0.45 -1.58333,-1 0,-0.55 1.13912,-1 2.53138,-1 2.9459,0 4.23664,-2.36967 2.45805,-4.51273 -1.13342,-1.36569 -0.68566,-1.9205 1.2884,-1.59642 1.78162,0.2925 1.85598,-3.07653 0.0976,-4.42246 -1.80678,-1.38298 -1.79156,-1.45909 0.41584,-2.07938 1.43986,-0.40461 2.18306,-1.28261 2.00006,-2.36281 -0.16017,-0.94542 0.36874,-2.51415 1.17535,-3.48606 0.80662,-0.9719 1.70659,-3.75567 1.99994,-6.18613 0.63717,-5.27897 2.11561,-5.78338 3.65028,-1.24539 1.34877,3.98825 2.32024,4.39726 6.87438,2.89426 3.61227,-1.19216 4.45017,-2.43962 2.25872,-3.36278 -0.6875,-0.28962 1.9,-0.46945 5.75,-0.39963 4.0821,0.074 9.50106,-0.60142 13,-1.62037 5.92375,-1.72511 21.5,-2.93643 21.5,-1.67199 0,0.35854 -0.50079,1.15268 -1.11287,1.76476 -1.71459,1.71459 -0.32359,2.96172 4.09071,3.6676 2.21219,0.35374 4.02216,1.08785 4.02216,1.63135 0,0.5435 0.66969,0.98818 1.48821,0.98818 0.94671,0 1.40154,0.81751 1.25,2.24677 -0.17591,1.65916 0.35081,2.33125 2.01398,2.56983 1.23871,0.17769 2.71704,1.19165 3.28519,2.25324 0.62682,1.17124 2.10043,1.93618 3.7478,1.94547 1.49315,0.008 3.38982,0.45153 4.21482,0.98469 1.20431,0.77829 1.04004,0.97239 -0.83333,0.98469 -4.97215,0.0326 -1.22628,2.52059 5.4098,3.59312 3.80794,0.61544 7.71103,1.46035 8.67353,1.87757 3.18741,1.38169 1.97743,-2.69066 -2.62946,-8.84987 -2.68696,-3.59234 -5.0447,-8.22231 -6.10079,-11.98033 -2.4777,-8.81674 -3.30485,-10.62518 -4.85975,-10.62518 -1.47879,0 -16.14875,-9.36376 -17.11217,-10.92262 -0.31663,-0.51231 -2.25692,-1.45803 -4.31176,-2.1016 -4.36671,-1.36764 -15.89175,-5.81365 -18.16543,-7.00767 -2.48061,-1.30269 -10.92004,-5.09416 -11.77583,-5.29038 -0.42634,-0.0977 -1.06385,1.17227 -1.41667,2.82227 -0.44944,2.10178 -0.67693,2.36299 -0.75983,0.87244 -0.1619,-2.91145 -1.82172,-3.99252 -7.20506,-4.69278 -3.32191,-0.43212 -5.20493,-0.16366 -6.82848,0.97352 -2.0017,1.40205 -2.16797,2.10642 -1.55289,6.57861 0.96235,6.99712 -1.70142,6.03112 -2.92252,-1.05983 -0.48986,-2.84458 -1.30878,-5.17196 -1.81983,-5.17196 -1.4472,0 -9.78953,5.98423 -9.78953,7.02236 0,0.50946 -2.60066,3.97534 -5.77925,7.70196 -7.15869,8.39295 -13.89006,17.90877 -18.23339,25.77568 -1.82194,3.3 -4.08163,7.125 -5.02154,8.5 -5.85773,8.56928 -16.96582,29.30943 -16.96582,31.67725 0,0.49406 -1.31299,2.4563 -2.91775,4.36052 -2.19417,2.60362 -3.20725,3.18073 -4.0851,2.32713 -0.88792,-0.86339 -0.7706,-1.90231 0.49011,-4.34026 2.19533,-4.24529 1.47736,-5.81983 -2.39463,-5.25154 -1.8495,0.27145 -3.09263,0.014 -3.09263,-0.64055 0,-1.01737 1.67415,-1.62879 6.41713,-2.34362 2.73979,-0.41291 3.23636,-2.78893 0.58287,-2.78893 -3.08723,0 -1.9425,-2.42936 1.32712,-2.81642 1.63015,-0.19298 2.67288,-0.93003 2.67288,-1.88929 0,-1.30527 -0.87374,-1.46939 -5.13561,-0.96463 -6.40515,0.75859 -5.45915,-0.48503 1.39179,-1.82966 2.80226,-0.55 5.29867,-1.62301 5.54757,-2.38446 0.36118,-1.10491 -0.69243,-1.2895 -5.21807,-0.9142 -3.11884,0.25864 -5.90306,0.0941 -6.18716,-0.36555 -0.28411,-0.45968 1.50845,-0.83579 3.98345,-0.83579 4.75363,0 6.27421,-1.18927 5.75364,-4.5 -0.60373,-3.83967 -4.00757,-6.37681 -7.98561,-5.95229 -2.0075,0.21424 -2.75,0.15292 -1.65,-0.13625 4.1393,-1.08817 8.50592,-3.92926 8.66667,-5.63886 0.43442,-4.62036 0.21511,-5.21531 -2.16667,-5.87784 -2.49086,-0.69286 -2.48968,-0.69576 0.32332,-0.79508 3.84298,-0.13568 3.35586,-3.59968 -0.50619,-3.59968 -4.14073,0 -4.39979,-1.30007 -0.40827,-2.04888 4.00753,-0.75182 5.21939,-1.92576 3.86588,-3.74492 -1.10928,-1.49092 -1.04273,-6.73502 0.10852,-8.55155 0.51218,-0.80816 0.30642,-2.37086 -0.51531,-3.91364 -1.07548,-2.01918 -1.1007,-2.65801 -0.11795,-2.98798 1.5537,-0.52167 1.6608,-3.25303 0.12756,-3.25303 -0.73317,0 -0.79609,-0.43352 -0.18143,-1.25 0.54126,-0.71899 0.67343,-5.28248 0.31112,-10.74249 -0.57562,-8.67453 -0.4596,-9.63039 1.34643,-11.09282 2.26881,-1.83717 3.54195,-9.13103 4.13066,-23.66469 0.34836,-8.60016 0.23913,-9.25 -1.55483,-9.25 -2.51112,0 -2.47261,-1.63898 0.0705,-3 1.1,-0.5887 2,-1.54666 2,-2.1288 0,-0.58214 -0.9,-1.29379 -2,-1.58145 -2.56836,-0.67164 -2.54539,-1.9275 0.0608,-3.32227 2.59492,-1.38876 1.96965,-3.57138 -0.90372,-3.15462 -1.38613,0.20104 -2.15709,-0.22088 -2.15709,-1.18045 0,-0.82132 1.0125,-1.63711 2.25,-1.81286 2.32311,-0.32993 3.22372,-3.31955 1,-3.31955 -0.6875,0 -1.25,-0.3375 -1.25,-0.75 0,-0.4125 0.15584,-0.6375 0.34631,-0.5 0.19046,0.1375 1.08551,-0.36349 1.98898,-1.11331 2.0913,-1.73562 1.24516,-3.13669 -1.89431,-3.13669 -2.97674,0 -3.22598,-1.56145 -0.36851,-2.3087 1.85136,-0.48414 1.99928,-1.03003 1.38646,-5.11663 -0.68482,-4.56666 0.0544,-5.66135 2.30391,-3.41183 0.88379,0.88379 1.42746,0.46383 2.26556,-1.75 0.60649,-1.60206 2.41812,-5.61284 4.02584,-8.91284 1.60772,-3.3 3.04072,-7.125 3.18444,-8.5 0.22526,-2.15505 -0.18712,-2.54324 -2.98868,-2.81336 -4.62979,-0.44639 -4.0329,-2.18664 0.75,-2.18664 4.39737,0 5.82864,-2.60119 1.75,-3.18045 -3.41127,-0.48448 -2.69025,-2.27728 1.0607,-2.63744 3.9236,-0.37673 3.82466,-2.52944 -0.13782,-2.99853 -4.11207,-0.4868 -3.41143,-3.18358 0.82712,-3.18358 3.46216,0 5.05856,-2.30877 2.25,-3.254049 -0.96968,-0.32636 -0.9364,-0.80057 0.14838,-2.11458 1.21662,-1.47371 1.15163,-1.88266 -0.5,-3.14619 -1.84111,-1.4085 -1.83051,-1.47141 0.35162,-2.08538 3.08501,-0.868 2.82708,-3.04077 -0.49232,-4.14724 l -2.74232,-0.91411 2.74232,-0.68828 c 3.58117,-0.89881 3.94304,-5.27487 0.49232,-5.95367 l -2.25,-0.4426 2.25,-0.74358 c 2.68233,-0.88646 3.09331,-4.97273 0.5965,-5.93085 -1.50591,-0.57787 -1.49184,-0.75271 0.15768,-1.95887 1.676,-1.22552 1.70938,-1.78323 0.44722,-7.47248 -0.75017,-3.38147 -1.67711,-6.14812 -2.05985,-6.14812 -0.38275,0 -1.12897,1.2375 -1.65827,2.75 -0.52931,1.5125 -2.60135,4.70869 -4.60454,7.10265 -2.00319,2.39395 -3.89115,5.54395 -4.19548,7 -0.49366,2.36196 -4.57056,10.9332 -24.16894,50.812629 -5.68015,11.55815 -6.05584,14.10811 -1.79238,12.16555 2.93036,-1.33516 6.85531,-0.28185 4.50003,1.20765 -0.80958,0.51199 -2.37197,0.94779 -3.47197,0.96844 -2.75288,0.0517 -6.1535,2.98609 -6.94528,5.99308 -0.6002,2.27944 -0.5337,2.34561 0.75374,0.75 1.3073,-1.6202 4.69154,-2.47447 4.69154,-1.18426 0,2.13848 -2.34253,4.46032 -3.97675,3.94164 -2.60827,-0.82783 -3.54198,1.26195 -1.54818,3.46507 1.56923,1.73399 1.54971,1.88491 -0.32062,2.47853 -1.68416,0.53453 -2.08646,1.82203 -2.60612,8.34056 -0.33798,4.23965 -1.04962,9.33567 -1.58142,11.32448 -0.5318,1.98881 -0.9752,5.58881 -0.98534,8 -0.0182,4.31997 -2.53527,20.35283 -3.42011,21.78453 -1.11605,1.80581 -3.49821,32.54605 -4.05478,52.32425 -0.47688,16.94632 -1.0014,22.87234 -2.38469,26.9419 -3.2225,9.48045 -3.94929,7.19304 -3.45312,-10.86793 0.25383,-9.23932 0.70443,-18.71127 1.00135,-21.04877 0.43937,-3.45895 0.24111,-4.25 -1.06518,-4.25 -2.03175,0 -2.10197,-3.3427 -0.10504,-5 2.21505,-1.83833 1.82783,-3 -1,-3 -3.08145,0 -3.2763,-2.17508 -0.31469,-3.51287 3.09986,-1.40025 3.64117,-3.73883 0.76817,-3.31871 -3.22345,0.47136 -3.6063,-1.91385 -0.53203,-3.31458 2.90181,-1.32216 3.30782,-2.63676 1.07855,-3.49221 -2.09666,-0.80457 -1.86859,-2.10987 0.5,-2.86163 1.1,-0.34913 2,-1.50445 2,-2.56739 0,-1.48068 -0.70154,-1.93261 -3,-1.93261 -1.65,0 -3,-0.45 -3,-1 0,-0.55 0.81,-1 1.8,-1 2.10574,0 4.2,-1.84494 4.2,-3.7 0,-0.715 -0.675,-1.3 -1.5,-1.3 -2.23319,0 -1.81476,-3.10493 0.5,-3.71025 2.36054,-0.6173 2.72582,-4.28975 0.42668,-4.28975 -2.48005,0 -1.22424,-3.45473 1.39117,-3.8271 3.38451,-0.48189 2.01536,-2.6745 -1.66303,-2.66323 -4.55315,0.0139 -3.89041,-2.2096 0.8998,-3.0189 3.03644,-0.513 3.97346,-1.10008 3.73144,-2.3379 -0.2263,-1.15744 -1.1419,-1.55648 -3.05461,-1.3313 -3.3154,0.39031 -3.52842,-0.83465 -0.48145,-2.76854 l 2.25,-1.42806 -2.30902,-0.56248 c -3.45929,-0.8427 -3.13328,-2.51984 0.55902,-2.87585 1.7875,-0.17235 3.3175,-0.73485 3.4,-1.25 0.44791,-2.79685 0.14711,-3.39437 -1.95902,-3.89156 -3.06622,-0.72383 -2.89715,-2.46457 0.27793,-2.8615 3.70365,-0.46301 3.16336,-2.9959 -0.71891,-3.37022 -3.60721,-0.3478 -3.98242,-2.25117 -0.47741,-2.42179 4.01772,-0.19559 4.50711,-0.3751 5.07793,-1.86263 0.31048,-0.80908 -0.0798,-2.11538 -0.86731,-2.90287 -1.24242,-1.24242 -1.2368,-1.50665 0.0425,-1.99756 0.81086,-0.31116 1.4743,-1.51434 1.4743,-2.67374 0,-1.7977 -0.51238,-2.06386 -3.48076,-1.80812 -3.96315,0.34144 -5.33977,-1.46398 -1.51924,-1.99247 2.92574,-0.40471 5.19492,-2.02977 4.47067,-3.20164 -0.27903,-0.45147 -2.18657,-0.56688 -4.23899,-0.25646 -2.938,0.44435 -3.48553,0.30117 -2.57433,-0.67319 0.63654,-0.68068 2.57134,-1.52678 4.29956,-1.88024 4.23744,-0.86665 3.82028,-2.69915 -0.55034,-2.41749 -2.06595,0.13313 -3.24758,-0.17339 -2.89122,-0.75 0.33148,-0.53634 1.20127,-0.97516 1.93288,-0.97516 0.73161,0 2.37796,-0.84842 3.65855,-1.88538 1.85071,-1.49861 2.08716,-2.17601 1.15264,-3.30204 -0.64665,-0.77916 -0.90647,-2.44627 -0.57738,-3.70469 0.54548,-2.08594 0.30632,-2.258 -2.70775,-1.94796 -1.93116,0.19864 -3.47027,-0.15154 -3.70089,-0.84204 -0.23715,-0.71008 0.89647,-1.30906 2.83888,-1.5 3.95061,-0.38837 5.21892,-2.81789 1.47105,-2.81789 -3.0458,0 -3.46684,-1.9562 -0.58333,-2.71025 1.1,-0.28766 1.98397,-1.03303 1.96438,-1.65638 -0.0977,-3.10984 -2.94377,-12.76585 -4.35754,-14.7843 -1.98563,-2.83488 -2.0538,-5.69523 -0.1852,-7.77033 1.69217,-1.87916 0.73977,-13.105479 -1.9268,-22.712089 -0.89565,-3.22666 -1.99324,-7.29473 -2.43908,-9.04015 -0.44585,-1.74543 -1.8513,-4.63499 -3.12322,-6.42125 l -2.312609,-3.24773 -1.55997,4.42124 c -0.85798,2.43168 -2.32193,5.54624 -3.25321,6.92124 -1.38229,2.0409 -1.71486,5.1628 -1.81096,17 -0.0647,7.975 0.18581,16.764639 0.55678,19.532529 0.46136,3.44229 0.14184,7.07618 -1.01116,11.5 -0.92711,3.55711 -2.03893,8.62353 -2.47071,11.25872 -0.69344,4.23208 -0.54926,4.91745 1.23537,5.87256 1.9969,1.0687 1.99349,1.10162 -0.292,2.82557 -2.10466,1.58755 -2.15857,1.83038 -0.60007,2.70256 1.54508,0.86467 1.55965,1.08503 0.14918,2.25562 -2.18896,1.81668 -1.94797,4.05244 0.43681,4.05244 2.52832,0 2.61078,1.67137 0.12144,2.46146 -1.40538,0.44605 -2.0297,1.91138 -2.47858,5.81738 -0.62821,5.46643 -1.82264,12.13666 -3.53145,19.72116 -0.6794,3.0155 -0.69264,11.42768 -0.0402,25.5 1.18023,25.45421 1.25565,37.35106 0.36136,57 -0.67675,14.8691 -1.71895,20.64519 -2.79417,15.48587 -1.0513,-5.04456 -2.01946,-18.67467 -1.76958,-24.91261 0.3548,-8.85688 -1.86324,-40.45175 -2.88411,-41.08268 -0.45732,-0.28264 -0.75347,-2.08365 -0.65812,-4.00224 0.14007,-2.81825 -0.16279,-3.4319 -1.57663,-3.1945 -2.44534,0.41059 -2.22377,-2.5087 0.25,-3.29384 1.12174,-0.35603 2,-1.51303 2,-2.63478 0,-1.54492 -0.45507,-1.85556 -2,-1.36522 -2.71872,0.86289 -2.69545,-2.05744 0.028,-3.51499 2.55333,-1.3665 1.64764,-2.98501 -1.67036,-2.98501 -3.13811,0 -2.66283,-2.21975 0.64235,-3 3.63822,-0.85887 3.69769,-3 0.0833,-3 -3.77714,0 -4.02359,-1.69202 -0.44464,-3.05273 2.8843,-1.09661 2.3927,-2.44727 -0.89073,-2.44727 -1.13923,0 -2.26107,-0.5625 -2.49298,-1.25 -0.2453,-0.7272 0.425,-1.25 1.60267,-1.25 2.64997,0 3.63269,-1.70425 2.0691,-3.58826 -0.84299,-1.01573 -2.16337,-1.29904 -4.08609,-0.87674 -3.7635,0.8266 -3.65142,-0.95653 0.15934,-2.535 4.39249,-1.81943 4.02849,-4.41553 -0.5,-3.56598 -4.11514,0.77201 -4.83351,-0.97652 -1,-2.43402 1.375,-0.52277 2.5,-1.38508 2.5,-1.91623 0,-1.29821 -2.10497,-2.58377 -4.23063,-2.58377 -0.95185,0 -1.73432,-0.45 -1.73883,-1 -0.005,-0.55 0.73742,-1.00191 1.64872,-1.00424 0.91129,-0.002 1.84377,-0.56483 2.07215,-1.25 0.24287,-0.72858 -0.44964,-1.24576 -1.66808,-1.24576 -2.38608,0 -2.50801,-0.34711 -0.98091,-2.79239 0.86962,-1.39249 0.41801,-3.39573 -2.13865,-9.48643 -3.83172,-9.1283 -6.17783,-10.3242 -5.27344,-2.68807 0.50707,4.28144 0.27111,5.37903 -1.57998,7.34943 -2.09976,2.2351 -2.14094,2.69862 -1.17394,13.2169 0.55118,5.99531 1.29263,17.42556 1.64768,25.40056 0.51866,11.64989 0.96696,14.76826 2.28073,15.86475 1.20197,1.00319 1.30401,1.4889 0.38518,1.83334 -1.83003,0.68601 -1.52489,2.98202 0.5,3.76217 1.66667,0.64213 1.66667,0.72102 0,1.65668 -2.08252,1.16911 -2.26279,3.21259 -0.41843,4.74327 1.00922,0.83758 2.46168,0.3884 6,-1.85553 2.56763,-1.62835 4.66843,-2.49906 4.66843,-1.93491 0,1.82604 -5.09078,5.80471 -7.83299,6.12182 -2.41154,0.27887 -2.65833,0.69157 -2.57642,4.30841 0.0498,2.2 0.60008,6.3594 1.22281,9.2431 0.7851,3.6357 0.84243,7.62118 0.18699,13 -1.14177,9.36987 -0.6031,35.17751 0.92893,44.50469 1.10383,6.72024 1.33261,29.31705 0.35945,35.50221 -0.52163,3.31532 -2.56021,4.68259 -2.23647,1.5 0.28315,-2.78362 -0.004,-4.63217 -0.62228,-4.01336 -0.77322,0.77323 -4.43002,15.54698 -4.43002,17.89764 0,1.03456 -1.9721,7.39008 -4.38244,14.12337 -2.41035,6.73329 -5.40317,15.61735 -6.65071,19.74235 -1.24754,4.125 -2.61843,8.4 -3.0464,9.5 -1.00266,2.57704 -5.48916,15.29087 -8.11633,23 -1.1246,3.3 -2.39617,7.8 -2.82571,10 -0.42954,2.2 -1.52068,7.6 -2.42474,12 -0.90407,4.4 -2.0478,10.925 -2.54163,14.5 -1.79165,12.97044 -4.9696,28.7239 -7.8675,39 -7.4878,26.55213 -10.4557902,36.37992 -15.8550002,52.5 l -3.34935995,10 0.40664,-12 c 0.42314,-12.48652 0.78512995,-14.1561 10.19029015,-47 2.04747,-7.15 4.33561,-15.25121 5.08475,-18.00268 1.16425,-4.2761 4.45099,-23.83409 7.30977,-43.49732 0.99291,-6.82938 3.05331,-13.97304 8.65274,-30 2.40195,-6.875 5.51411,-16.325 6.9159,-21 3.79108,-12.64331 10.2269,-32.30478 15.54824,-47.5 0.96305,-2.75 2.54315,-10.34312 3.51135,-16.8736 1.50262,-10.13518 1.58242,-12.99018 0.54504,-19.5 -1.41974,-8.90927 -2.10243,-33.55103 -1.20866,-43.6264 0.62427,-7.0373 0.13569,-11.28583 -2.48004,-21.5656 -0.80601,-3.16758 -1.42473,-10.49229 -1.43601,-17 -0.0109,-6.28892 -0.42701,-14.3594 -0.92471,-17.9344 -0.80116,-5.75481 -1.36497,-27.47639 -0.99931,-38.5 0.12992,-3.91687 -0.98588,-11.02146 -2.98402,-19 -1.50692,-6.01708 -2.58051,-33.499999 -1.30864,-33.499999 1.14507,0 3.23649,5.2441 3.23649,8.115299 0,0.99926 0.62329,3.29461 1.38508,5.10077 0.7618,1.80616 2.40389,5.98393 3.64909,9.28393 2.57319,6.81937 4.53329,9.5 6.9465,9.5 3.97471,0 9.80119,9.9674 14.59941,24.97527 1.93861,6.0636 3.89327,11.02473 4.34368,11.02473 0.45041,0 1.1331,-4.8375 1.51709,-10.75 0.94861,-14.60638 1.30429,-17.85431 2.65565,-24.25 0.63915,-3.025 1.36297,-16.3 1.60848,-29.499999 0.24551,-13.2 0.48416,-26.025 0.53033,-28.5 0.0462,-2.475 -0.10039,-12.93773 -0.32568,-23.25051 -0.30378,-13.90538 -0.10667,-18.750382 0.76282,-18.750002 0.64484,2.8e-4 1.60695,1.463012 2.138,3.250512 0.53106,1.7875 1.94963,6.625 3.15239,10.75 1.20276,4.125 2.52583,8.625 2.94017,10 0.592,1.96461 1.57951,2.60708 4.611189,3 3.31481,0.42962 4.23686,1.14651 6.55026,5.09281 1.48082,2.52605 3.25466,6.35105 3.94187,8.5 0.6872,2.14896 1.59345,4.83451 2.01388,5.9679 1.25061,3.37137 5.18049,30.591659 7.6791,53.189289 0.31927,2.8875 0.9289,5.25 1.35473,5.25 0.42582,0 2.6384,-3.9375 4.91683,-8.75 6.21855,-13.13483 10.57027,-21.97505 14.64485,-29.749999 2.01765,-3.85 3.9975,-7.9 4.39968,-9 0.40218,-1.1 1.64142,-4.025 2.75388,-6.5 3.75626,-8.35692 4.98536,-11.48142 6.6874,-17 2.27653,-7.38128 5.24704,-15.33218 8.21934,-22 3.25594,-7.30411 13.49697,-22.899892 15.07398,-22.955732 1.63992,-0.0581 1.64002,-0.0587 -1.16393,8.29406 -2.1157,6.302582 -3.56671,10.338492 -6.52953,18.161672 -2.96054,7.81714 -2.99989,8.47611 -0.54298,9.09276 2.71417,0.68121 3.11945,1.54142 5.05193,10.72262 3.62443,17.21969 0.47892,47.166409 -6.53169,62.184619 -1.54046,3.3 -3.7928,8.7 -5.00521,12 -1.2124,3.3 -2.54499,6.9 -2.9613,8 -0.41631,1.1 -0.85402,10.1 -0.9727,20 -0.27286,22.76301 -0.8549,32.83231 -2.19367,37.95044 -0.5826,2.22726 -1.45498,5.62456 -1.93862,7.54956 -0.48365,1.925 -1.14064,13.4 -1.45997,25.5 -0.31934,12.1 -1.04434,24.25 -1.61111,27 -1.17405,5.69651 -0.0388,13 2.02064,13 1.27236,0 6.84569,-8.81692 13.04941,-20.64397 1.62826,-3.10419 4.66558,-7.65738 6.7496,-10.1182 2.08402,-2.46083 5.58913,-6.86889 7.78913,-9.79569 12.96253,-17.2449 16.99912,-19.47874 35,-19.36895 l 12,0.0732 10.5,5.07961 c 5.775,2.79379 13.78622,6.22933 17.80272,7.63454 4.01649,1.4052 8.96649,3.86228 11,5.46018 2.0335,1.59789 5.10126,3.62321 6.81724,4.50071 4.16101,2.12781 12.2299,11.20141 14.38715,16.17858 0.95354,2.2 2.73317,4.89448 3.95472,5.98772 1.22156,1.09325 3.66839,4.46825 5.4374,7.5 3.15645,5.40955 10.60077,22.34221 10.60077,24.11224 0,2.35723 -2.88053,0.29572 -6.5,-4.65185 -3.13712,-4.28823 -4.43144,-5.34408 -6,-4.89453 -1.1,0.31526 -5.46425,0.81331 -9.69832,1.10677 -6.79171,0.47074 -8.35341,0.23367 -13.26091,-2.01305 -5.56637,-2.54837 -11.63112,-7.07666 -21.07287,-15.73422 -5.89942,-5.40943 -11.2984,-7.57518 -15.27671,-6.12811 -5.13693,1.86852 -13.73182,4.18097 -21.29715,5.73001 -6.38773,1.30791 -7.7892,1.95951 -8.75,4.06824 -0.62922,1.38099 -1.14404,3.32782 -1.14404,4.3263 0,2.34377 -5.3635,15.3589 -7.77976,18.87845 -1.02403,1.49161 -3.11558,5.41203 -4.64787,8.71203 -7.65603,16.48825 -9.12168,25.87223 -8.90618,57.02278 0.15458,22.34519 0.35342,24.78935 2.84729,35 2.55105,10.44469 4.45863,14.45667 6.89151,14.49404 2.45222,0.0377 20.32875,7.90063 23.03202,10.13059 4.59739,3.79244 15.13103,10.88138 16.89262,11.36841 8.19571,2.2659 23.07166,10.74264 29.67037,16.90703 2.475,2.3121 6.3,5.50701 8.5,7.09979 2.2,1.59279 4.5334,3.58929 5.18533,4.43667 2.21399,2.87774 8.61614,15.51319 11.31688,22.3353 2.21233,5.58834 3.73032,7.67434 8.55054,11.75 3.22338,2.72546 6.21766,4.95539 6.65397,4.95539 0.4363,0 0.79328,0.9 0.79328,2 0,2.75547 -1.81063,2.46596 -6.42814,-1.02782 -2.16048,-1.6347 -4.47829,-2.97218 -5.1507,-2.97218 -2.60139,0 -14.37851,-6.23318 -18.77611,-9.93749 -1.21417,-1.02274 -3.97776,-1.58807 -8,-1.63649 -4.2027,-0.0506 -7.72547,-0.80803 -11.14505,-2.39632 -9.20351,-4.27475 -19.79752,-7.58189 -21.30439,-6.6506 -0.45686,0.28236 -4.69561,0.77708 -9.41943,1.09937 -4.72382,0.32228 -10.99343,1.27727 -13.93247,2.12218 -2.93904,0.84492 -7.36871,1.88714 -9.84371,2.31606 -9.29701,1.61116 -26.68537,9.82198 -30.85331,14.569 -1.73068,1.97114 -3.14669,3.9366 -3.14669,4.36769 0,1.39298 -23.31425,24.50497 -29.40167,29.1466 -5.96859,4.55102 -13.78376,9.50199 -16.67481,10.56361 -1.65837,0.60897 -4.92352,5.47432 -4.92352,7.33646 0,0.60031 -1.56632,4.48246 -3.48072,8.627 -1.9144,4.14453 -4.45085,10.78394 -5.63656,14.75422 -1.18571,3.97029 -2.74335,8.34371 -3.46142,9.71871 -1.41894,2.71708 -5.766129,14.17457 -10.895039,28.71507 -4.36095,12.36329 -7.62641,17.08273 -9.01911,13.03493 z m 199.791459,-145.25 c -1.32366,-2.77574 -2.2515,-3.5 -4.48382,-3.5 -1.83537,0 -2.81479,0.52193 -2.81479,1.5 0,0.825 0.49152,1.5 1.09227,1.5 0.60075,0 2.23644,0.9 3.63486,2 3.69929,2.90986 4.46219,2.46485 2.57148,-1.5 z m 256.29179,142.07071 c -1.3709,-1.13889 -3.68098,-5.22071 -5.13338,-9.07071 -3.57557,-9.47811 -3.73483,-9.86944 -7.73231,-19 -1.92638,-4.4 -4.25471,-10.25 -5.17407,-13 -4.06179,-12.14962 -14.11987,-25.84421 -24.55694,-33.43549 -3.79534,-2.76049 -16.93406,-15.12346 -29.19716,-27.47325 -17.91496,-18.04162 -23.37737,-22.95701 -27.79654,-25.01295 -3.025,-1.40733 -6.08043,-2.56317 -6.78984,-2.56854 -0.70941,-0.005 -3.1339,-0.95054 -5.38777,-2.10038 -11.43693,-5.83469 -41.90458,-10.08087 -52.51088,-7.31828 -2.975,0.77489 -6.55663,1.40889 -7.95917,1.40889 -1.40255,0 -3.96809,0.63278 -5.70121,1.40618 -1.73312,0.7734 -4.28525,1.65602 -5.6714,1.96139 -1.38615,0.30537 -4.66006,1.97255 -7.27535,3.70485 -2.6153,1.7323 -6.43118,3.53894 -8.47973,4.01475 -4.81673,1.11877 -12.22465,1.15653 -12.22465,0.0623 0,-0.88099 9.54996,-7.14948 10.89213,-7.14948 1.37017,0 4.82728,-4.4152 7.04701,-9 4.55024,-9.39838 6.45057,-12.30693 11.85433,-18.14364 7.89481,-8.52734 16.85724,-14.56172 27.5021,-18.5171 6.62327,-2.46105 10.32613,-4.51647 13.20443,-7.32965 5.13512,-5.01895 21.06207,-12.44257 33.45747,-15.59467 9.83266,-2.50041 10.96151,-3.32426 12.21535,-8.91494 0.37005,-1.65 1.65663,-6.375 2.85907,-10.5 2.8352,-9.72619 3.73132,-14.43642 4.94649,-26 1.72484,-16.41348 1.91161,-19.19619 2.11947,-31.57814 l 0.20277,-12.07814 -4.01065,-7.42186 c -2.20585,-4.08202 -5.68483,-10.47111 -7.73106,-14.19798 -3.23836,-5.89811 -7.51278,-18.37301 -9.23136,-26.94171 -0.69035,-3.44199 -1.67302,-4.16837 -7.82755,-5.78604 -2.75,-0.72281 -10.58024,-3.94264 -17.40053,-7.15517 -6.82029,-3.21253 -13.54886,-5.84096 -14.95239,-5.84096 -1.42073,0 -3.90274,1.25822 -5.59947,2.83858 -3.98737,3.71389 -20.94048,13.41088 -26.04761,14.89895 -11.03942,3.21656 -18.34072,4.41808 -20.34129,3.34741 -3.30416,-1.76833 -3.99272,-1.34876 -7.24562,4.41506 -2.9919,5.30136 -5.91309,7.22524 -5.91309,3.89434 0,-3.78285 3.3539,-14.02873 6.74209,-20.59648 6.43016,-12.46441 29.61895,-35.79786 35.57592,-35.79786 0.78527,0 3.56787,-0.94667 6.18356,-2.10372 2.61569,-1.15705 7.0604,-2.45759 9.87712,-2.89009 8.56755,-1.31554 22.77731,-5.01991 29.13786,-7.59601 3.69878,-1.49806 9.09201,-2.67 14,-3.0422 l 7.98345,-0.60542 6.40373,4.86872 c 3.52205,2.6778 7.8081,5.82356 9.52455,6.99059 5.70151,3.87651 11.78539,12.15065 17.55735,23.87813 5.34409,10.85815 16.07524,28.77246 16.80083,28.04688 0.28558,-0.28559 0.69475,-7.83797 0.90926,-16.78306 0.45503,-18.97453 0.64764,-21.41179 2.27314,-28.76382 1.33071,-6.01869 1.38429,-15.43843 0.10197,-17.92499 -1.42365,-2.7606 -2.05668,-44.83019 -0.8101,-53.83732 1.09985,-7.94699 1.03647,-8.57668 -1.66091,-16.5 -3.89827,-11.45081 -4.27021,-12.58313 -5.99061,-18.23769 -0.83669,-2.75 -2.18602,-6.83178 -2.99851,-9.07063 -3.86539,-10.6512 -2.68632,-38.456339 1.91881,-45.249919 l 2.25088,-3.32054 -5.00672,-9.67946 c -2.7537,-5.32369 -5.40429,-10.10695 -5.8902,-10.62945 -1.67509,-1.80123 -0.8764,-2.76504 1.74593,-2.10688 1.44617,0.36297 5.07005,2.77425 8.05306,5.35841 4.61098,3.99445 6.38068,6.65443 11.81061,17.75211 3.51282,7.17951 7.5704,14.2371 9.01685,15.68355 1.44645,1.44645 6.69482,10.64731 11.66306,20.446359 8.64014,17.04128 14.98847,27.31645 16.877,27.31645 1.22429,0 2.83691,-3.24963 4.62928,-9.32857 0.83864,-2.84429 1.88294,-5.62143 2.32074,-6.17143 0.4378,-0.55 1.4812,-3.25 2.3187,-6 2.4529,-8.05404 6.9917,-20.718619 9.4971,-26.499999 0.5959,-1.375 1.8137,-4.75 2.7062,-7.5 0.8925,-2.75 2.188,-5.675 2.8789,-6.5 0.691,-0.825 2.4927,-4.09005 4.004,-7.25566 1.5113,-3.16561 3.6087,-6.21645 4.6611,-6.77965 3.6606,-1.95909 5.9182,-9.5511 7.498,-25.21469 0.4039,-4.00498 1.0075,-5.750002 1.9889,-5.750002 0.775,0 1.6151,1.012502 1.867,2.250002 1.0015,4.92011 1.3264,21.55688 0.5199,26.61467 -0.5557,3.48436 -0.3473,11.14563 0.5945,21.85818 0.7975,9.07143 1.2727,16.78233 1.0559,17.13533 -1.0967,1.78613 -0.2036,74.861749 0.9288,75.994139 0.9566,0.95664 3.481,-2.24558 3.481,-4.41575 0,-1.27519 0.4002,-2.56584 0.8892,-2.8681 0.4891,-0.30227 1.197,-1.77571 1.5731,-3.27433 2.1905,-8.7277 7.2807,-16.36746 13.2272,-19.85231 5.4861,-3.21508 6.1587,-4.60439 6.5156,-13.45925 0.3417,-8.47839 1.8929,-10.00686 4.3656,-4.3018 1.4777,3.40958 1.5516,6.17888 0.6885,25.81922 -0.5848,13.30898 -0.6065,22.97488 -0.055,24.46775 1.2663,3.42723 0.04,18.90359 -2.2741,28.70944 -1.0616,4.49745 -1.9301,9.58953 -1.9301,11.31574 0,1.7262 -0.4057,3.89647 -0.9014,4.82281 -0.4958,0.92634 -1.1261,6.85926 -1.4007,13.18426 -0.4656,10.72546 -1.4683,18.40441 -3.7562,28.76435 -0.518,2.34539 -0.9417,5.17373 -0.9417,6.28518 0,1.11146 -0.6581,3.02518 -1.4624,4.25271 -2.2508,3.43507 -5.5372,33.31544 -5.5404,50.37313 0,12.69703 0.2784,15.3987 1.9562,18.82463 1.0775,2.2 3.1383,8.275 4.5796,13.5 1.4413,5.225 3.5225,11.75 4.6249,14.5 2.9862,7.44935 4.5628,12.38047 5.9151,18.5 0.6684,3.025 2.6582,10.225 4.4217,16 4.1311,13.52816 7.0675,26.32853 8.4879,37 0.9468,7.113 6.4456,29.17362 10.0951,40.5 0.5316,1.65 2.3224,7.16334 3.9794,12.25186 2.6848,8.24476 2.9818,10.36741 2.7278,19.5 l -0.285,10.24814 -2.6464,-8 c -1.4555,-4.4 -2.9767,-9.575 -3.3804,-11.5 -0.4038,-1.925 -1.9586,-6.2 -3.4551,-9.5 -1.4965,-3.3 -3.0044,-7.82688 -3.3509,-10.05972 -0.3465,-2.23285 -2.2379,-8.75785 -4.2032,-14.5 -3.6581,-10.68817 -5.7836,-20.441 -6.9611,-31.94028 -0.3661,-3.575 -1.4855,-9.425 -2.4875,-13 -1.0021,-3.575 -2.1218,-8.3 -2.4883,-10.5 -0.3664,-2.2 -1.3718,-6.025 -2.2341,-8.5 -0.8623,-2.475 -1.9223,-6.3 -2.3556,-8.5 -1.7779,-9.02749 -3.1337,-13.36602 -6.4063,-20.5 -1.8922,-4.125 -5.0508,-14.025 -7.019,-22 -1.9682,-7.975 -4.4194,-16.3 -5.447,-18.5 -1.9023,-4.07284 -4.0909,-14.14375 -4.0333,-18.5602 0.031,-2.33925 0.091,-2.36135 1.4725,-0.5363 1.8062,2.38639 2.1784,1.43073 2.8838,-7.4035 1.1483,-14.37965 3.6156,-31.15706 5.6618,-38.5 0.6131,-2.2 1.3238,-5.35 1.5794,-7 0.2556,-1.65 1.1503,-6.6932 1.9883,-11.20711 1.8774,-10.11331 1.6013,-13.7913 -1.0357,-13.79713 -2.7838,-0.006 -3.116,-2.28218 -0.3895,-2.66866 2.1592,-0.30607 2.3076,-0.77721 2.3076,-7.3271 0,-6.89299 -0.042,-7.00484 -2.75,-7.31642 -1.5125,-0.17403 -2.75,-0.73653 -2.75,-1.25 0,-1.20823 1.6537,-1.18927 3.9607,0.0454 2.3216,1.24246 3.6206,-0.25408 4.3216,-4.97899 0.2856,-1.925 1.2289,-6.60183 2.0962,-10.39297 0.8673,-3.79113 1.8795,-11.5736 2.2493,-17.29437 0.6894,-10.66192 0.2064,-12.94011 -4.7992,-22.64102 -0.585,-1.13384 -0.5886,-2.27342 -0.01,-3 1.354,-1.69844 2.4777,-12.3701 1.3744,-13.05199 -2.0631,-1.27506 -6.4548,6.63224 -6.6397,11.95465 -0.079,2.26817 -0.7613,3.96227 -1.8395,4.56568 -2.4297,1.35969 -2.1325,2.57707 1.034,4.23617 l 2.7484,1.44003 -3.7985,0.7126 c -2.7783,0.52121 -3.7081,1.15017 -3.4621,2.34191 0.1859,0.90042 1.103,1.49786 2.0501,1.33547 3.0467,-0.52239 1.8158,1.3502 -1.5363,2.33704 -3.9864,1.17361 -4.6084,4.76441 -0.9158,5.28738 2.1923,0.3105 2.1316,0.4392 -1,2.1187 -3.5348,1.89572 -4.522,4.64499 -1.5842,4.41183 2.5053,-0.19883 2.1738,0.36836 -1.25,2.13889 -3.5203,1.82041 -3.8121,3.10748 -0.9131,4.02759 l 2.0869,0.66236 -2.1036,1.47344 c -2.4682,1.72879 -1.7603,3.69042 1.014,2.8099 3.2073,-1.01797 2.1354,1.06908 -1.3334,2.59624 -3.9532,1.74041 -4.8857,4.82091 -1.7107,5.6512 l 2.214,0.57899 -2.3277,1.75583 c -1.8692,1.40989 -2.0928,2.03905 -1.1349,3.19319 0.9667,1.16487 0.7204,1.65262 -1.2993,2.57287 -2.8534,1.30007 -3.3907,5.1878 -0.9922,7.17839 2.0393,1.69244 1.8866,3 -0.3502,3 -1.6776,0 -1.905,1.23591 -2.4378,13.25 -0.3301,7.44436 -1.2673,15.44081 -2.1389,18.25 -0.8742,2.81731 -1.5628,8.71056 -1.5776,13.5 -0.014,4.675 -0.4189,9.12015 -0.899,9.87812 -1.273,2.00981 -3.1949,0.37209 -2.5693,-2.18941 0.294,-1.20379 0.1148,-4.40119 -0.3983,-7.10533 -0.7035,-3.70751 -0.5683,-6.04378 0.5499,-9.5 1.008,-3.11565 1.6185,-10.50762 1.9065,-23.08338 0.2823,-12.32803 0.8792,-19.66767 1.7892,-22 1.1036,-2.8288 1.1843,-6.84152 0.4207,-20.92458 -0.6557,-12.09447 -0.6159,-18.73022 0.1301,-21.69282 0.5911,-2.34753 1.0747,-6.78011 1.0747,-9.85017 0,-5.13952 -0.2179,-5.67452 -2.75,-6.7501 l -2.75,-1.16818 2.8921,-0.3872 2.892,-0.38721 -0.7231,-8.16987 c -0.3982,-4.49342 -0.6789,-9.96986 -0.6244,-12.16986 0.055,-2.2 -0.3068,-5.39017 -0.803,-7.08927 -0.5372,-1.83955 -0.5323,-10.14432 0.012,-20.52913 1.0392,-19.820399 0.4231,-25.215149 -2.9352,-25.700929 -2.6425,-0.38225 -3.6793,-3.65244 -2.9297,-9.24107 0.2906,-2.16678 0.2162,-3.9396 -0.1653,-3.9396 -1.0156,0 -6.15,10.2083 -6.1316,12.19098 0.01,0.93004 -0.399,1.94723 -0.9057,2.26041 -0.5068,0.31318 -2.0564,4.05224 -3.4437,8.30901 -2.4071,7.38616 -2.4641,8.09561 -1.2484,15.535489 0.7007,4.28774 0.9003,8.0268 0.4437,8.30902 -1.4532,0.89808 -2.8303,-0.6414 -2.8303,-3.16393 0,-3.62546 -2.513,-2.98706 -4.4692,1.13536 -2.803,5.90692 -7.7265,19.60635 -8.85388,24.63537 -0.89106,3.97505 -0.79795,4.99708 0.59558,6.53688 1.0097,1.11577 1.4262,2.68741 1.0716,4.04361 -0.3191,1.22015 -0.096,2.80197 0.496,3.51516 0.5919,0.71319 0.8169,2.28819 0.5,3.5 -0.3169,1.21181 0,2.89497 0.6995,3.74035 0.9662,1.16422 0.9948,1.81785 0.118,2.69467 -1.5392,1.53926 -1.4792,5.47305 0.092,6.04929 1,0.36666 1,0.72333 0,1.78333 -1.7347,1.83878 -1.5658,5.86656 0.2755,6.57317 0.9675,0.37125 1.2012,0.99994 0.6388,1.71861 -1.7468,2.23226 -2.0973,8.44393 -0.549,9.72891 1.0195,0.84609 1.1503,1.53875 0.4271,2.26193 -1.3686,1.36858 -1.3424,4.64238 0.037,4.64238 0.6723,0 0.8378,1.10005 0.439,2.91615 -0.4827,2.19761 -0.1943,3.19751 1.1705,4.05804 1.2837,0.80942 1.4471,1.29484 0.561,1.66718 -1.7485,0.73479 -1.5609,3.30206 0.2932,4.01357 1.3771,0.52843 1.3683,0.78538 -0.081,2.38726 -1.5075,1.66574 -1.4697,1.94987 0.5238,3.94335 1.6757,1.67572 1.8946,2.45388 0.9952,3.53756 -1.5126,1.82266 -0.4157,3.47128 2.3282,3.49913 2.1829,0.0221 2.1821,0.029 -0.2028,1.86278 -2.494,1.9176 -2.1695,4.11498 0.6078,4.11498 1.4073,0 1.3887,0.22903 -0.157,1.93699 -2.1789,2.40769 -1.2772,4.05054 2.252,4.10305 l 2.691,0.04 -2.75,1.49189 c -1.5125,0.82055 -2.75,1.83753 -2.75,2.25997 0,1.5377 2.2842,2.99844 3.8719,2.47604 0.8954,-0.29465 0.2781,0.63858 -1.3719,2.07385 -2.7613,2.40196 -2.8642,2.71565 -1.293,3.94264 1.5827,1.23609 1.5875,1.45248 0.065,2.97478 -1.4279,1.42789 -1.464,1.97383 -0.2772,4.19144 1.0483,1.95886 1.0912,2.82312 0.1848,3.72952 -0.6489,0.64888 -1.1996,3.67729 -1.2237,6.72979 -0.024,3.0525 -0.6924,7.35 -1.485,9.55 -0.7925,2.2 -1.4547,5.125 -1.4714,6.5 -0.036,2.99439 -1.4329,5.46838 -2.659,4.7106 -0.4855,-0.3001 -0.9859,-13.07025 -1.1119,-28.37812 -0.2207,-26.80378 -1.0937,-37.09247 -4.35604,-51.33248 -0.567,-2.475 -1.27971,-11.475 -1.5838,-20 -0.30409,-8.525 -0.98332,-16.04407 -1.50939,-16.70904 -0.52608,-0.66497 -0.70316,-2.46497 -0.39352,-4 0.90838,-4.50317 -0.67126,-9.62479 -3.38595,-10.97821 -1.75704,-0.87599 -2.78256,-0.90828 -3.73524,-0.11763 -0.72227,0.59944 -1.54344,0.85967 -1.82481,0.57829 -0.28138,-0.28138 1.0795,-1.26661 3.02416,-2.18942 1.9447,-0.92276 3.53579,-1.8833 3.53579,-2.13449 0,-0.81425 -3.42515,-6.80562 -7.40294,-12.94946 -8.74142,-13.50141 -10.33899,-16.19688 -12.15008,-20.5 -4.81001,-11.42845 -12.09049,-23.927759 -17.07007,-29.306299 -2.9573,-3.19423 -5.37691,-6.4089 -5.37691,-7.14371 0,-0.73481 -0.60828,-1.56943 -1.35172,-1.85472 -1.90683,-0.73172 -3.87959,7.96148 -2.35919,10.39603 0.79669,1.2757 0.77635,2.12492 -0.0755,3.15129 -0.86911,1.04722 -0.87732,1.69372 -0.0322,2.53882 0.8451,0.8451 0.79891,1.53738 -0.18141,2.71859 -0.94622,1.14013 -1.01055,1.88945 -0.22929,2.67071 0.78127,0.78127 0.77223,1.5883 -0.0322,2.876419 -0.82793,1.32573 -0.82019,2.1495 0.0298,3.1737 0.6314,0.76079 0.88871,2.37472 0.57181,3.58653 -0.31689,1.21181 -0.0343,2.85618 0.62795,3.65416 0.66226,0.79798 0.93891,1.87997 0.61478,2.40443 -0.88517,1.43223 0.43772,4.13405 2.02414,4.13405 1.61243,0 1.86093,1.59278 0.39031,2.50167 -1.84705,1.14154 0.94032,4.74791 3.21076,4.15417 2.01815,-0.52776 2.01768,-0.51481 -0.0515,1.41292 -2.15887,2.01129 -2.00454,4.39187 0.34313,5.29275 0.78809,0.30242 1.12618,1.35312 0.81647,2.53744 -0.59458,2.27371 2.25041,7.4058 6.12142,11.04242 3.10711,2.91898 3.47647,7.05863 0.6298,7.05863 -2.32754,0 -2.94018,1.94052 -2.61556,8.28472 0.13465,2.6316 -0.13692,5.02066 -0.6035,5.30902 -1.30452,0.80625 -1.00529,5.40626 0.3517,5.40626 0.93333,0 0.93333,0.26667 0,1.2 -1.90975,1.90975 -1.3958,3.79544 1.05,3.85245 l 2.25,0.0524 -2.25,1.56952 c -2.681,1.87017 -2.95148,5.80573 -0.5,7.27515 1.66667,0.99901 1.66667,1.11377 0,2.40994 -2.38485,1.8547 -2.21117,2.50918 1,3.76822 2.74859,1.07768 2.74883,1.07868 0.47783,1.95123 -3.12592,1.20101 -3.75577,3.46635 -1.79558,6.45799 1.4297,2.182 1.46035,2.71331 0.22758,3.94607 -1.00423,1.00423 -1.27281,2.83978 -0.91023,6.22078 0.68549,6.39214 1.72905,8.2453 4.26911,7.58106 1.89811,-0.49637 1.99717,-0.22074 1.3801,3.84019 -0.36563,2.40622 -1.32402,5.13409 -2.12976,6.06194 -0.80573,0.92784 -1.15715,2.18505 -0.78092,2.7938 0.37623,0.60875 0.1422,1.75971 -0.52006,2.55769 -0.66227,0.79798 -0.97246,2.33672 -0.68933,3.41943 0.28314,1.0827 -0.11375,2.4902 -0.88197,3.12777 -1.91246,1.58719 -1.75314,3.56219 0.35323,4.37875 1.66667,0.64611 1.66667,0.73978 0,1.96723 -2.02349,1.49024 -2.33322,5.15881 -0.5,5.92219 0.9096,0.37876 0.77343,0.90804 -0.5,1.94357 -2.19094,1.78163 -2.2286,3.33536 -0.1096,4.52121 1.83597,1.02746 1.02392,3.18137 -1.19942,3.18137 -1.66808,0 -1.94601,2.56984 -0.38243,3.53618 0.60732,0.37535 0.78651,1.89279 0.42036,3.55985 -0.48602,2.21281 -0.22808,3.06299 1.08175,3.56562 1.61703,0.62051 1.61429,0.73726 -0.0458,1.95113 -2.01241,1.47151 -1.37856,4.38722 0.95375,4.38722 0.84226,0 1.53138,0.45 1.53138,1 0,0.55 -0.675,1 -1.5,1 -2.07794,0 -1.88775,2.63571 0.25,3.46443 1.62162,0.62864 1.60328,0.78774 -0.25,2.16882 -1.96712,1.4659 -1.96844,1.51379 -0.0806,2.91268 1.72021,1.27468 1.76445,1.60551 0.42637,3.18817 -1.54367,1.82583 -1.40246,5.17102 0.22757,5.3909 0.50968,0.0688 1.37668,0.2375 1.92668,0.375 0.55,0.1375 1.5625,0.31288 2.25,0.38974 0.6875,0.0769 0.125,0.7149 -1.25,1.41786 -2.06213,1.05427 -2.44661,1.89158 -2.19515,4.78063 0.21766,2.50065 -0.26489,4.01812 -1.68698,5.3051 -2.63407,2.3838 -3.97171,1.3729 -4.76736,-3.60285 -0.36013,-2.25211 -1.47987,-4.91984 -2.48831,-5.92828 -1.00845,-1.00845 -3.84651,-6.00249 -6.30681,-11.09787 -4.59636,-9.51924 -9.90591,-19.40715 -16.05479,-29.89861 -1.92534,-3.28503 -3.50061,-6.20513 -3.50061,-6.48907 0,-1.23391 -6.26672,-9.41033 -11.97682,-15.6266 -5.90673,-6.43033 -10.02318,-8.58647 -10.02318,-5.25 0,0.825 -0.35964,1.5 -0.7992,1.5 -0.43956,0 -0.61674,-1.56286 -0.39374,-3.47302 0.34661,-2.96903 0.0248,-3.64647 -2.21759,-4.66817 -2.25348,-1.02675 -2.84214,-0.92488 -4.17801,0.72302 -1.46757,1.81037 -1.52423,1.73552 -1.00821,-1.33183 0.59736,-3.55083 -0.30789,-3.99715 -4.71144,-2.32293 -2.20877,0.83978 -4.37284,5.08826 -3.80611,7.47213 0.11757,0.49456 -0.0578,1.60695 -0.38976,2.47198 -1.07688,2.80631 -2.3223,-0.74689 -1.75203,-4.99858 0.59841,-4.46143 -0.13563,-4.74175 -5.10616,-1.94997 -1.8827,1.05745 -5.59388,2.24816 -8.24706,2.64603 -2.65319,0.39787 -8.88689,2.00769 -13.85267,3.57737 -4.96578,1.56968 -9.70579,2.86052 -10.53336,2.86852 -4.95605,0.0479 -16.9715,6.25746 -25.00466,12.92229 -6.67774,5.54029 -7.10129,6.09102 -6.40498,8.32831 0.69139,2.22145 -2.64424,7.81465 -8.38945,14.06748 -3.25476,3.54234 -4.1438,5.12914 -3.3298,5.94314 0.814,0.814 1.90251,0.52494 4.07687,-1.08264 1.86525,-1.37903 4.41982,-2.19313 6.88187,-2.19313 6.42344,0 10.38987,-1.14202 10.91289,-3.14206 0.35953,-1.37486 1.08278,-1.68768 2.86672,-1.23994 1.92909,0.48417 2.38588,0.20919 2.38588,-1.43627 0,-1.11929 -0.7875,-2.26389 -1.75,-2.54355 -1.44391,-0.41954 -1.40018,-0.49967 0.25,-0.45817 6.35891,0.15993 8.5,-0.26325 8.5,-1.68001 0,-0.88435 0.92347,-1.50628 2.25,-1.51531 2.97473,-0.0202 5.17685,-1.48501 4.3191,-2.87289 -0.37792,-0.61149 -1.78558,-1.1118 -3.12812,-1.1118 -1.34254,0 -2.44098,-0.48218 -2.44098,-1.07151 0,-0.66583 1.9683,-0.94978 5.19887,-0.75 4.56688,0.28243 5.33892,0.0458 6.35104,-1.9462 0.6337,-1.24724 1.40646,-2.522 1.71726,-2.83279 0.31079,-0.3108 4.90849,1.51955 10.21711,4.06744 26.73013,12.82921 32.65567,14.56821 33.33527,9.78306 0.49678,-3.49787 2.02368,-2.65181 2.7071,1.5 0.33951,2.0625 1.0117,4.65 1.49377,5.75 0.48207,1.1 1.01603,2.9 1.18658,4 0.21097,1.36065 1.22235,2.10461 3.16377,2.32725 l 2.85366,0.32725 -2.24213,1.57045 -2.24213,1.57045 2.37991,1.83007 c 1.30896,1.00653 1.81742,1.84006 1.12992,1.85229 -1.75142,0.0312 -1.56544,2.96397 0.23169,3.65359 1.01224,0.38843 1.21347,1.09136 0.63512,2.21861 -1.08526,2.1153 -0.35689,4.15004 1.48558,4.15004 1.04222,0 1.25907,0.70382 0.79119,2.56797 -0.48859,1.94673 -0.13032,2.92812 1.48095,4.0567 1.16901,0.81881 2.12547,2.36322 2.12547,3.43203 0,1.06882 0.675,1.9433 1.5,1.9433 0.98767,0 1.5,0.98811 1.5,2.89301 0,1.59116 0.6401,3.13864 1.42244,3.43885 0.78234,0.30021 1.56984,1.58586 1.75,2.85699 0.18016,1.27113 1.30003,2.73812 2.4886,3.25997 1.48262,0.65096 2.11049,1.74941 2,3.49899 -0.12275,1.94378 0.37397,2.62638 2.08896,2.87073 2.18521,0.31133 3.25681,2.18146 1.25,2.18146 -1.85005,0 -0.97676,3.45883 2.5045,9.91948 3.74446,6.94912 3.46571,9.17981 -1.0395,8.31858 -1.96644,-0.37591 -2.38579,-0.91227 -1.90286,-2.43383 0.79108,-2.49249 -1.37566,-7.80423 -3.18346,-7.80423 -1.60878,0 -1.95662,6.52478 -0.39916,7.48734 0.61616,0.38081 0.52342,1.34141 -0.25,2.58953 -1.00076,1.61499 -0.95932,2.15226 0.22273,2.88766 0.79874,0.49693 1.81124,0.68164 2.25,0.41047 0.43876,-0.27117 1.36025,-0.13852 2.04775,0.29478 0.82188,0.51799 0.22251,0.96969 -1.75,1.31884 -3.84229,0.68011 -4.00754,3.39556 -0.23305,3.82944 3.06485,0.3523 2.76519,2.18194 -0.35735,2.18194 -2.40461,0 -3.55023,2.52316 -1.99595,4.39595 0.87174,1.05039 0.78109,1.50721 -0.38813,1.95588 -1.83402,0.70378 -2.03668,4.30946 -0.27552,4.90222 0.97657,0.32868 0.95214,0.78156 -0.11167,2.07034 -0.74891,0.9073 -1.11287,2.66798 -0.8088,3.91262 0.30414,1.24489 -0.0955,3.13629 -0.88833,4.20412 -2.10313,2.83268 -1.82908,5.55887 0.5588,5.55887 1.1,0 2,0.39752 2,0.88337 0,0.48585 -0.9,1.11872 -2,1.40638 -3.18289,0.83234 -2.32635,2.42159 1.75,3.24697 3.52103,0.71294 3.59735,0.80372 1.25,1.48671 -1.375,0.40007 -3.5125,0.50969 -4.75,0.24358 -1.77488,-0.38166 -2.25,-0.0386 -2.25,1.62458 0,1.79818 0.62534,2.12308 4.25,2.20809 2.3375,0.0548 5.375,0.49873 6.75,0.98647 2.1482,0.762 2.02827,0.81897 -0.8523,0.40486 -4.70934,-0.67702 -11.21739,0.52703 -11.85693,2.19363 -0.78478,2.04513 0.0682,2.5033 5.1721,2.77823 6.32459,0.34068 7.00213,1.53713 0.87046,1.53713 -5.56094,0 -6.8581,0.66276 -5.20221,2.65799 0.87224,1.05099 0.65351,1.34201 -1.00868,1.34201 -2.82057,0 -2.7246,2.58694 0.12756,3.43856 l 2.25,0.67182 -2.25,1.09763 c -1.3241,0.64593 -2.25,2.00761 -2.25,3.30895 0,1.683 -1.02339,2.60216 -4.28343,3.84718 -2.35589,0.89972 -5.13964,1.63586 -6.18611,1.63586 -4.1321,0 -15.39018,3.4441 -22.03046,6.73961 -3.85,1.91072 -7.64822,3.79562 -8.44048,4.18866 -2.47603,1.22835 -2.3764,3.07173 0.16602,3.07173 1.31571,0 3.26571,0.64471 4.33333,1.43268 2.92346,2.1577 0.82452,3.4691 -6.60265,4.12525 -9.19978,0.81275 -10.95622,1.28746 -10.95622,2.96112 0,0.89223 -0.94414,1.48095 -2.375,1.48095 -4.71345,0 -8.74411,1.24723 -8.24383,2.55093 0.33918,0.8839 -1.0343,1.48876 -4.44613,1.958 -5.36767,0.73825 -5.75499,2.38625 -0.62602,2.66367 1.75504,0.0949 0.26598,0.43243 -3.30902,0.75 -4.85449,0.43123 -6.5,0.95713 -6.5,2.0774 0,0.825 -1.28116,1.95 -2.84702,2.5 -3.19778,1.1232 -3.68292,2.82206 -0.9558,3.34706 4.09252,0.78786 3.49768,2.15294 -0.93816,2.15294 -4.95549,0 -6.64566,1.22674 -4.78278,3.47137 0.92566,1.11536 0.60458,1.4463 -1.65536,1.70619 -1.78847,0.20568 -2.93237,0.99985 -3.15889,2.19312 -0.30933,1.62948 0.14085,1.80695 3.49145,1.37638 2.2915,-0.29446 5.15362,0.10385 7.07969,0.98526 2.94016,1.34548 3.83682,1.29528 9.89556,-0.55406 6.08218,-1.8565 6.86765,-1.89915 9.01864,-0.48977 1.29592,0.84912 3.32907,1.28944 4.51813,0.97849 2.3985,-0.62722 18.35311,1.56183 28.67156,3.93388 3.66464,0.84244 9.89032,3.07688 13.83485,4.96543 3.94453,1.88854 7.88203,3.43371 8.75,3.43371 1.94529,0 2.02929,-1.90964 0.19915,-4.52749 -3.55003,-5.07801 -5.49765,-9.43072 -4.4966,-10.04941 1.38176,-0.85397 1.96436,-0.11629 5.98162,7.57391 1.86668,3.57335 3.9185,6.94835 4.5596,7.5 0.6411,0.55164 1.31679,1.87456 1.50153,2.93982 0.20972,1.2093 1.54164,2.24927 3.54583,2.76861 2.11483,0.54801 3.03084,1.29851 2.68497,2.19985 -0.63492,1.65458 4.58561,5.59471 7.41278,5.59471 1.54603,0 1.87603,0.48176 1.44887,2.11522 -0.53121,2.03133 -0.29944,2.0929 5.84362,1.55246 3.51822,-0.30952 5.49676,-0.33817 4.39676,-0.0637 -3.69956,0.9232 -6.5,2.72346 -6.5,4.17851 0,1.15035 0.93829,1.30386 4.60678,0.75374 3.19084,-0.4785 4.40214,-0.35972 3.94099,0.38645 -0.36619,0.59254 -1.28769,1.07732 -2.04777,1.07732 -2.67341,0 -2.69036,2.19187 -0.0384,4.95996 2.39468,2.49951 3.07196,2.7064 6.35924,1.9426 4.99932,-1.1616 8.43034,-1.11806 7.67912,0.0974 -0.33992,0.55 -1.60398,1.01431 -2.80902,1.0318 -2.41706,0.0351 -5.69098,2.14031 -5.69098,3.65946 0,0.53393 1.08938,1.5538 2.42084,2.26638 1.9478,1.04242 4.01865,1.06196 10.59767,0.1 4.49726,-0.65759 8.43288,-0.93956 8.74583,-0.62662 0.31295,0.31295 -0.60445,0.569 -2.03866,0.569 -1.4342,0 -2.88576,0.45 -3.22568,1 -0.33992,0.55 -1.88638,1 -3.43657,1 -2.54886,0 -5.9749,2.42187 -4.91931,3.47746 1.52218,1.52217 5.82001,2.07428 10.09646,1.297 7.50237,-1.3636 8.95192,-0.40616 2.50942,1.65749 -3.1625,1.01301 -5.75,2.24137 -5.75,2.72969 0,1.47553 4.80978,2.8264 7.87829,2.2127 3.90815,-0.78163 5.02695,1.32976 1.43188,2.70224 -2.63034,1.00418 -2.69379,1.15831 -0.99146,2.40861 1.41038,1.03587 2.53298,1.08829 5,0.23347 1.74971,-0.60627 6.02247,-1.19466 9.49502,-1.30754 3.47255,-0.11288 6.58505,-0.47656 6.91666,-0.80818 0.91531,-0.91531 2.26961,-0.72068 2.26961,0.32616 0,0.893 -7.33119,2.68675 -13.42288,3.28422 -1.60759,0.15768 -3.10236,0.8335 -3.32172,1.50183 -0.41829,1.27458 17.14425,13.28487 19.42637,13.28487 0.72505,0 1.31827,0.675 1.31827,1.5 0,1.76326 -3.24007,1.97707 -6.1731,0.40736 -2.47946,-1.32697 -4.17734,0.0158 -3.20941,2.53821 0.57983,1.51102 1.4537,1.68242 5.78278,1.13419 12.27973,-1.55507 16.11853,-1.72948 14.59973,-0.66333 -0.825,0.57912 -2.956,1.05984 -4.7356,1.06826 -5.10712,0.0242 -12.2644,2.26467 -12.2644,3.83921 0,1.13282 1.32346,1.29026 6.75,0.803 6.4462,-0.57882 6.5784,0.36904 0.25,1.79292 -3.99662,0.89924 -5.6775,2.30268 -4.349,3.63118 0.82799,0.82799 1.68557,0.83924 3.1759,0.0416 2.10831,-1.12833 7.9661,-1.55226 6.9142,-0.50038 -0.3258,0.32574 -2.31327,1.1839 -4.41669,1.90702 -2.10343,0.72313 -3.82441,1.91752 -3.82441,2.65421 0,1.36111 1.30977,1.39791 13,0.36523 5.4177,-0.47859 4.3731,0.009 -5.75,2.68171 -7.02547,1.85515 -5.83397,3.18052 2.25,2.50279 3.85,-0.32277 7,-0.40538 7,-0.18358 0,0.2218 -1.9125,0.88598 -4.25,1.47596 -6.61304,1.66911 -9.18751,2.96689 -8.08088,4.07352 0.93452,0.93452 10.26668,-0.0154 16.33088,-1.66226 1.6199,-0.43994 2.148,-0.33837 1.5,0.28852 -1.2137,1.1742 -8.4622,3.30462 -11.2436,3.30462 -2.2012,0 -4.94651,2.64322 -3.86676,3.72297 0.37105,0.37106 2.58306,0.16423 4.91546,-0.4596 2.3325,-0.62384 6.7055,-1.37243 9.7179,-1.66354 3.0123,-0.29112 4.577,-0.30553 3.477,-0.032 -1.1,0.27349 -4.025,0.98432 -6.5,1.57961 -7.7524,1.86465 -11,3.20899 -11,4.55349 0,0.78599 1.2837,1.32415 3.25,1.3625 3.0318,0.0591 3.0933,0.12619 0.9163,0.99875 -2.133,0.8549 -2.5846,3.61331 -0.5413,3.30645 0.4813,-0.0723 3.125,-0.40292 5.875,-0.73477 l 5,-0.60336 -5.75,2.17866 c -6.8026,2.57746 -7.6111,4.79088 -1.75,4.79088 5.0336,0 5.171,1.35718 0.2606,2.57363 -5.0848,1.25969 -5.5368,3.96436 -0.8107,4.851 4.3187,0.81018 4.6126,2.19244 0.5917,2.78258 -2.0054,0.29432 -3.7615,-0.2329 -5.4512,-1.6365 z m 6.1596,-19.23299 c 0.6875,-0.27741 1.8125,-0.27741 2.5,0 0.6875,0.27741 0.125,0.50439 -1.25,0.50439 -1.375,0 -1.9375,-0.22698 -1.25,-0.50439 z m 7.25,-1.33772 c 0,-0.55 0.675,-1 1.5,-1 0.825,0 1.5,0.45 1.5,1 0,0.55 -0.675,1 -1.5,1 -0.825,0 -1.5,-0.45 -1.5,-1 z m -480.999999,-4 c 0,-1.20328 5.69982,-1.20328 8.5,0 1.46885,0.63118 0.60572,0.8781 -3.25,0.92971 -2.8875,0.0387 -5.25,-0.37971 -5.25,-0.92971 z m 4.8125,-7.68311 c 0.72188,-0.28887 1.58438,-0.25335 1.91667,0.0789 0.33229,0.33229 -0.25834,0.56864 -1.3125,0.52522 -1.16495,-0.048 -1.4019,-0.28494 -0.60417,-0.60416 z m -3.8125,-7.31689 c 0,-0.55 0.42344,-1 0.94098,-1 0.51754,0 1.2191,0.45 1.55902,1 0.33992,0.55 -0.0835,1 -0.94098,1 -0.85746,0 -1.55902,-0.45 -1.55902,-1 z m 469.812499,-6.68311 c 0.7219,-0.28887 1.5844,-0.25335 1.9167,0.0789 0.3323,0.33229 -0.2584,0.56864 -1.3125,0.52522 -1.165,-0.048 -1.4019,-0.28494 -0.6042,-0.60416 z m 9.1875,-1.31689 c 0,-0.55 0.7016,-1 1.559,-1 0.8575,0 1.2809,0.45 0.941,1 -0.3399,0.55 -1.0415,1 -1.559,1 -0.5176,0 -0.941,-0.45 -0.941,-1 z m -11.1875,-3.68311 c 0.7219,-0.28887 1.5844,-0.25335 1.9167,0.0789 0.3323,0.33229 -0.2584,0.56864 -1.3125,0.52522 -1.165,-0.048 -1.4019,-0.28494 -0.6042,-0.60416 z M 77.761711,561.86904 c 1.24391,-0.23919 3.04391,-0.23011 4,0.0202 0.95609,0.25029 -0.0617,0.446 -2.26166,0.4349 -2.2,-0.0111 -2.98225,-0.21589 -1.73834,-0.45508 z M 519.24544,544.3263 c 0.23648,-0.71738 2.93511,-1.49596 6.33334,-1.82723 6.21821,-0.60618 7.99355,-0.37508 4.8144,0.62669 -1.04122,0.32809 -2.67452,1.01369 -3.62956,1.52354 -2.62945,1.40374 -8.01118,1.17253 -7.51818,-0.323 z m -9.24539,-9.75 c 0,-0.55 1.32344,-1 2.94098,-1 1.61754,0 3.2191,-0.45 3.55902,-1 0.33992,-0.55 1.74303,-1 3.11803,-1 1.41203,0 2.23104,0.43519 1.88197,1 -0.33992,0.55 -1.68992,1 -3,1 -1.31008,0 -2.66008,0.45 -3,1 -0.33992,0.55 -1.71648,1 -3.05902,1 -1.34254,0 -2.44098,-0.45 -2.44098,-1 z m -410,-4 c 0,-0.55 1.35,-1 3,-1 1.65,0 3,0.45 3,1 0,0.55 -1.35,1 -3,1 -1.65,0 -3,-0.45 -3,-1 z m 412.8125,-3.68311 c 0.72187,-0.28887 1.58438,-0.25335 1.91667,0.0789 0.33229,0.33229 -0.25834,0.56864 -1.3125,0.52522 -1.16495,-0.048 -1.4019,-0.28494 -0.60417,-0.60416 z m -408.8125,-2.31689 c -2.35046,-0.75275 -2.30207,-0.8066 0.80902,-0.90032 1.9724,-0.0594 3.05937,0.30425 2.69098,0.90032 -0.33992,0.55 -0.70398,0.95514 -0.80902,0.90032 -0.10504,-0.0548 -1.31598,-0.45997 -2.69098,-0.90032 z m 417.8125,0.31689 c 0.72187,-0.28887 1.58438,-0.25335 1.91667,0.0789 0.33229,0.33229 -0.25834,0.56864 -1.3125,0.52522 -1.16495,-0.048 -1.4019,-0.28494 -0.60417,-0.60416 z m -391.8125,-12.86503 -8.5,-1.24562 9.41911,0.14688 c 6.53825,0.10196 9.5458,0.5292 9.83333,1.39688 0.22783,0.6875 -0.18577,1.18193 -0.91911,1.09874 -0.73333,-0.0832 -5.15833,-0.71179 -9.83333,-1.39688 z m 20.76166,-25.15912 c 1.24391,-0.23919 3.04391,-0.23011 4,0.0202 0.95609,0.25029 -0.0617,0.446 -2.26166,0.4349 -2.2,-0.0111 -2.98225,-0.21589 -1.73834,-0.45508 z m 455.78104,-4.22364 c -0.3164,-0.512 -0.118,-1.21356 0.441,-1.55902 1.1934,-0.73755 3.0163,0.19857 3.0163,1.54894 0,1.2168 -2.7066,1.22469 -3.4573,0.0101 z m -2.0427,-9.0691 c 0.3399,-0.55 1.2665,-1 2.059,-1 0.7926,0 1.441,0.45 1.441,1 0,0.55 -0.9266,1 -2.059,1 -1.1325,0 -1.7809,-0.45 -1.441,-1 z M 28.542761,472.6454 c -0.68307,-1.10523 0.8944,-2.29865 1.81781,-1.37525 0.95078,0.95079 0.77359,2.30615 -0.3015,2.30615 -0.51754,0 -1.19988,-0.41891 -1.51631,-0.9309 z m 571.457289,-7.68573 c 0,-1.1885 0.5959,-1.45695 2.25,-1.01366 1.2375,0.33164 2.925,0.65398 3.75,0.71632 0.825,0.0623 0.375,0.47362 -1,0.91397 -3.9225,1.25619 -5,1.1233 -5,-0.61663 z M 31.542761,461.6454 c -0.31644,-0.512 -0.11397,-1.21604 0.44993,-1.56455 1.42561,-0.88108 5.16454,0.43211 4.46286,1.56745 -0.74349,1.203 -4.16876,1.20098 -4.91279,-0.003 z m 568.457289,-9.03772 c 0,-0.53273 0.675,-0.70959 1.5,-0.39301 0.825,0.31659 1.5,0.75246 1.5,0.96862 0,0.21615 -0.675,0.39301 -1.5,0.39301 -0.825,0 -1.5,-0.43588 -1.5,-0.96862 z M 36.000051,447.0763 c 0,-1.03216 1.01364,-1.49008 3.25,-1.4682 3.0742,0.0301 3.145,0.11123 1.30887,1.5 -2.49986,1.89081 -4.55887,1.87644 -4.55887,-0.0318 z m 558.999999,-1.5 c 0,-0.55 0.4766,-1 1.059,-1 0.5825,0 0.7809,0.45 0.441,1 -0.3399,0.55 -0.8165,1 -1.059,1 -0.2426,0 -0.441,-0.45 -0.441,-1 z m 4.5,-1 c -0.3399,-0.55 -0.1415,-1 0.441,-1 0.5824,0 1.059,0.45 1.059,1 0,0.55 -0.1984,1 -0.441,1 -0.2425,0 -0.7191,-0.45 -1.059,-1 z M 37.190611,441.48565 c 0.54294,-1.65103 6.80944,-2.54618 6.80944,-0.97271 0,0.58485 -0.8632,1.06336 -1.91821,1.06336 -1.05502,0 -2.69142,0.29671 -3.63645,0.65935 -1.20571,0.46267 -1.57999,0.23896 -1.25478,-0.75 z M 592.54275,436.6454 c -0.7395,-1.1966 1.1416,-2.38223 2.4736,-1.55902 1.1184,0.69118 0.3842,2.48992 -1.0163,2.48992 -0.4851,0 -1.1409,-0.41891 -1.4573,-0.9309 z M 40.751811,431.99472 c -1.25469,-1.25469 0.30834,-2.41842 3.24824,-2.41842 1.58508,0 3.16008,0.45 3.5,1 0.33992,0.55 0.029,1.00614 -0.69098,1.01365 -0.71996,0.008 -2.22046,0.25857 -3.33445,0.55791 -1.11398,0.29934 -2.33925,0.23043 -2.72281,-0.15314 z m 547.248239,-3.3594 c 0,-1.4949 1.4696,-2.01047 3.911,-1.37204 1.6941,0.44301 1.9248,0.80178 0.9235,1.43644 -1.8004,1.14131 -4.8345,1.10089 -4.8345,-0.0644 z M 40.000051,423.75195 c 0,-1.72951 1.27553,-2.00385 5.5,-1.18294 2.72298,0.52914 3.20186,0.81837 1.5,0.90595 -1.375,0.0708 -3.5125,0.39999 -4.75,0.73163 -1.29513,0.34708 -2.25,0.15414 -2.25,-0.45464 z M 584.00005,415.6763 c 0,-0.495 1.5738,-0.9 3.4972,-0.9 1.9235,0 3.2469,0.405 2.941,0.9 -0.3059,0.495 -1.8797,0.9 -3.4972,0.9 -1.6176,0 -2.941,-0.405 -2.941,-0.9 z M 41.592181,414.19682 c 0.45607,-1.18851 1.92628,-1.62052 5.51486,-1.62052 2.69116,0 4.89301,0.45 4.89301,1 0,0.55 -1.4625,1.00614 -3.25,1.01365 -1.7875,0.008 -4.26919,0.28675 -5.51486,0.62052 -1.80163,0.48274 -2.13768,0.27542 -1.64301,-1.01365 z m 1.07454,-5.28719 c -1.40266,-1.40266 -0.54052,-2.26637 2.90803,-2.91332 4.84313,-0.90858 6.63512,0.96259 2.35184,2.45575 -3.74916,1.30697 -4.35755,1.35989 -5.25987,0.45757 z M 578.00005,407.0763 c 0,-0.825 0.6484,-1.5 1.441,-1.5 2.1156,0 2.8022,1.69272 0.9715,2.39522 -2.2288,0.85526 -2.4125,0.7871 -2.4125,-0.89522 z M 45.000051,400.25981 c 0,-1.07827 0.92352,-1.52349 3.03566,-1.46343 2.89659,0.0824 5.49865,1.76515 2.77336,1.79357 -0.71996,0.008 -2.32152,0.285 -3.55902,0.61664 -1.62482,0.43543 -2.25,0.17236 -2.25,-0.94678 z M 165.51859,398.5463 c 0.72077,-1.16623 14.48128,-0.90016 14.48139,0.28 4e-5,0.4125 -3.40149,0.75 -7.55895,0.75 -4.93148,0 -7.33774,-0.35803 -6.92244,-1.03 z m 410.78156,-0.38924 c 0.1947,-0.59442 1.8281,-1.22523 3.6298,-1.40179 4.1053,-0.40232 3.2604,1.41934 -0.9446,2.03649 -1.9009,0.279 -2.9066,0.0413 -2.6852,-0.6347 z M 44.241481,392.352 c 0.4247,-1.2741 6.30309,-2.89784 7.20951,-1.99142 0.28489,0.28488 -0.26253,1.11065 -1.21648,1.83504 -2.22482,1.68943 -6.54159,1.80207 -5.99303,0.15638 z m 119.571069,-0.45881 c 0.72187,-0.28887 1.58437,-0.25335 1.91667,0.0789 0.33229,0.33229 -0.25834,0.56864 -1.3125,0.52522 -1.16495,-0.048 -1.4019,-0.28494 -0.60417,-0.60416 z m 8,0 c 0.72187,-0.28887 1.58437,-0.25335 1.91667,0.0789 0.33229,0.33229 -0.25834,0.56864 -1.3125,0.52522 -1.16495,-0.048 -1.4019,-0.28494 -0.60417,-0.60416 z m 398.6875,-2.31689 c 0.3399,-0.55 1.518,-1 2.618,-1 1.1,0 1.7219,0.45 1.382,1 -0.3399,0.55 -1.518,1 -2.618,1 -1.1,0 -1.7219,-0.45 -1.382,-1 z M 46.666721,385.90963 c -1.52513,-1.52512 -0.4449,-2.33145 3.08333,-2.30153 3.5142,0.0298 3.62794,0.12413 1.80887,1.5 -2.09048,1.58116 -3.82792,1.86582 -4.8922,0.80153 z m 116.583329,-1.02266 c 0.9625,-0.25152 2.5375,-0.25152 3.5,0 0.9625,0.25153 0.175,0.45733 -1.75,0.45733 -1.925,0 -2.7125,-0.2058 -1.75,-0.45733 z m 402.75,-1.31067 c 0,-0.55 0.675,-1 1.5,-1 0.825,0 1.5,0.45 1.5,1 0,0.55 -0.675,1 -1.5,1 -0.825,0 -1.5,-0.45 -1.5,-1 z m -516.419649,-4.87 c -0.77717,-1.25748 2.94059,-2.10022 9.33632,-2.11635 6.92765,-0.0175 5.73146,1.37397 -1.35428,1.57532 -2.93345,0.0834 -5.80394,0.44228 -6.37887,0.79761 -0.57493,0.35532 -1.29636,0.23986 -1.60317,-0.25658 z m 107.929729,-5.14631 c 0.34546,-0.55897 1.04702,-0.75742 1.55902,-0.44098 1.38704,0.85723 1.12841,1.45729 -0.62812,1.45729 -0.85746,0 -1.27636,-0.45734 -0.9309,-1.01631 z M 53.000051,370.79992 c 0,-1.48908 3.67026,-2.15084 6.76349,-1.21948 l 2.73651,0.82395 -3.16821,0.086 c -1.74252,0.0473 -3.88002,0.35909 -4.75,0.69294 -0.86999,0.3338 -1.58179,0.16129 -1.58179,-0.38341 z m 501.472999,-2.26729 c -0.3251,-0.52598 0.3355,-0.95633 1.468,-0.95633 2.4146,0 2.6581,0.55611 0.591,1.34934 -0.8074,0.30982 -1.7339,0.13297 -2.059,-0.39301 z M 162.00024,360.3263 c -1e-4,-0.4125 2.77481,-0.75 6.16648,-0.75 3.39166,0 5.82868,0.3375 5.41558,0.75 -0.41309,0.4125 -3.188,0.75 -6.16647,0.75 -2.97846,0 -5.41548,-0.3375 -5.41559,-0.75 z M 56.270661,358.26449 c 0.21783,-0.65351 0.92106,-1.14319 1.56272,-1.08819 0.64167,0.055 2.29167,0.1675 3.66667,0.25 4.13201,0.24792 2.81383,1.9099 -1.56273,1.9703 -2.71203,0.0374 -3.93105,-0.33895 -3.66666,-1.13211 z M 163.19172,354.5013 c 0.19708,-0.59125 0.78583,-1.075 1.30833,-1.075 0.5225,0 1.11125,0.48375 1.30833,1.075 0.19709,0.59125 -0.39166,1.075 -1.30833,1.075 -0.91667,0 -1.50542,-0.48375 -1.30833,-1.075 z M 57.000051,350.10261 c 0,-1.03011 1.43336,-1.21379 6.25,-0.80091 9.34494,0.80104 10.21969,2.07297 1.4493,2.10737 -5.77405,0.0226 -7.6993,-0.30404 -7.6993,-1.30646 z M 551.50005,348.5763 c 0.3399,-0.55 0.8165,-1 1.059,-1 0.2426,0 0.441,0.45 0.441,1 0,0.55 -0.4766,1 -1.059,1 -0.5825,0 -0.7809,-0.45 -0.441,-1 z M 61.392641,343.40251 c -0.85695,-1.38658 2.55703,-2.15432 4.91034,-1.10424 2.04875,0.91418 1.97668,1.00999 -1.09924,1.46144 -1.81046,0.26572 -3.52546,0.10498 -3.8111,-0.3572 z m 0.60741,-6.82621 c 0,-1.19837 3.71124,-1.19837 6.5,0 1.54896,0.66561 1.04154,0.87528 -2.25,0.92971 -2.3375,0.0387 -4.25,-0.37971 -4.25,-0.92971 z m 72.639479,-4.69385 c -0.35171,-0.35172 -0.63948,-2.3353 -0.63948,-4.40796 0,-3.25486 -0.54226,-4.15213 -3.97865,-6.58334 -4.99514,-3.53401 -5.07989,-4.73387 -0.27135,-3.84153 5.72956,1.06326 7.25,2.97643 7.25,9.12265 0,4.97244 -0.90618,7.16452 -2.36052,5.71018 z m 367.43361,-4.55615 c 0.0402,-1.7875 0.84714,-4.56901 1.7932,-6.18114 1.93262,-3.29325 10.85462,-9.85938 12.23642,-9.00538 1.86365,1.1518 0.74866,2.52671 -3.80841,4.69623 -4.25778,2.02704 -4.88892,2.78763 -6.63041,7.99029 -2.13599,6.38122 -3.70261,7.47194 -3.5908,2.5 z m -425.573089,-1.75 c -0.33992,-0.55 -0.14148,-1 0.44098,-1 0.58246,0 1.05902,0.45 1.05902,1 0,0.55 -0.19844,1 -0.44098,1 -0.24254,0 -0.7191,-0.45 -1.05902,-1 z m 25.511929,-18.46862 c -0.51621,-1.35774 -1.85507,-3.04098 -2.975249,-3.74054 -2.24788,-1.40383 -2.75123,-3.80902 -0.78668,-3.75904 2.871109,0.0731 7.961119,6.25446 7.067569,8.583 -0.8159,2.12622 -2.26604,1.65094 -3.30564,-1.08342 z m 350.98807,-6.53138 c 0,-0.55 0.45,-1 1,-1 0.55,0 1,0.45 1,1 0,0.55 -0.45,1 -1,1 -0.55,0 -1,-0.45 -1,-1 z m 88.0898,-1.25 c 2.9919,-5.80257 7.9102,-8.75595 7.9102,-4.75 0,1.1 -0.5966,2 -1.3257,2 -0.7291,0 -2.3825,1.125 -3.6743,2.5 -2.9215,3.10977 -4.4526,3.2413 -2.9102,0.25 z M 141.93739,277.53757 c -1.1171,-0.6904 -1.03909,-0.985 0.4079,-1.54026 0.98406,-0.37762 2.23919,-0.23658 2.78919,0.31342 1.34046,1.34046 -1.34553,2.37117 -3.19709,1.22684 z m 359.87516,-0.64438 c 0.72187,-0.28887 1.58438,-0.25335 1.91667,0.0789 0.33229,0.33229 -0.25834,0.56864 -1.3125,0.52522 -1.16495,-0.048 -1.4019,-0.28494 -0.60417,-0.60416 z m 0.1875,-6.31689 c 1.93876,-1.25292 3,-1.25292 3,0 0,0.55 -1.0125,0.99311 -2.25,0.98469 -1.81944,-0.0124 -1.96296,-0.20082 -0.75,-0.98469 z M 137.397,265.40957 c -0.28324,-0.4583 -0.37593,-0.8592 -0.20597,-0.89089 3.44916,-0.64309 7.74666,-0.6505 7.35246,-0.0127 -0.72915,1.17979 -6.52303,1.91233 -7.14649,0.90356 z m 0.60305,-5.83327 c 0,-0.55 0.45,-1 1,-1 0.55,0 1,0.45 1,1 0,0.55 -0.45,1 -1,1 -0.55,0 -1,-0.45 -1,-1 z m 233.44198,-0.90612 c 0.30801,-0.49837 1.45956,-0.67088 2.55902,-0.38337 2.75155,0.71955 2.50403,1.28949 -0.56002,1.28949 -1.40746,0 -2.30701,-0.40775 -1.999,-0.90612 z M 218.00005,251.5763 c 0,-1.26441 2.04347,-1.26441 4,0 1.16887,0.75538 0.89294,0.97275 -1.25,0.98469 -1.5125,0.008 -2.75,-0.43469 -2.75,-0.98469 z m -76,-3.41667 c 0,-0.87083 0.7125,-1.58333 1.58333,-1.58333 0.87084,0 1.40521,0.53437 1.1875,1.1875 -0.61807,1.85422 -2.77083,2.16176 -2.77083,0.39583 z m 85.51008,-0.59964 c 0.34546,-0.55897 1.04702,-0.75742 1.55902,-0.44098 1.38704,0.85723 1.12841,1.45729 -0.62812,1.45729 -0.85746,0 -1.27636,-0.45734 -0.9309,-1.01631 z M 142.18755,236.5138 c 0.24062,-0.72188 1.02812,-1.50938 1.75,-1.75 0.75,-0.25 1.125,0.125 0.875,0.875 -0.24063,0.72187 -1.02813,1.50937 -1.75,1.75 -0.75,0.25 -1.125,-0.125 -0.875,-0.875 z m 448.3661,-9.83978 c -1.8028,-0.70546 -1.7658,-0.81003 0.5,-1.41606 3.5219,-0.94202 3.9464,-0.854 3.9464,0.81834 0,1.61859 -1.3679,1.80247 -4.4464,0.59772 z m -375.0536,-1.09772 c -0.39915,-0.64585 -0.27574,-1.62426 0.27426,-2.17426 0.66667,-0.66667 1.24192,-0.60858 1.72574,0.17426 0.39915,0.64585 0.27574,1.62426 -0.27426,2.17426 -0.66667,0.66667 -1.24192,0.60858 -1.72574,-0.17426 z M 107.57489,164.6974 c -0.30984,-0.50134 0.10906,-1.16956 0.9309,-1.48493 0.82184,-0.31537 1.49426,-0.16408 1.49426,0.3362 0,1.35555 -1.7771,2.19731 -2.42516,1.14873 z m 456.17516,-0.78338 c 0.6875,-0.27741 1.8125,-0.27741 2.5,0 0.6875,0.27741 0.125,0.50439 -1.25,0.50439 -1.375,0 -1.9375,-0.22698 -1.25,-0.50439 z m -457.75,-24.33772 c 0,-0.55 1.60156,-1 3.55902,-1 2.11803,0 3.30878,0.40488 2.94098,1 -0.33992,0.55 -1.94148,1 -3.55902,1 -1.61754,0 -2.94098,-0.45 -2.94098,-1 z M 162.8711,98.326301 c -0.69236,-1.34233 -0.21728,-5.75 0.61978,-5.75 0.59606,0 1.18662,1.35 1.31235,3 0.12572,1.65 -0.22856,3 -0.7873,3 -0.55873,0 -1.07391,-0.1125 -1.14483,-0.25 z"
     id="path825"
     inkscape:connector-curvature="0" />
</svg>
