<?xml version="1.0" encoding="UTF-8" standalone="no"?>
<!-- Created with Inkscape (http://www.inkscape.org/) -->

<svg
   xmlns:dc="http://purl.org/dc/elements/1.1/"
   xmlns:cc="http://creativecommons.org/ns#"
   xmlns:rdf="http://www.w3.org/1999/02/22-rdf-syntax-ns#"
   xmlns:svg="http://www.w3.org/2000/svg"
   xmlns="http://www.w3.org/2000/svg"
   xmlns:sodipodi="http://sodipodi.sourceforge.net/DTD/sodipodi-0.dtd"
   xmlns:inkscape="http://www.inkscape.org/namespaces/inkscape"
   version="1.1"
   id="svg2"
   width="874.66669"
   height="1706.6667"
   viewBox="0 0 874.66669 1706.6667"
   sodipodi:docname="hands-v.svg"
   inkscape:export-filename="/home/nat/Pictures/hands-v.png"
   inkscape:export-xdpi="96"
   inkscape:export-ydpi="96"
   inkscape:version="0.92.4 (5da689c313, 2019-01-14)">
  <metadata
     id="metadata8">
    <rdf:RDF>
      <cc:Work
         rdf:about="">
        <dc:format>image/svg+xml</dc:format>
        <dc:type
           rdf:resource="http://purl.org/dc/dcmitype/StillImage" />
        <dc:title />
      </cc:Work>
    </rdf:RDF>
  </metadata>
  <defs
     id="defs6" />
  <sodipodi:namedview
     pagecolor="#ffffff"
     bordercolor="#666666"
     borderopacity="1"
     objecttolerance="10"
     gridtolerance="10"
     guidetolerance="10"
     inkscape:pageopacity="0"
     inkscape:pageshadow="2"
     inkscape:window-width="1366"
     inkscape:window-height="731"
     id="namedview4"
     showgrid="false"
     inkscape:zoom="0.13828124"
     inkscape:cx="-987.2995"
     inkscape:cy="795.48021"
     inkscape:window-x="1920"
     inkscape:window-y="312"
     inkscape:window-maximized="1"
     inkscape:current-layer="svg2" />
  <path
     style="fill:#000000;fill-opacity:1;stroke:none;stroke-width:1.33333337;stroke-opacity:1"
     d="m 588.58082,1655.6635 c 1.2137,-1.3411 2.2067,-3.6575 2.2067,-5.1473 0,-1.4899 1.4924,-4.9083 3.3166,-7.5963 3.8916,-5.7345 4.477,-7.9103 5.2431,-19.4848 1.6342,-24.6889 2.5609,-33.2632 4.253,-39.3481 1.0218,-3.6748 1.7453,-10.5748 1.6076,-15.3334 -0.243,-8.3969 2.3057,-47.2756 3.4515,-52.6518 1.8668,-8.7588 3.5446,-18.8706 4.9779,-30 1.9994,-15.5262 6.0328,-27.012 13.0077,-37.0419 2.9163,-4.1936 6.3501,-10.3248 7.6307,-13.6248 1.2805,-3.3 2.6705,-6.3 3.0888,-6.6667 0.4184,-0.3666 1.4559,-2.1666 2.3058,-4 0.8498,-1.8333 3.7517,-8.1333 6.4488,-14 2.697,-5.8666 5.4507,-11.7085 6.1194,-12.9818 0.6686,-1.2735 1.2157,-3.2406 1.2157,-4.3714 0,-1.1308 2.0837,-6.4468 4.6303,-11.8134 4.453,-9.3836 7.7673,-19.5306 10.0714,-30.8334 0.5979,-2.9333 1.7083,-7.7333 2.4673,-10.6666 0.7591,-2.9334 2.3618,-9.5334 3.5614,-14.6667 1.1997,-5.1333 2.9764,-11.1333 3.9482,-13.3333 2.308,-5.2248 4.0734,-11.4875 6.014,-21.3334 0.8672,-4.4 2.449,-12.2 3.5151,-17.3333 1.5824,-7.6195 1.7521,-16.1886 0.9243,-46.6667 -0.5578,-20.5333 -0.9855,-38.8333 -0.9504,-40.6666 0.035,-1.8334 0.4886,-30.5234 1.0079,-63.7557 0.5193,-33.2323 1.5141,-61.9213 2.2107,-63.7535 0.6966,-1.8321 1.2665,-6.8185 1.2665,-11.0808 0,-4.2623 0.8559,-11.8732 1.902,-16.9132 4.1975,-20.2236 6.1742,-36.83684 6.7817,-56.9993 0.3509,-11.64299 1.2045,-23.34299 1.8971,-26 1.74,-6.67611 3.2086,-26.6264 3.5945,-48.83092 0.3583,-20.62144 1.6652,-29.33446 5.5997,-37.33334 1.4429,-2.93333 3.0282,-8.93333 3.523,-13.33333 0.4947,-4.4 2.0409,-13.7 3.4359,-20.66667 1.3951,-6.96666 2.8501,-17.16666 3.2335,-22.66666 3.6534,-52.40879 4.4548,-59.54746 7.8585,-70.00001 1.9103,-5.86666 3.481,-12.60105 3.4904,-14.96529 0.01,-2.36424 1.9063,-8.96424 4.2153,-14.66667 2.3091,-5.70242 4.7569,-13.66804 5.4396,-17.70137 3.5833,-21.17103 4.6903,-25.58668 12.3677,-49.33333 6.739,-20.84376 9.2968,-30.99724 11.2074,-44.48839 0.8147,-5.75315 2.1432,-9.53448 4.0032,-11.39447 3.2981,-3.29808 3.2994,-3.31353 0.9421,-11.14612 -2.4549,-8.15713 -0.965,-22.14247 4.578,-42.97103 9.5288,-35.80601 10.632,-40.6155 12.6931,-55.33333 1.181,-8.43333 2.377,-17.43333 2.6579,-20 0.2808,-2.56667 1.0946,-7.3998 1.8085,-10.74029 6.5506,-30.6521 9.0089,-96.81834 5.4216,-145.92638 -2.3794,-32.57361 -2.7658,-35.91387 -4.6275,-40 -1.0023,-2.2 -3.6434,-11.8888 -5.8692,-21.53068 -2.2257,-9.64187 -5.231,-19.63907 -6.6784,-22.21602 -1.4474,-2.57693 -3.3686,-7.14525 -4.2694,-10.15182 -0.9008,-3.00656 -2.4407,-6.13283 -3.422,-6.94724 -2.6469,-2.19676 -2.206,-14.57514 0.8111,-22.7709 2.7671,-7.51656 4.8857,-21.0509 6.843,-43.71668 0.6649,-7.7 1.8257,-17 2.5795,-20.66666 2.1435,-10.426587 4.0188,-29.239397 4.5854,-46.000007 0.2851,-8.43333 0.9248,-16.36938 1.4216,-17.63567 0.6599,-1.68186 -0.076,-2.74863 -2.7311,-3.95833 -3.4218,-1.55905 -3.8965,-1.34625 -8.1109,3.63568 -2.4621,2.91041 -4.4854,5.74005 -4.4963,6.2881 -0.011,0.54804 -1.8198,4.80615 -4.0198,9.46246 -2.2,4.6563 -4,9.4225 -4,10.59153 0,1.16904 -0.6,2.49634 -1.3334,2.94957 -0.7333,0.45322 -1.3333,2.18863 -1.3333,3.85646 0,1.66784 -0.4291,3.4615 -0.9535,3.98592 -0.5244,0.52442 -1.6465,3.47442 -2.4935,6.55555 -0.847,3.08114 -3.118,10.86114 -5.0465,17.288877 -1.9286,6.42775 -3.4944,12.42775 -3.4796,13.33334 0.031,1.88569 -8.3994,29.01166 -12.1143,38.97985 -1.3664,3.66667 -3.0906,9.43781 -3.8316,12.82476 -2.0317,9.28763 -3.802,13.17524 -5.9994,13.17524 -3.2656,0 -21.937,23.90295 -27.0793,34.66667 -5.7418,12.01876 -11.0023,24.64274 -11.0023,26.40314 0,1.13862 -1.7483,6.91371 -3.8851,12.83354 -3.8806,10.75128 -6.8287,22.26553 -14.7042,57.42999 -12.1185,54.10957 -14.1514,62.88896 -16.2086,70 -0.7425,2.56666 -2.1467,10.36666 -3.1204,17.33333 -2.1821,15.6124 -11.0238,56.55919 -13.3877,62 -0.9558,2.2 -2.4774,7 -3.3811,10.66667 -2.0712,8.4028 -5.0041,17.86924 -6.6094,21.33333 -2.0483,4.41982 -5.08,14.41324 -6.0795,20.03975 -0.8825,4.96808 -1.8918,9.05549 -6.4921,26.29359 -1.7871,6.69649 -3.5482,19.58345 -6.2406,45.66666 -0.6812,6.60001 -1.866,15.30001 -2.6327,19.33334 -0.7668,4.03333 -1.7311,9.73333 -2.143,12.66667 -0.4119,2.93333 -1.2299,5.93333 -1.8178,6.66666 -1.8247,2.27618 -23.8374,69.64436 -30.9325,94.66667 -0.8318,2.93333 -1.9289,5.93333 -2.438,6.66667 -0.5091,0.73333 -1.2516,3.13333 -1.6501,5.33333 -0.3984,2.2 -1.323,6.1 -2.0547,8.66667 -3.4729,12.183 -6.6156,23.99425 -8.1597,30.66667 -2.7065,11.69601 -6.8056,23.92945 -11.4446,34.1556 l -4.3045,9.48893 -15.1569,0.68199 c -11.1852,0.50328 -15.6294,0.23949 -16.9603,-1.00668 -1.3983,-1.30931 -1.9097,-9.28543 -2.2766,-35.50426 -1.0683,-76.34983 -2.0039,-110.23835 -3.2527,-117.81559 -0.7251,-4.4 -1.3219,-12.88394 -1.3262,-18.85322 0,-5.96928 -1.1429,-16.46928 -2.5303,-23.33334 -1.3874,-6.86405 -2.9478,-17.2801 -3.4675,-23.14677 -0.5197,-5.86667 -2.3845,-15.09326 -4.144,-20.50352 -3.5081,-10.78675 -4.2654,-29.2788 -1.7266,-42.16315 4.1274,-20.94689 4.8733,-41.42173 3.3708,-92.52155 -0.6944,-23.61741 -1.6709,-36.14741 -3.5665,-45.76468 -1.4356,-7.28372 -2.6102,-16.65299 -2.6102,-20.82059 0,-4.1676 -0.6219,-9.67349 -1.3819,-12.23532 -0.76,-2.56182 -1.6517,-10.35786 -1.9816,-17.32453 -0.3298,-6.96667 -1.2197,-14.76667 -1.9775,-17.33333 -0.7578,-2.56667 -2.2428,-9.76667 -3.3002,-16 -1.0573,-6.23334 -2.5783,-14.93334 -3.3799,-19.33334 -0.8016,-4.4 -2.224,-12.5 -3.1609,-18 -0.9368,-5.5 -2.6054,-11.8 -3.708,-14 -1.1025,-2.2 -2.7451,-7.6 -3.6502,-12 -2.1716,-10.55616 -14.5547,-41.12551 -18.2169,-44.97069 -1.5868,-1.66612 -7.0839,-6.48939 -12.2158,-10.71838 l -9.3307,-7.68905 -0.8289,-10.97761 c -2.2917,-30.35176 -2.8676,-45.8113 -2.8676,-76.977597 0,-18.70001 0.3,-40.11466 0.6667,-47.58812 0.8094,-16.49732 -0.173,-18.36123 -7.5761,-14.3744 -2.674,1.44008 -5.9555,4.41663 -7.2922,6.61455 -4.8917,8.04383 -11.8091,36.80974 -11.7925,49.03938 0,2.36972 -1.4689,12.408587 -3.2713,22.308587 -3.7679,20.69634 -7.0745,43.52132 -8.7437,60.35616 -1.3289,13.40278 -2.0844,16.29118 -5.4802,20.95138 -2.4162,3.31576 -13.7844,34.96964 -15.8116,44.02579 -2.5226,11.26982 -5.3826,25.32503 -6.7826,33.33334 -0.8334,4.76666 -2.1441,12.26666 -2.9127,16.66666 -0.8178,4.6821 -1.2648,24.31304 -1.0778,47.33334 0.2987,36.74828 0.5259,40.05773 3.4567,50.35548 2.6169,9.19474 2.9392,12.23748 1.9439,18.35264 -0.6562,4.03176 -1.4563,7.7718 -1.778,8.31118 -0.3217,0.53938 -0.978,8.72198 -1.4585,18.18354 -0.4805,9.46156 -1.3942,21.46156 -2.0305,26.66667 -1.3459,11.01056 -0.4193,68.98654 1.1706,73.24308 0.5931,1.58808 0.7944,6.22062 0.4472,10.29454 -0.3832,4.49711 0.211,10.69434 1.5124,15.77435 1.179,4.60197 2.1436,11.01016 2.1436,14.24041 0,6.04782 1.0001,11.16808 5.6255,28.80001 2.3703,9.03541 2.5131,11.51164 1.2304,21.33333 -1.7349,13.28431 -3.3452,33.87964 -3.3706,43.11144 -0.024,8.83173 3.0989,42.91204 4.4053,48.06872 0.5669,2.23779 0.5929,5.25205 0.058,6.69836 -0.5351,1.44631 -0.3926,6.21539 0.3166,10.59795 0.8983,5.55102 0.8164,10.59744 -0.2699,16.63497 -0.9658,5.36763 -1.2798,15.26476 -0.8249,26 0.404,9.53334 0.6531,19.73334 0.5536,22.66667 -0.3527,10.39121 -0.07,17.46117 1.1244,28.09652 1.3792,12.28313 0.8493,23.23681 -1.1241,23.23681 -1.5757,0 -5.4861,-4.78653 -11.0576,-13.53493 -10.2235,-16.05316 -14.5015,-21.48836 -26.4807,-33.64412 -7.069,-7.17313 -12.8527,-13.85703 -12.8527,-14.85309 0,-0.99606 -2.55,-4.43084 -5.6667,-7.63286 -3.1166,-3.20201 -8.1202,-8.51924 -11.1189,-11.81606 -2.9988,-3.29683 -10.4988,-10.42334 -16.6667,-15.8367 -6.1679,-5.41335 -11.9899,-10.91933 -12.9378,-12.23552 -1.9795,-2.74847 -16.3432,-12.96188 -22.2766,-15.83985 -2.2,-1.06711 -6.0337,-3.2902 -8.5194,-4.9402 -2.4856,-1.65 -5.9002,-3 -7.5879,-3 -1.6877,0 -3.4749,-0.65738 -3.9714,-1.46083 -0.5104,-0.82581 -2.7181,-1.15097 -5.0787,-0.74803 -20.361,3.47546 -23.1728,4.92428 -31.5411,16.25198 -6.5424,8.8561 -11.6752,19.89798 -14.7174,31.66069 -1.9128,7.39591 -2.2522,13.37331 -1.8687,32.91351 0.2577,13.13201 1.0643,26.16529 1.7924,28.96287 1.9809,7.61142 2.4259,39.4419 0.5602,40.06382 -0.8315,0.27716 -4.3606,-3.31408 -7.8426,-7.98054 -7.5168,-10.0739 -12.3132,-13.688 -26.5587,-20.01218 -10.1,-4.4838 -11.1782,-4.6863 -20.2961,-3.81181 -11.2283,1.07692 -13.4156,2.69328 -25.477401,18.82719 -6.4896,8.68045 -8.4142,12.79912 -14.5855,31.21266 -11.1704,33.32975 -11.1585,33.1993 -10.2902,112.39727 0.8003,72.99389 0.8311,73.45969 7.3043,110.39009 3.3232,18.9588 4.4607,30.3015 5.4155,54 0.6648,16.5 1.8065,32.4 2.5372,35.3334 0.7307,2.9333 1.3429,8.2227 1.3604,11.7543 0.017,3.5315 0.5988,7.4804 1.2918,8.7753 0.693,1.2949 2.2276,9.7687 3.4102,18.8307 1.1826,9.062 2.4262,16.923 2.7636,17.4689 0.3374,0.5459 1.1319,3.5827 1.7656,6.7483 5.286701,26.4114 8.732601,40.8263 10.291901,43.0525 1.0131,1.4465 1.842,4.1549 1.842,6.0188 0,1.8638 1.119,6.45 2.4865,10.1915 1.3676,3.7415 3.2449,10.9331 4.1719,15.9813 0.927,5.0481 3.6587,15.4784 6.0705,23.1784 2.4118,7.7 5.0656,16.7 5.8973,20 0.8318,3.3 2.3165,7.8 3.2994,10 2.3523,5.2649 5.1323,16.3153 5.3669,21.3333 0.202,4.3225 0.4307,5.3312 5.743,25.3333 1.9477,7.3334 4.1883,13.9334 4.9793,14.6667 2.7695,2.5677 6.5049,16.434 4.9363,18.324 -1.0739,1.294 -0.5998,3.8191 1.8233,9.7123 1.801,4.38 4.1977,11.2637 5.3261,15.297 1.1283,4.0334 2.8773,9.4334 3.8866,12 3.8993,9.9162 6.3166,27.7996 8.7866,65.0059 2.342,35.2763 4.1329,44.8132 8.748,46.5843 1.504,0.577 3.4635,-0.5274 6.0281,-3.3976 3.4021,-3.8076 3.7331,-4.9823 3.1626,-11.2227 -0.3504,-3.8335 -0.9707,-13.5699 -1.3784,-21.6365 -0.9925,-19.6348 -3.1841,-35.7579 -6.0715,-44.6667 -4.4531,-13.7396 -6.7199,-29.3376 -4.2625,-29.3304 0.55,0 4.3,3.7516 8.3334,8.3333 9.9146,11.2626 18.9001,19.6638 21.0315,19.6638 2.4804,0 8.3018,-6.1162 8.3018,-8.7222 0,-1.1972 -3.2516,-5.4544 -7.2258,-9.4605 -3.9742,-4.006 -8.8637,-9.5037 -10.8656,-12.2172 -2.0019,-2.7135 -4.3582,-5.5335 -5.2361,-6.2668 -0.878,-0.7333 -3.8769,-5.5333 -6.6643,-10.6667 -2.7874,-5.1333 -6.6357,-11.7333 -8.5517,-14.6666 -9.9329,-15.2063 -16.281,-31.1527 -25.478,-64 -5.106,-18.2366 -7.365,-24.826 -12.9373,-37.7384 -1.0456,-2.4227 -3.9706,-12.6227 -6.5002,-22.6667 -2.5296,-10.0439 -5.8178,-21.5189 -7.3072,-25.5 -4.3589,-11.6509 -6.9013,-23.9532 -7.4593,-36.0949 -0.2865,-6.2334 -1.0371,-12.5334 -1.6679,-14 -0.6308,-1.4667 -2.1696,-7.4667 -3.4195,-13.3334 -3.6327,-17.0503 -7.525,-33.1152 -8.7223,-36 -1.255,-3.024 -3.143,-11.9586 -5.2124,-24.6666 -0.776201,-4.7667 -1.736001,-22.4667 -2.132901,-39.3334 -0.8775,-37.2985 -1.1951,-40.7138 -4.7882,-51.4856 -1.5621,-4.6829 -3.3081,-11.2144 -3.8801,-14.5144 -2.681,-15.4666 -3.9882,-24.1594 -5.1128,-34 -1.5704,-13.742 -0.827,-73.57707 1.0437,-84.00002 0.7897,-4.4 1.4393,-14.23083 1.4435,-21.84627 0,-7.61545 0.5932,-17.51545 1.3087,-22 0.7156,-4.48456 1.9342,-15.35373 2.708,-24.15373 1.9252,-21.89312 4.9306,-29.62347 15.657201,-40.27283 9.3937,-9.32599 12.5868,-10.45024 26.7859,-9.43095 14.3688,1.03148 24.4943,7.96183 34.632,23.70378 2.5975,4.03333 5.4235,7.93333 6.2801,8.66666 0.8566,0.73334 2.3489,3.43334 3.3163,6 0.9673,2.56667 2.5144,5.56667 3.438,6.66667 4.1267,4.9148 15.1277,22.88247 19.5926,32 2.6933,5.5 6.1585,15.08923 7.7003,21.3094 1.5419,6.22016 3.6018,12.82016 4.5777,14.66667 2.019,3.82044 5.2069,12.03067 5.4453,14.02393 0.088,0.73334 0.3216,1.93334 0.5197,2.66667 0.1982,0.73333 0.5444,3.13333 0.7694,5.33333 0.225,2.2 0.8365,6.04575 1.3587,8.54605 0.8542,4.08904 0.6967,4.44684 -1.5663,3.55864 -1.3837,-0.54324 -7.0159,-1.90224 -12.5159,-3.02024 -16.7905,-3.4131 -18.9858,-3.9338 -29.3333,-6.95838 -18.0203,-5.26729 -19.3122,-5.62715 -21.3333,-5.94239 -1.1,-0.17156 -3.3019,-1.02841 -4.893,-1.9041 -1.5911,-0.8757 -7.2911,-2.20187 -12.6667,-2.94706 -5.3755,-0.74518 -12.9995,-2.06229 -16.9422,-2.9269 -6.4682,-1.41848 -7.3421,-1.33458 -8.946,0.85893 -1.9202,2.62593 -1.6581,2.98859 -6.0723,-8.40397 -1.1258,-2.90575 -1.4371,-2.99368 -4.1814,-1.18139 -4.605401,3.04128 -4.628801,10.58415 -0.06,19.38572 4.3618,8.40304 6.4871,9.72954 9.2555,5.77704 2.4969,-3.56475 3.0957,-3.54649 8.7132,0.2656 2.5186,1.7092 6.512,3.7814 8.8744,4.6049 2.3623,0.8235 9.7887,4.82514 16.5032,8.89244 6.7145,4.0673 13.2238,7.3952 14.4652,7.3952 1.2414,0 3.688,1.0862 5.4369,2.4139 3.6589,2.7776 17.4656,9.5861 19.4394,9.5861 0.7299,0 2.3901,1.1745 3.6892,2.61 1.2991,1.4355 8.0181,5.3615 14.9312,8.7245 14.2092,6.9124 17.7867,9.8674 17.7867,14.6919 0,1.848 1.4198,5.6089 3.155,8.3577 1.7353,2.7488 4.9469,8.3558 7.137,12.46 3.854,7.2222 8.7001,13.4181 17.05,21.799 9.6871,9.723 10.9687,13.0889 12.2279,32.1132 0.4888,7.3849 0.1828,9.789 -1.4147,11.1148 -2.9057,2.4116 -4.6685,0.8074 -8.4103,-7.6535 -1.81,-4.0926 -4.893,-9.3518 -6.8512,-11.6871 -14.4458,-17.2279 -15.1202,-17.8639 -18.9449,-17.8639 -2.1028,0 -5.4317,-0.7328 -7.3974,-1.6284 -3.278,-1.4936 -3.8632,-1.2872 -7.0627,2.4909 -1.9188,2.2657 -5.43,5.1094 -7.8027,6.3194 -2.5332,1.2918 -4.668,3.6102 -5.1715,5.6163 -1.5095,6.0144 0.308,20.9123 3.2372,26.5352 8.6777,16.6577 10.6743,25.5098 4.0599,18 -2.2606,-2.5667 -6.3094,-7.0667 -8.9973,-10 -6.2392,-6.809 -12.1476,-14.7927 -12.1476,-16.4145 0,-0.6925 -0.9347,-2.0347 -2.0771,-2.9828 -1.1423,-0.9481 -2.9096,-3.5716 -3.9272,-5.8299 -1.0176,-2.2584 -2.7303,-5.6062 -3.806,-7.4395 -1.0756,-1.8333 -3.5221,-6.7213 -5.4367,-10.8622 -1.9145,-4.1408 -4.3966,-8.2887 -5.5157,-9.2175 -2.0049,-1.6639 -3.9239,-5.5109 -12.5969,-25.2536 -2.4161,-5.5 -6.0485,-13.3 -8.072,-17.3334 -2.0234,-4.0333 -4.2741,-10.3333 -5.0014,-14 -0.7273,-3.6666 -3.1753,-11.4666 -5.4399,-17.3333 -2.2646,-5.8667 -4.1196,-11.9035 -4.1223,-13.4153 -0.01,-3.3019 -4.9551,-8.97884 -6.822,-7.825 -2.5544,1.5786 -7.9258,15.5417 -6.5955,17.1447 1.2681,1.5279 10.8936,24.5777 16.899,40.467 8.6308,22.8358 25.252,55.3883 39.3304,77.0281 4.3174,6.6364 7.8648,12.6364 7.8829,13.3333 0.04,1.5326 13.9351,15.7748 20.5597,21.0731 5.5691,4.454 8.2733,3.9328 10.339,-1.9928 1.3446,-3.8572 1.6203,-4.0189 3.1911,-1.8708 0.9456,1.2932 2.3504,5.294 3.1217,8.8908 0.7714,3.5967 4.7069,12.0208 8.7457,18.7202 4.0387,6.6994 7.3432,12.9372 7.3432,13.8619 0,1.7794 -7.4086,8.5848 -9.3458,8.5848 -0.6277,0 -1.5008,1.1329 -1.9403,2.5176 -1.0066,3.1718 -9.2806,8.696 -18.3826,12.2733 -7.372,2.8975 -14.3123,5.8557 -19.3583,8.2514 -1.8963,0.9004 -2.5572,1.9069 -1.7694,2.6947 0.7879,0.7878 2.7424,0.2003 5.2328,-1.5731 2.6729,-1.9033 5.9935,-2.8306 10.136,-2.8306 4.3869,0 8.829,-1.3436 15.4276,-4.6666 5.0967,-2.5667 10.5163,-4.6667 12.0434,-4.6667 1.5272,0 5.4348,-1.484 8.6836,-3.2978 3.2488,-1.8138 6.6659,-3.0065 7.5937,-2.6505 3.0153,1.1571 18.3459,26.6829 18.3459,30.5464 0,0.5142 2.7,5.1087 6,10.21 3.3,5.1013 6,9.7996 6,10.4407 0,1.9804 9.5032,12.696 12.1573,13.7082 3.2146,1.226 3.1546,1.8583 -0.84,8.8458 -1.8245,3.1915 -3.3173,6.868 -3.3173,8.17 0,1.302 -0.9346,3.143 -2.077,4.0911 -1.1424,0.9481 -2.964,3.5716 -4.048,5.8299 -3.1647,6.593 -6.2197,12.0542 -7.145,12.7729 -2.7443,2.1313 -7.2986,10.4961 -10.1353,18.6152 -3.8019,10.882 -4.0769,13.614 -1.2613,12.5336 1.1,-0.4222 2,-2.1494 2,-3.8384 0,-1.6891 2.55,-6.196 5.6666,-10.0156 3.1167,-3.8196 6.6706,-8.4596 7.8975,-10.3111 1.2269,-1.8515 2.7452,-3.7303 3.3738,-4.1751 1.6533,-1.1697 18.5219,-28.0779 20.5677,-32.8086 2.3792,-5.5019 11.9627,-20.8017 14.8188,-23.6578 1.2882,-1.2882 2.3422,-2.9676 2.3422,-3.7319 0,-0.7642 0.6138,-2.1142 1.364,-3 0.7502,-0.8857 5.8617,-7.7564 11.3589,-15.2683 9.4473,-12.9096 28.1314,-33.9866 35.0574,-39.5471 3.1578,-2.5353 3.1665,-2.5332 7.0916,1.6667 2.1615,2.3128 4.4505,4.205 5.0867,4.205 0.6362,0 2.2558,-4.2855 3.5991,-9.5233 2.1579,-8.4142 3.0216,-9.8894 7.4159,-12.6667 6.9059,-4.3647 9.0982,-3.9831 14.4975,2.5234 6.4373,7.7571 15.8623,21.8508 15.8623,23.7196 0,0.8429 -2.3106,4.0258 -5.1346,7.0731 -4.7079,5.0801 -17.6472,19.4433 -24.8103,27.5406 -10.4515,11.8144 -37.8872,56.4396 -42.1182,68.5068 -1.5119,4.3121 -3.3456,10.6121 -4.0748,14 -0.7292,3.388 -1.8214,8.2599 -2.4271,10.8265 -0.6057,2.5667 -2.3666,10.9667 -3.9131,18.6667 -1.5465,7.7 -3.4208,17 -4.1651,20.6667 -5.7011,28.0837 -5.576,91.0776 0.2428,122.3186 1.8115,9.7262 3.4922,11.2155 7.9704,7.063 l 3.4267,-3.1774 -1.9521,-11.7688 c -1.4557,-8.7765 -1.7397,-17.3622 -1.1168,-33.7688 0.4593,-12.1 0.9835,-33.1 1.1649,-46.6666 0.2846,-21.2927 0.7469,-26.0346 3.3797,-34.6667 4.3223,-14.1712 5.3039,-18.4188 6.0395,-26.1336 0.3567,-3.7401 2.4429,-10.5045 4.6361,-15.0321 2.1931,-4.5276 4.4014,-10.116 4.9072,-12.4188 0.5057,-2.3028 2.5302,-7.8384 4.4988,-12.3013 1.9685,-4.4628 4.3674,-10.5797 5.3307,-13.5931 0.9633,-3.0134 3.6333,-7.534 5.9334,-10.0457 5.5909,-6.1055 19.7421,-25.9779 24.2223,-34.0151 5.3487,-9.5953 23.8422,-31.127 26.7349,-31.127 0.8381,0 5.0565,4.5847 9.3742,10.1883 4.3178,5.6035 9.5581,12.1984 11.6452,14.6552 9.9876,11.7568 54.4468,42.4487 72.872,50.3062 4.7666,2.0328 10.7666,4.8019 13.3333,6.1535 8.2826,4.3617 19.8505,7.1474 22.0612,5.3127 2.0589,-1.7087 2.5487,-6.3455 0.9184,-8.6932 -1.904,-2.7417 -7.6119,-5.9227 -10.6277,-5.9227 -1.6801,0 -4.0966,-0.5478 -5.37,-1.2174 -1.2734,-0.6696 -5.6893,-2.7766 -9.8132,-4.6822 -10.462,-4.8344 -48.1672,-30.0914 -56.3702,-37.7598 -6.6077,-6.1772 -23.7595,-24.9976 -27.1444,-29.7854 -0.9236,-1.3064 -3.3236,-4.1282 -5.3334,-6.2708 -8.2183,-8.7614 -20.3207,-25.3725 -20.3207,-27.891 0,-0.4676 -0.8476,-1.7973 -1.8836,-2.9551 -1.0359,-1.1577 -4.644,-7.439 -8.0178,-13.9584 -8.9172,-17.2308 -16.3736,-23.7134 -35.0017,-30.4307 -18.0203,-6.4981 -38.373,-15.651 -49.9967,-22.484 -4.8949,-2.8775 -9.2777,-5.2318 -9.7397,-5.2318 -1.4127,0 -17.7005,-10.1127 -22.8305,-14.1748 -8.5562,-6.7751 -10.3589,-8.2921 -20.7571,-17.4675 -5.6249,-4.9634 -10.2749,-9.7309 -10.3333,-10.5943 -0.058,-0.8634 -1.5829,-2.7314 -3.3876,-4.151 -3.4909,-2.7459 -18.052,-21.3787 -18.052,-23.0997 0,-3.2354 3.1848,-2.8246 18.6666,2.4076 32.7386,11.0643 37.8331,8.944 39.6416,-16.4991 l 1.0251,-14.4212 4,0.2611 c 2.2,0.1437 7.3,1.1952 11.3333,2.3368 4.0334,1.1415 15.4334,4.0427 25.3334,6.4471 17.4171,4.23 18.7987,4.3612 42.6666,4.0535 24.5247,-0.3163 31.6157,0.5586 34.7055,4.2815 1.2884,1.5524 0.8102,2.3516 -2.5516,4.2652 -2.2753,1.2951 -4.1408,3.1048 -4.1454,4.0214 -0.012,2.5032 2.0266,2.0219 6.2226,-1.4686 5.3157,-4.4219 9.0548,-6.198 13.0479,-6.198 7.5293,0 34.0067,16.3994 35.9716,22.2799 0.4387,1.3127 3.2034,3.4941 6.1439,4.8476 4.568,2.1026 15.1026,11.5968 43.1319,38.8725 3.0144,2.9333 7.8477,8.6333 10.7407,12.6666 2.893,4.0334 6.7914,9.2536 8.6632,11.6007 6.0793,7.6231 8.1238,10.34 10.4495,13.8867 6.5766,10.0288 9.9365,14.8658 12.1881,17.5458 1.3709,1.6318 3.9897,4.7526 5.8197,6.9352 3.0886,3.6839 3.5698,3.8384 6.7132,2.1561 1.8623,-0.9967 4.3265,-1.4513 5.476,-1.0102 1.1494,0.4411 2.0899,0.2187 2.0899,-0.4943 0,-2.058 -4.8644,-10.5823 -8.2442,-14.447 -2.95,-3.3731 -4.7416,-6.3371 -12.3378,-20.412 -1.852,-3.4314 -3.9787,-6.6168 -4.726,-7.0786 -0.7472,-0.4619 -1.3586,-1.8989 -1.3586,-3.1934 0,-2.1933 -5.1499,-9.7434 -20.9185,-30.6681 -3.5282,-4.6819 -7.0149,-9.468 -7.7482,-10.6359 -0.7333,-1.168 -2.0108,-2.7374 -2.8388,-3.4876 -0.8279,-0.7502 -5.5724,-6.764 -10.5431,-13.364 -4.9707,-6.6 -10.1433,-12.7841 -11.4946,-13.7423 -3.6652,-2.5992 -3.0806,-4.3665 3.8765,-11.7189 7.1791,-7.5871 17.5674,-15.6124 28.3333,-21.8884 4.0334,-2.3512 7.8132,-5.1094 8.3996,-6.1294 0.5864,-1.0199 2.3864,-1.8788 4,-1.9088 1.6136,-0.03 6.8338,-1.43 11.6004,-3.1114 6.9901,-2.4657 8.7557,-3.6659 9.1266,-6.2043 0.2777,-1.8997 -0.4839,-3.83734 -1.9215,-4.88854 -4.1528,-3.0367 -9.5235,-2.0482 -16.5384,3.04374 -1.1,0.7985 -5.4963,2.5189 -9.7695,3.8231 -4.2732,1.3042 -10.3767,4.3615 -13.5634,6.7939 -3.1866,2.4324 -7.7903,5.4366 -10.2305,6.6759 -2.4401,1.2392 -8.4232,5.9287 -13.2957,10.4209 -4.8725,4.4923 -10.7448,9.5819 -13.0496,11.3103 -4.8136,3.6097 -6.2955,3.1806 -17.8459,-5.168 -3.5317,-2.5526 -8.1952,-5.2487 -10.3633,-5.9913 l -3.942,-1.3502 11.0299,-12.4789 c 6.0665,-6.8634 11.63,-13.3621 12.3633,-14.4416 0.7334,-1.0794 3.3307,-4.15634 5.772,-6.83764 4.7945,-5.26578 21.4641,-30.05183 27.4901,-40.87491 2.0414,-3.66667 4.8426,-8.2593 6.2248,-10.20583 3.2556,-4.5848 3.1957,-8.6684 -0.1535,-10.46084 -1.4667,-0.78493 -2.6667,-0.90371 -2.6667,-0.26393 0,0.63977 -2.3701,3.6547 -5.2669,6.69985 -2.8968,3.04515 -5.8181,7.53292 -6.4918,9.97283 -2.8395,10.28397 -42.3406,57.35137 -58.7504,70.00397 -6.2931,4.8522 -5.4913,4.795 -22.8243,1.6284 -17.0523,-3.1153 -16.0368,-2.4777 -20.2587,-12.722 -2.1124,-5.1255 -5.615,-14.77114 -7.7838,-21.43465 -2.1687,-6.66354 -6.2858,-15.74004 -9.149,-20.17002 -7.2064,-11.1497 -10.563,-19.22556 -12.8775,-30.98317 -1.0898,-5.53554 -2.8986,-13.36462 -4.0197,-17.39795 -1.1211,-4.03333 -2.6793,-9.73333 -3.4627,-12.66667 -2.1387,-8.00732 -3.833,-12.96458 -5.6965,-16.66666 -0.9229,-1.83334 -4.5979,-12.33334 -8.1668,-23.33334 -3.5688,-11 -8.1605,-22.76636 -10.2037,-26.14746 -2.0432,-3.38111 -3.7149,-7.02652 -3.7149,-8.10091 0,-2.20285 -4.454,-6.62043 -9.0852,-9.01087 -2.3881,-1.23265 -3.5179,-1.23341 -5,-0.004 -2.6114,2.16727 -2.3582,5.28659 0.7519,9.2626 1.434,1.83334 2.6207,4.0962 2.637,5.02859 0.016,0.93239 1.4957,3.93239 3.2875,6.66667 1.7918,2.73428 4.5524,9.17141 6.1346,14.30474 1.5823,5.13334 3.9412,11.43334 5.2421,14 2.5839,5.09828 12.4028,34.39956 14.7443,44 2.9942,12.27598 3.9974,16.86459 5.3929,24.66667 1.1922,6.66543 5.5488,18.07186 10.4397,27.33334 4.0847,7.73477 9.506,18.74134 11.1646,22.66666 6.0265,14.26313 8.1233,19.77473 9.0339,23.74623 0.9086,3.9631 0.6505,4.5571 -2.5324,5.8267 -8.1365,3.2457 -35.1671,0.3125 -54.8894,-5.9562 -3.2935,-1.0469 -10.1882,-2.6474 -15.3215,-3.5568 -5.1333,-0.9094 -17.0232,-3.4641 -26.4219,-5.6771 -13.7324,-3.2333 -17.7259,-4.71084 -20.3333,-7.52294 -1.7847,-1.924 -3.2448,-4.0031 -3.2448,-4.61966 0,-0.61656 -2.0923,-4.27316 -4.6495,-8.1258 -7.1824,-10.82069 -14.9346,-28.67345 -15.9373,-36.70223 -0.4983,-3.9903 -2.4301,-12.3903 -4.2929,-18.66667 -1.8627,-6.27636 -3.6769,-12.61156 -4.0315,-14.07822 -0.3546,-1.46667 -1.1643,-3.86667 -1.7993,-5.33334 -0.635,-1.46666 -3.5967,-12.56666 -6.5814,-24.66666 -2.9847,-12.1 -7.0651,-25.2607 -9.0674,-29.246 l -3.6407,-7.246 -0.3917,10.3708 c -0.2352,6.22858 0.3827,13.11681 1.547,17.246 1.0662,3.78136 2.6463,11.22306 3.5113,16.53713 0.865,5.31407 2.1189,9.99948 2.7864,10.41203 0.6675,0.41254 1.2137,2.34461 1.2137,4.29348 0,1.94888 0.8379,5.96346 1.8621,8.92132 4.2275,12.20924 4.815,15.17141 7.2815,36.71124 0.9562,8.35009 5.8796,20.47517 12.1815,30 1.4556,2.2 3.3492,5.35 4.2081,7 0.8588,1.65 2.0652,2.99998 2.6808,2.99998 2.5634,0 0.7804,6.1861 -2.4653,8.55364 -3.482,2.5398 -3.5141,2.5372 -5.9581,-0.4811 -1.3515,-1.66904 -2.4573,-3.75154 -2.4573,-4.62784 0,-1.516 -6.1788,-17.76304 -12.2121,-32.11135 -4.4329,-10.54237 -4.8711,-11.76196 -5.7485,-16 -0.4554,-2.2 -1.4306,-6.86509 -2.1669,-10.36686 -1.1046,-5.253 -8.414,-22.01123 -13.2158,-30.29981 -0.6372,-1.1 -3.2786,-6.37622 -5.8696,-11.72494 -4.3624,-9.00542 -4.8233,-11.17571 -6.2294,-29.33334 -0.8352,-10.78461 -1.7003,-21.70838 -1.9225,-24.27505 -0.2222,-2.56667 -0.7588,-9.46667 -1.1924,-15.33333 -0.4336,-5.86667 -1.4429,-18.08928 -2.2428,-27.16138 -1.4953,-16.95834 -1.0535,-24.12262 2.1731,-35.24214 2.3792,-8.19902 12.6222,-26.26315 14.8922,-26.26315 0.9541,0 1.7347,-0.47064 1.7347,-1.04586 0,-2.91437 8.2062,-5.62081 17.0429,-5.62081 10.3485,0 15.7896,1.82719 26.9571,9.05251 9.7973,6.3388 9.7375,6.27281 8.2719,9.12362 -0.7043,1.3698 -2.5509,6.30087 -4.1036,10.95795 -1.5528,4.65708 -4.6136,10.72791 -6.8018,13.49072 -3.999,5.04915 -13.2083,9.97718 -21.6836,11.6032 -9.9436,1.90771 -16.2826,10.30027 -6.6829,8.84786 2.75,-0.41607 5.57,-1.27835 6.2667,-1.91618 0.6966,-0.63782 2.9184,-1.15968 4.9372,-1.15968 2.0189,0 5.3489,-0.72398 7.4,-1.60886 3.9611,-1.70883 14.7329,-8.62258 17.2091,-11.04544 2.588,-2.53235 7.187,-17.31482 7.187,-23.10114 0,-3.06784 0.2734,-5.57789 0.6075,-5.57789 3.6704,0 30.2127,24.07303 39.6243,35.93799 3.8081,4.80077 10.9257,12.62868 15.817,17.39534 4.8913,4.76667 11.7121,12.68607 15.1574,17.59866 3.4453,4.9126 8.8292,11.8126 11.9643,15.33333 3.135,3.52075 8.3212,10.30135 11.5248,15.06801 3.2036,4.76667 6.6217,9.47351 7.5958,10.45966 2.3396,2.3686 5.1218,7.986 6.2169,12.55245 0.8398,3.50188 1.0302,3.58179 3.9602,1.66199 1.6929,-1.10923 3.4349,-1.6599 3.8711,-1.2237 0.4362,0.4362 1.9943,0.41184 3.4624,-0.0541 1.8813,-0.59712 3.0479,-2.69933 3.9522,-7.12175 1.5286,-7.47626 0.964,-27.06033 -1.0614,-36.81709 -1.2927,-6.22676 -3.1681,-71.67747 -2.3914,-83.45746 0.7347,-11.143 -0.2001,-35.5877 -2.1161,-55.33333 -3.4057,-35.09845 -2.3729,-59.72655 2.9178,-69.57901 2.6448,-4.92523 1.7631,-12.54306 -3.0525,-26.37214 -3.4473,-9.89984 -4.7933,-16.31187 -5.315,-25.31965 -0.3842,-6.63439 -1.3186,-16.86254 -2.0765,-22.7292 -3.213,-24.8738 -4.2849,-89.37204 -1.6055,-96.61498 0.8054,-2.17732 2.8675,-3.68158 6.4008,-4.66937 4.0162,-1.12277 5.3216,-2.21372 5.6874,-4.75311 0.4913,-3.41033 -2.5538,-22.63751 -5.801,-36.62921 -4.7591,-20.50562 -7.3474,-37.56743 -7.4229,-48.93087 -0.045,-6.82136 -0.5196,-16.7632 -1.0538,-22.09299 -0.5343,-5.32978 -0.4568,-16.12978 0.1722,-24 0.629,-7.87021 1.2951,-16.70948 1.4802,-19.64281 0.1851,-2.93333 0.7371,-6.53333 1.2268,-8 0.4896,-1.46667 1.7841,-8.36667 2.8765,-15.33333 2.1535,-13.73279 4.9081,-26.33663 7.1396,-32.66667 0.7755,-2.2 2.0995,-6.7 2.9422,-10 2.0047,-7.85022 5.1541,-14.31095 9.4071,-19.29778 1.8929,-2.21956 3.8276,-5.09456 4.2992,-6.3889 1.3948,-3.82831 6.8038,-5.14692 12.5567,-3.06108 18.6471,6.76086 35.9535,22.11712 38.4094,34.08109 0.5268,2.56667 2.112,6.29955 3.5225,8.29531 1.4105,1.99574 3.1042,6.79574 3.7637,10.66667 2.8953,16.99226 4.3294,23.49598 6.6971,30.37136 1.389,4.03333 3.1247,12.13333 3.8571,18 0.7324,5.86666 2.2588,15.46666 3.3919,21.33333 1.1331,5.86667 2.0596,13.36667 2.0588,16.66667 0,8.95341 4.4262,43.86917 6.7644,53.33333 3.3429,13.53099 6.3466,111.58523 3.7577,122.66667 -0.771,3.3 -1.6296,10.8 -1.9082,16.66667 -0.2785,5.86666 -1.2499,14.56666 -2.1585,19.33333 -2.3498,12.3272 -2.03,17.73376 1.8534,31.33333 1.8847,6.6 4.1223,16.80001 4.9725,22.66667 0.8502,5.86667 2.1831,14.56667 2.9621,19.33334 0.779,4.76666 1.9191,14.96666 2.5336,22.66666 0.6145,7.7 1.7757,17.6 2.5805,22 0.8095,4.42584 1.6708,28.73555 1.9278,54.4122 0.2556,25.52672 0.8881,55.82673 1.4058,67.33334 1.0991,24.43139 10e-4,30.49761 -6.7415,37.24004 -4.283,4.283 -4.9634,8.34776 -1.3974,8.34776 0.879,0 3.6347,1.5024 6.1236,3.33867 4.9539,3.65489 8.7516,3.3755 11.735,-0.86328 1.4443,-2.05194 3.5253,-2.47536 12.1657,-2.47536 14.9069,0 21.2945,2.6684 35.8051,14.95746 5.3337,4.51712 8.2546,4.66814 12.0545,0.62327 4.3778,-4.65988 3.591,-6.97197 -4.4342,-13.03107 -7.978,-6.02342 -9.0695,-9.18493 -4.7634,-13.79706 3.9949,-4.2789 11.4858,-26.48822 16.2186,-48.08594 4.2994,-19.61972 6.1801,-26.82724 7.7805,-29.81751 0.787,-1.47061 1.431,-4.17788 1.431,-6.01614 0,-1.83827 0.6,-3.71312 1.3333,-4.16635 0.7333,-0.45323 1.3333,-2.5604 1.3333,-4.68261 0,-2.12223 0.5375,-5.23682 1.1945,-6.92132 0.657,-1.68451 1.9645,-5.76274 2.9056,-9.06274 0.9411,-3.3 2.7317,-8.1 3.9791,-10.66666 1.2474,-2.56667 2.7108,-7.36667 3.252,-10.66667 0.5413,-3.3 1.7806,-7.55725 2.7542,-9.46057 0.9734,-1.90331 2.9458,-7.90331 4.3829,-13.33334 1.4372,-5.43001 3.566,-11.67276 4.7308,-13.87276 1.1648,-2.2 2.1252,-4.9 2.1343,-6 0.01,-1.1 0.8399,-3.5783 1.8464,-5.50736 1.9416,-3.72109 6.6374,-17.80574 8.1658,-24.49264 0.5028,-2.2 1.7578,-11.8 2.7888,-21.33333 2.7048,-25.00987 3.945,-33.52123 6.3747,-43.7494 1.1867,-4.99551 2.1576,-11.07662 2.1576,-13.51356 0,-2.43695 0.8765,-7.34972 1.9479,-10.91727 1.0713,-3.56753 3.5451,-12.18644 5.4974,-19.15311 1.9523,-6.96666 3.9827,-13.26666 4.5119,-14 0.5293,-0.73333 1.7128,-4.33333 2.63,-8 0.9173,-3.66666 2.1408,-8.16666 2.719,-10 0.5781,-1.83333 1.8168,-5.88333 2.7526,-9 1.908,-6.35496 4.7035,-7.3421 6.6079,-2.33333 1.5571,4.09569 2.2185,4.13595 5.475,0.33333 6.0527,-7.0676 6.7221,-10.95008 5.2209,-30.28005 -2.4668,-31.76292 -2.0012,-52.35804 1.2823,-56.71995 0.5521,-0.73333 1.7427,-5.53333 2.6458,-10.66667 0.9032,-5.13333 2.5651,-12.93333 3.6932,-17.33333 1.1281,-4.4 2.8224,-12.5 3.7651,-18 0.9427,-5.5 2.4055,-12.7 3.2508,-16 0.8452,-3.3 2.0453,-9.3 2.6669,-13.33333 0.6215,-4.03334 1.8127,-10.03334 2.6471,-13.33334 0.8343,-3.3 1.8554,-7.8 2.2691,-10 0.4136,-2.2 1.1973,-4.6 1.7415,-5.33333 0.9789,-1.31917 3.4704,-9.04601 6.664,-20.66667 0.9069,-3.3 2.1366,-7.2 2.7327,-8.66667 0.5962,-1.46666 1.5778,-4.16666 2.1814,-6 1.4512,-4.40769 11.5915,-21.97716 19.1058,-33.10352 5.742,-8.5021 6.2699,-8.91518 11.9092,-9.31833 7.5487,-0.53964 15.2887,2.52893 22.2078,8.80436 4.3306,3.92768 6.3551,7.43076 9.7964,16.95083 2.3857,6.6 5.4547,14.4 6.82,17.33333 1.3654,2.93333 3.4366,10.13334 4.6028,16 1.1662,5.86667 2.7186,12.46667 3.4497,14.66667 3.4796,10.47031 6.8063,83.50927 4.8584,106.66667 -2.9859,35.49801 -4.1227,46.79293 -5.9715,59.33333 -1.1352,7.7 -2.5306,18.5 -3.101,24 -2.7269,26.29486 -8.122,44.33122 -17.3674,58.06074 -3.3891,5.03286 -3.6457,6.41672 -3.8316,20.66666 -0.4818,36.92658 -2.1385,55.15918 -6.0221,66.2751 -1.8294,5.23608 -3.7103,12.70255 -4.1797,16.59216 -0.4695,3.88961 -2.0227,10.67201 -3.4517,15.07201 -4.5956,14.15043 -7.664,26.55047 -7.6962,31.10198 -0.017,2.43942 -2.7314,11.34056 -6.0314,19.78029 -3.3,8.43975 -6,16.98877 -6,18.99783 0,2.00905 -1.5258,8.10792 -3.3906,13.55304 -5.212,15.21866 -7.2639,30.6452 -12.4914,93.90877 -0.6669,8.07139 -1.8127,16.17139 -2.5461,18 -0.7335,1.82862 -2.373,8.12476 -3.6433,13.99143 -1.2704,5.86667 -3.3692,13.66667 -4.6641,17.33333 -1.2948,3.66667 -3.0611,9.96667 -3.925,14 -0.864,4.03334 -2.2463,9.73334 -3.0719,12.66667 -2.0446,7.26487 -2.2442,9.79713 -2.9432,37.33333 -0.3351,13.20001 -0.8679,26.70001 -1.1841,30.00001 -1.3228,13.8048 -4.8481,37.17398 -6.6376,44.00002 -1.0574,4.0333 -1.9554,10.7852 -1.9957,15.0042 -0.04,4.219 -0.7016,10.0048 -1.4697,12.8573 -0.8643,3.2098 -1.2646,20.1036 -1.0503,44.3291 0.525,59.3434 -0.4081,177.5479 -1.4139,179.1025 -1.7384,2.687 -4.123,13.4593 -4.1809,18.8871 -0.032,3.0325 -0.8938,8.4325 -1.9143,12 -2.9769,10.4073 -7.1882,30.9008 -8.8677,43.1531 -1.5648,11.4151 -4.4198,23.7335 -6.6442,28.6667 -0.6613,1.4667 -2.7176,8.018 -4.5696,14.5585 -1.8519,6.5406 -6.3093,17.9406 -9.9051,25.3334 -3.5959,7.3928 -7.7342,16.1414 -9.1961,19.4414 -9.3699,21.1498 -12.1549,25.8922 -25.2771,43.0426 -6.04,7.8941 -11.8976,15.989 -13.0169,17.9885 -1.1193,1.9996 -2.6246,4.5356 -3.3451,5.6356 -5.7626,8.7985 -13.3228,22.1936 -13.3228,23.6053 0,0.9504 -0.5349,1.728 -1.1888,1.728 -0.6538,0 -1.5927,1.6096 -2.0865,3.5768 -0.4937,1.9672 -2.0588,5.9799 -3.4779,8.9171 -3.0441,6.3007 -3.2911,11.3575 -0.7262,14.8652 1.598,2.1855 2.3394,2.3143 5.3708,0.9331 1.9342,-0.8814 3.7194,-2.3576 3.9671,-3.2806 3.1138,-11.6057 7.7866,-22.5176 13.9658,-32.6132 12.5764,-20.5473 13.4027,-17.2141 5.5202,22.2683 -0.8053,4.0333 -1.6981,16.6333 -1.9841,28 -0.286,11.3667 -1.2067,25.7667 -2.046,32 -0.8393,6.2333 -1.7878,14.2559 -2.1077,17.8277 -0.32,3.5719 -0.9287,7.0558 -1.3528,7.742 -0.9098,1.4722 -2.8703,12.6904 -4.5024,25.7636 -0.6408,5.1334 -1.7258,11.5032 -2.4111,14.1552 -2.0997,8.1263 3.0756,12.3871 8.1863,6.7399 z m -299.5256,-383.8788 c -3.1626,-16.4886 -5.2575,-25.0245 -8.1786,-33.3242 -1.8662,-5.3026 -3.7816,-13.1026 -4.2562,-17.3333 -0.4747,-4.2307 -1.3204,-8.2921 -1.8794,-9.0254 -0.9283,-1.2178 -1.8952,-11.0776 -1.466,-14.9476 0.099,-0.8878 4.5291,-4.8717 9.8458,-8.8532 5.3166,-3.9814 14.7666,-12.4447 21,-18.8072 13.6014,-13.8834 21.7653,-19.8357 25.0434,-18.2592 11.2538,5.4121 9.9989,4.1436 15.3659,15.5338 1.7277,3.6667 4.3316,8.7667 5.7864,11.3334 1.4549,2.5666 3.6188,7.1358 4.8088,10.1538 l 2.1636,5.4871 -6.9187,7.1795 c -18.7918,19.5002 -42.2494,48.2299 -42.2494,51.7448 0,0.8339 -2.0299,3.2985 -4.5109,5.4768 -2.4809,2.1783 -6.1281,7.2662 -8.1048,11.3065 -3.8064,7.7799 -5.3017,8.3211 -6.4499,2.3344 z m 81.7322,-97.0369 c 0,-6.7819 1.6958,-7.8012 8.0146,-4.8176 6.3693,3.0074 6.5101,5.9325 0.4829,10.0282 -6.2145,4.2228 -8.4975,2.8229 -8.4975,-5.2106 z m -104.9456,4.8126 c -0.8729,-1.3978 -2.0083,-7.1892 -2.5231,-12.87 -0.8261,-9.1169 -0.6499,-10.5377 1.5024,-12.1115 1.3411,-0.9806 2.0976,-2.1237 1.6811,-2.5401 -0.4164,-0.4165 0.3728,-4.4727 1.7539,-9.0138 1.381,-4.5411 2.5156,-11.6712 2.5212,-15.8446 0.01,-4.1733 0.5714,-7.9348 1.2575,-8.3588 1.5658,-0.9677 7.2453,2.2085 21.0529,11.7736 5.9598,4.1286 11.3468,7.5066 11.9712,7.5066 0.6244,0 2.4402,0.914 4.0352,2.0312 l 2.8999,2.0312 -2.825,4.9688 c -3.4028,5.9852 -9.0124,12.2924 -10.9643,12.3278 -0.7795,0.014 -6.9784,5.1142 -13.7754,11.3334 -6.797,6.2191 -13.4027,11.3076 -14.6793,11.3076 -1.2766,0 -3.0353,-1.1437 -3.9082,-2.5414 z m 273.4497,432.1075 c 0.59,-1.7052 0.718,-3.4552 0.2844,-3.8888 -1.3822,-1.3821 -2.3537,0.6559 -1.8472,3.8748 l 0.4901,3.1145 z m 2.3328,-7.8995 c 0.094,-1.2833 0.3818,-3.5333 0.6405,-5 2.642,-14.9784 3.5274,-18.8948 5.1495,-22.7769 1.8553,-4.4405 1.2076,-6.5769 -1.4559,-4.8017 -2.0833,1.3885 -7.1709,25.1565 -7.1709,33.5008 0,2.4102 2.6567,1.5466 2.8368,-0.9222 z m -331.7257,-23.8889 c 1.455,-1.4551 1.037,-24.4444 -0.4445,-24.4444 -0.7953,0 -1.3333,5.1111 -1.3333,12.6667 0,12.67 0.1161,13.4394 1.7778,11.7777 z m 194.8377,-15.5755 c 3.8415,-2.8089 1.4841,-4.4762 -7.7228,-5.4621 -4.6627,-0.4993 -10.1843,-1.7933 -12.2702,-2.8756 -5.1874,-2.6912 -22.8001,-8.5312 -25.7291,-8.5312 -1.311,0 -3.5484,-0.8809 -4.9719,-1.9576 -1.4235,-1.0767 -3.9244,-1.9767 -5.5575,-2 -3.8838,-0.056 -7.5768,-5.6849 -6.5122,-9.9268 0.8643,-3.4436 -0.1231,-7.4489 -1.8362,-7.4489 -1.4005,0 -4.0156,10.753 -4.0156,16.5117 0,5.9077 -1.6471,6.908 -6.5781,3.9952 -3.4078,-2.0131 -4.6418,-2.0967 -9.4934,-0.6431 -3.0671,0.919 -9.4058,1.693 -14.0859,1.7199 -4.6801,0.027 -8.5093,0.3124 -8.5093,0.634 0,0.3217 2.1657,1.4899 4.8127,2.5959 3.6309,1.517 7.3142,1.7929 15,1.1232 9.286,-0.8092 10.412,-0.6392 12.7273,1.921 3.3128,3.6635 5.0629,3.544 7.5248,-0.5133 l 2.0158,-3.3221 5.1708,3.5136 c 4.6944,3.19 5.5836,3.3644 9.6511,1.8936 3.1618,-1.1434 5.7483,-1.2327 8.7889,-0.3038 2.3697,0.7239 6.6884,1.7183 9.5969,2.2098 2.9086,0.4913 6.8086,1.9501 8.6667,3.2416 7.5345,5.237 18.741,6.9785 23.3272,3.625 z m -189.4322,-96.6261 c 0.3707,-0.5999 -0.7285,-2.6031 -2.4426,-4.4516 -1.7141,-1.8487 -4.1641,-5.4079 -5.4446,-7.9095 -1.2805,-2.5016 -4.0134,-6.6937 -6.0732,-9.3157 -2.0598,-2.622 -4.9101,-7.722 -6.334,-11.3333 -2.6522,-6.7266 -9.1028,-20.2507 -13.6251,-28.566 -2.3332,-4.2902 -5.3771,-10.5343 -14.0392,-28.7996 -1.7735,-3.7398 -3.2246,-7.7543 -3.2246,-8.9214 0,-1.1669 -0.6,-2.4925 -1.3334,-2.9457 -0.7333,-0.4532 -1.3333,-2.624 -1.3333,-4.824 0,-2.2 -0.5558,-3.6565 -1.2351,-3.2367 -0.7579,0.4684 -0.7579,2.4272 0,5.0699 0.6793,2.3685 1.2351,5.6336 1.2351,7.2555 0,1.6218 1.733,6.7258 3.851,11.3421 2.1181,4.6163 4.6094,10.4932 5.5363,13.0599 0.9269,2.5666 4.6496,10.9666 8.2727,18.6666 3.623,7.7 7.2106,15.5 7.9724,17.3334 1.9178,4.6156 5.5867,11.788 8.8665,17.3333 1.518,2.5667 3.7476,6.4667 4.9546,8.6667 5.7555,10.4901 11.9762,15.4921 14.3965,11.5761 z m 384.1882,-53.0704 c 3.3471,-4.3771 7.214,-14.8411 7.085,-19.1724 -0.065,-2.1892 -0.3078,-2.536 -0.7069,-1.0104 -0.3343,1.2775 -2.9778,6.6344 -5.8745,11.9041 -5.2241,9.504 -5.5511,14.8796 -0.5036,8.2787 z m -312.3713,-57.6863 c 1.9136,-2.2742 3.9523,-7.3169 4.9862,-12.3333 2.0717,-10.0517 4.312,-14.8611 9.5011,-20.3967 4.1339,-4.4099 4.7614,-6.6995 2.26,-8.2455 -0.9779,-0.6043 -3.7561,1.4862 -7.2463,5.4525 -4.9257,5.5977 -5.8502,7.6616 -7.1227,15.9014 -1.9258,12.4695 -4.0127,19.1711 -6.2356,20.024 -2.0235,0.7766 -2.4842,3.4448 -0.5948,3.4448 0.6682,0 2.6716,-1.7312 4.4521,-3.8472 z m -47.8117,-33.5131 c 2.4156,-6.037 2.8179,-11.973 0.8115,-11.973 -0.7334,0 -1.3334,1.1267 -1.3334,2.5038 0,1.3771 -0.9,4.6579 -2,7.2905 -2.2876,5.4752 -2.5098,7.539 -0.8114,7.539 0.6537,0 2.1537,-2.4121 3.3333,-5.3603 z m 203.4781,2.3551 c 0,-0.3084 -2.25,-2.9495 -5,-5.8692 -2.75,-2.9196 -6.5,-7.2702 -8.3333,-9.6679 -4.1914,-5.4818 -11.8237,-23.9969 -13.5171,-32.791 -2.4886,-12.9241 -2.7968,-14 -4.0105,-14 -1.39,0 -3.7687,5.5284 -2.9675,6.8969 0.2887,0.4933 1.0953,3.9038 1.7923,7.579 0.697,3.6752 3.8933,12.2716 7.1029,19.1031 4.5767,9.7416 7.6168,14.1468 14.0927,20.421 7.5211,7.2869 10.8405,9.8371 10.8405,8.3281 z m 28.5574,-12.0498 c -8.3635,-5.3322 -24.6511,-20.2183 -28.0229,-25.6116 -1.3754,-2.2 -4.1529,-5.8 -6.1723,-8 -4.2874,-4.6709 -10.6519,-19.7042 -10.086,-23.8237 0.4681,-3.4081 -2.6861,-3.8461 -4.7005,-0.6527 -3.0941,4.9052 15.271,36.9024 25.9563,45.2232 3.1908,2.4847 6.1014,4.862 6.4681,5.2829 1.2358,1.4189 9.9552,7.2855 14.3229,9.6369 7.6164,4.1005 9.3657,2.4916 2.2344,-2.055 z m -69.8907,-0.2439 c 0,-0.3018 -1.197,-2.5774 -2.66,-5.0571 -1.4631,-2.4796 -3.014,-7.4639 -3.4466,-11.0762 -0.4326,-3.6123 -1.0759,-7.4678 -1.4296,-8.5678 -1.034,-3.2156 -3.1827,1.5801 -2.4539,5.4768 1.2254,6.5528 3.9409,14.5232 4.9479,14.5232 0.5732,0 1.0422,0.8358 1.0422,1.8574 0,1.0215 0.9,2.2027 2,2.6248 1.1,0.4221 2,0.5206 2,0.2189 z m 233.9115,-11.7011 c 2.938,-9.8821 4.4126,-27.103 2.2038,-25.7379 -0.7967,0.4924 -1.4573,3.4099 -1.468,6.4833 -0.011,3.0734 -0.8438,7.988 -1.8515,10.9213 -2.5267,7.3556 -3.9398,16.6667 -2.5294,16.6667 0.6421,0 2.2824,-3.75 3.6451,-8.3334 z m -489.4671,6.1111 c 1.5342,-1.5341 0.971,-3.1111 -1.1111,-3.1111 -1.1,0 -2,0.9 -2,2 0,2.0821 1.577,2.6453 3.1111,1.1111 z m 494.5556,-36.8868 c 0.55,-1.3433 1,-3.7007 1,-5.2387 0,-1.5379 0.7204,-4.7885 1.6009,-7.2234 1.1232,-3.1062 1.181,-4.8469 0.1937,-5.8343 -0.9873,-0.9873 -1.8916,0.3233 -3.031,4.3926 -1.7587,6.2817 -1.5548,18.2786 0.2364,13.9038 z m 4.6369,-26.2243 c 0,-3.3 -0.2601,-4.65 -0.5779,-3 -0.3178,1.65 -0.3178,4.35 0,6 0.3178,1.65 0.5779,0.3 0.5779,-3 z m 3.3473,-21.0701 c 0.421,-1.6099 0.2633,-3.2376 -0.3506,-3.617 -1.6964,-1.0484 -2.414,1.0394 -1.3574,3.9491 0.8965,2.4686 0.9798,2.4524 1.708,-0.3321 z m -489.6509,-3.5965 c 0.913,-1.1 2.5547,-2 3.6484,-2 1.0937,0 4.1703,-1.1427 6.8368,-2.5394 2.6665,-1.3966 9.7982,-4.834 15.8482,-7.6386 10.5679,-4.8989 14.0528,-8.4887 8.2406,-8.4887 -4.0653,0 -21.9454,7.7393 -29.7408,12.8732 -3.7248,2.4531 -7.0917,4.4601 -7.482,4.4601 -0.3903,0 -1.4591,1.2 -2.3751,2.6667 -1.4443,2.3127 -1.3316,2.6667 0.8494,2.6667 1.3831,0 3.2616,-0.9 4.1745,-2 z m 300.0001,-12.4584 c 0,-2.0735 -5.0369,-7.6083 -6.0267,-6.6225 -0.5076,0.5056 0.6408,2.4829 2.5519,4.394 1.9111,1.9111 3.4748,2.9139 3.4748,2.2285 z m 196,-41.4998 c 0,-1.7854 -0.6397,-2.3794 -2,-1.8574 -1.1,0.4222 -2,1.6033 -2,2.6249 0,1.0215 0.9,1.8573 2,1.8573 1.1004,0 2,-1.1805 2,-2.6248 z m -224.8661,-90.5004 c 1.998,-2.0855 3.9322,-5.8355 4.2981,-8.3333 0.851,-5.8089 -1.0302,-12.4271 -3.6772,-12.9371 -1.6722,-0.3222 -2.0257,1.0443 -1.9041,7.3595 0.1294,6.7227 -0.3389,8.2825 -3.5174,11.7154 -2.0167,2.1781 -3.6667,4.4163 -3.6667,4.9738 0,2.3925 5.1241,0.7112 8.4673,-2.7783 z m -27.0358,-9.1328 c 1.9397,-5.102 1.0669,-13.0753 -1.4315,-13.0753 -1.3135,0 -2.1502,1.6019 -2.4376,4.6667 -0.2406,2.5666 -1.4168,5.7532 -2.6136,7.0814 -1.8859,2.0927 -1.9165,2.5789 -0.2291,3.6462 3.317,2.0981 5.2918,1.4158 6.7118,-2.319 z m 143.2352,-5.2363 c 12.1891,-6.1307 15.8222,-8.5057 13.012,-8.5057 -0.8367,0 -1.8759,0.5738 -2.3094,1.2751 -0.4334,0.7013 -1.5593,0.9792 -2.5019,0.6175 -0.9426,-0.3618 -6.1734,1.0414 -11.624,3.1182 -7.7566,2.9553 -10.0026,4.4147 -10.3361,6.7159 -0.2343,1.617 0.066,2.9118 0.6667,2.8773 0.601,-0.034 6.4927,-2.7787 13.0927,-6.0983 z m -167.2865,-2.5622 c 1.3466,-1.6224 1.3621,-2.3963 0.073,-3.6667 -1.2787,-1.2606 -2.0386,-1.061 -3.5007,0.9196 -3.0786,4.1702 0.119,6.7332 3.4272,2.7471 z m -195.3802,-1.9435 c 1.5444,-2.4989 -0.6771,-4.0161 -3.3951,-2.3186 -1.4327,0.8947 -2.6049,2.0824 -2.6049,2.6394 0,1.4989 5.0419,1.2294 6,-0.3208 z m 122.5911,-6.9633 c 2.9584,-4.2237 2.3983,-11.7033 -0.8764,-11.7033 -0.7333,0 -0.986,0.9052 -0.5614,2.0115 1.1719,3.0539 -1.3253,8.3184 -4.4102,9.2975 -3.7805,1.1999 -3.4497,3.3576 0.5146,3.3576 1.855,0 4.1515,-1.276 5.3334,-2.9633 z m -123.2578,-7.1133 c 0,-1.6137 -1.2402,-1.9853 -5.563,-1.6667 -7.9552,0.5863 -8.4174,3.7433 -0.5481,3.7433 4.6435,0 6.1111,-0.4987 6.1111,-2.0766 z m 345.4903,-63.09989 c 5.451,-5.451 6.5047,-8.15686 3.1764,-8.15686 -1.1,0 -2,0.51606 -2,1.14682 0,0.63076 -2.1,3.37348 -4.6666,6.09494 -2.5667,2.72146 -4.6667,5.20538 -4.6667,5.51984 0,1.94073 3.7003,-0.14816 8.1569,-4.60474 z m -90.5855,3.47566 c 0.9691,-0.93544 3.6302,-2.88544 5.9137,-4.33334 5.9509,-3.77321 15.2003,-14.96405 18.1551,-21.96585 1.3927,-3.3 3.1942,-7.34909 4.0035,-8.99799 0.8093,-1.64889 1.1405,-3.32894 0.736,-3.73344 -0.7462,-0.74614 -9.0464,11.91288 -9.0464,13.797 0,1.62531 -13.3748,14.09692 -20.3333,18.96015 -3.4834,2.43448 -6.3334,5.22463 -6.3334,6.20031 0,2.25876 4.5903,2.3074 6.9048,0.0732 z m -102.4676,-15.39695 c 1.2262,-0.23711 2.2295,-1.28711 2.2295,-2.33333 0,-2.55834 -23.9679,-2.48192 -30.6667,0.0977 -2.5666,0.98841 -4.3666,1.87973 -4,1.98071 1.5368,0.42316 30.3942,0.6499 32.4372,0.25486 z m -18.1038,-15.33513 c 2.3833,-0.79855 4.3333,-2.18739 4.3333,-3.08632 0,-2.37335 -4.8009,-3.52624 -7.862,-1.88799 -1.4461,0.77396 -4.2128,1.4072 -6.1481,1.4072 -2.6307,0 -3.4072,0.58888 -3.0767,2.33333 0.5309,2.80275 6.3815,3.36874 12.7535,1.23378 z m -9.6667,-13.1274 c 2.9333,-0.6895 8.3333,-1.68847 12,-2.21994 8.5492,-1.23917 10.6669,-2.47628 8.5682,-5.00514 -2.8412,-3.42339 -13.1816,-1.78586 -27.5115,4.35681 -9.1981,3.94285 -5.0023,5.67613 6.9433,2.86827 z m -179.4647,-30.65041 c 6.0386,-1.73562 25.9046,-21.09146 24.7461,-24.11057 -1.3884,-3.61819 -4.6002,-3.82701 -7.6888,-0.49992 -12.1416,13.07936 -16.0893,16.78799 -18.6552,17.52543 -5.7989,1.66658 -14.2707,6.0018 -14.2707,7.30258 0,1.65726 9.8139,1.52272 15.8686,-0.21752 z m -1.4635,-26.85278 c 7.7414,-7.98708 3.9921,-11.25558 -4.4051,-3.84023 -7.6028,6.71377 -8.2798,8.23704 -3.6612,8.23704 2.5533,0 5.2064,-1.44613 8.0663,-4.39681 z m 294.2633,-1.69564 c 1.4676,-0.98587 5.9676,-2.63682 10,-3.66878 4.4574,-1.14072 7.3316,-2.60073 7.3316,-3.7242 0,-2.72972 -6.7127,-3.02452 -14.0705,-0.61792 -3.5368,1.15684 -7.3678,2.10335 -8.5134,2.10335 -2.8476,0 -2.6564,4.93705 0.2505,6.46977 1.5653,0.82531 3.2117,0.64024 5.0018,-0.56222 z m 253.9983,-4.34891 c 0,-1.06433 -4.3882,-3.50357 -10,-5.55864 -1.4667,-0.53709 -4.1667,-1.61716 -6,-2.40013 -9.063,-3.87062 -13.3306,-4.80262 -14.883,-3.25028 -1.1795,1.17953 -0.6796,1.88273 2.086,2.9342 2.0005,0.76058 4.4156,1.38288 5.367,1.38288 0.9514,0 6.0949,1.8 11.43,4 10.3017,4.24808 12,4.65737 12,2.89197 z m -120,-15.32632 c 0,-2.79329 -1.1965,-3.37229 -8.8224,-4.26936 -10.1802,-1.19756 -37.1088,-2.84615 -37.7972,-2.31399 -0.3407,0.26342 0.022,1.50015 0.8064,2.74831 1.1421,1.81763 4.3178,2.43296 15.9529,3.09107 7.9898,0.45193 17.9769,1.27106 22.1936,1.8203 6.4768,0.84363 7.6667,0.67658 7.6667,-1.07633 z m 69.3333,-7.36323 c 0,-2.18746 -4.4944,-4.14361 -12.9953,-5.65617 -4.2193,-0.75073 -11.4613,-2.29084 -16.0934,-3.42247 -9.0329,-2.20674 -10.1033,-2.04416 -8.8056,1.33758 1.0098,2.63157 7.0331,4.35861 21.2276,6.08653 5.8667,0.71417 12.0167,1.70303 13.6667,2.19747 1.8159,0.54417 3,0.32986 3,-0.54294 z m 2.6667,-21.374 c 0,-2.20934 -16.9199,-7.65938 -27.6631,-8.91053 -1.6481,-0.19193 -5.4697,-0.76681 -8.4925,-1.27751 -4.3217,-0.73014 -5.3694,-0.54164 -4.9034,0.8822 0.7742,2.36555 8.3906,4.97378 14.8019,5.06883 5.796,0.0859 16.4768,2.32004 19.9056,4.16369 2.9205,1.5703 6.3515,1.60991 6.3515,0.0733 z m -172,-0.68577 c 0,-2.89987 -2.3712,-3.18785 -16.6667,-2.02416 -7.3334,0.59695 -15.5834,1.11449 -18.3334,1.15009 -2.75,0.0356 -5,0.66475 -5,1.39808 0,0.82963 7.5556,1.33334 20,1.33334 16.2062,0 20.0001,-0.35232 20.0001,-1.85735 z m 166.9596,-19.78537 c -1.7309,-2.08988 -11.2017,-5.02395 -16.2167,-5.02395 -5.2835,0 -2.9273,3.73724 2.9237,4.63756 3.1167,0.47957 7.7667,1.22643 10.3334,1.65967 4.0998,0.69205 4.4593,0.5374 2.9596,-1.27328 z m -157.8961,0.1232 c -0.3246,-0.9976 -3.9111,-2.66574 -7.9701,-3.70699 -6.2008,-1.59069 -8.3834,-1.6122 -13.6606,-0.13468 -7.2313,2.02463 -6.0609,3.51851 2.9668,3.78668 3.4468,0.1024 9.1891,0.56476 12.7605,1.02748 5.1401,0.66596 6.3705,0.46327 5.9034,-0.97249 z m 12.8204,-10.29276 c 1.2394,-2.00527 -1.6479,-4.41631 -6.6889,-5.58567 -8.2982,-1.92496 -22.3232,-1.54268 -25.2735,0.68888 -1.4235,1.07667 -1.9882,1.99808 -1.2549,2.04756 6.7081,0.45264 27.2982,2.65825 29.6386,3.17489 1.6346,0.36083 3.245,0.21427 3.5787,-0.32566 z m -256.1008,-35.46228 c 6.5883,-4.9925 11.3624,-15.39211 7.066,-15.39211 -2.4247,0 -14.1825,12.66453 -14.1825,15.27621 0,2.54239 3.832,2.60479 7.1165,0.11587 z m 486.2169,-171.20646 c 0,-0.63123 -4.35,-2.47316 -9.6667,-4.0932 -5.3167,-1.62004 -11.2304,-3.4423 -13.1417,-4.04947 -3.6699,-1.16591 -7.9282,0.26575 -5.4133,1.82001 0.768,0.47464 5.9506,2.34965 11.5169,4.16667 10.352,3.37926 16.7048,4.19916 16.7048,2.15599 z m 12.3276,-17.85232 c 1.0057,-2.73479 -0.3825,-5 -3.064,-5 -1.3828,0 -8.3828,-1.85146 -15.5556,-4.11435 -20.33,-6.4138 -20.8966,-6.55232 -26.8027,-6.55232 -6.5207,0 -7.9567,3.49867 -1.9053,4.64192 16.6398,3.14368 31.5677,7.20541 39.8681,10.84773 5.1882,2.27662 6.6744,2.31188 7.4595,0.17702 z m -276.3277,-31.40922 c 0,-2.3473 -1.1392,-2.83388 -8.4745,-3.61941 -9.5638,-1.0242 -13.0817,-0.64071 -13.7956,1.50388 -0.2955,0.88763 2.3159,1.82691 6.5562,2.35812 3.876,0.48559 8.9973,1.23983 11.3806,1.67608 3.7285,0.68251 4.3333,0.41471 4.3333,-1.91867 z m 20.9252,-17.11693 c 1.417,-3.6926 -2.929,-5.39028 -17.947,-7.01061 -18.8088,-2.02932 -35.4077,-2.06703 -50.9782,-0.11574 -13.9285,1.74547 -14.6666,1.97906 -14.6666,4.6414 0,3.05254 4.7246,3.59622 17.7435,2.04179 13.6218,-1.62641 45.5404,-0.85051 52.9144,1.28631 6.928,2.0076 11.966,1.6792 12.9339,-0.84308 z M 738.78752,438.316 c 0,-1.78731 -4.3446,-5.08459 -8,-6.07155 -14.9203,-4.02845 -28.8945,-7.47608 -30.3028,-7.47608 -3.1872,0 -1.7059,4.06284 1.9694,5.40168 2.0167,0.73463 5.4667,2.16725 7.6667,3.1836 8.3971,3.87924 28.6667,7.38801 28.6667,4.96235 z m -296.3334,-70.48861 c 1.65,-0.31781 3,-1.15094 3,-1.85142 0,-2.29094 -5.7563,-3.53067 -21,-4.52279 -20.9654,-1.36452 -19.7648,2.91716 1.6667,5.94413 9.6515,1.36318 11.2678,1.40574 16.3333,0.43008 z"
     id="path12"
     inkscape:connector-curvature="0" />
</svg>
