<svg xmlns="http://www.w3.org/2000/svg" viewBox="2829 782 230.8 212.2">
  <defs>
    <style>
      .cls-1 {
        fill: #ff4c4e;
      }
    </style>
  </defs>
  <g id="ILUSTRACION_DESARROLLO_WEB" transform="translate(2695 53)">
    <path id="Path_167" data-name="Path 167" class="cls-1" d="M225.2,33.2H147a17.761,17.761,0,0,0-15.8-12.8,22.751,22.751,0,0,0,.2-2.6,17.8,17.8,0,0,0-35.6,0,21.116,21.116,0,0,0,.2,2.6,17.773,17.773,0,0,0,1.3,35.5h14V71.8H60.6a12.035,12.035,0,0,0-12,12V136a8.457,8.457,0,0,0-7.6,8.4h0v4a5.5,5.5,0,0,1-11,0v-4a8.5,8.5,0,0,0-17,0v27.8H11.5A11.566,11.566,0,0,0,0,183.7v17a11.566,11.566,0,0,0,11.5,11.5h6A11.566,11.566,0,0,0,29,200.7v-17a11.566,11.566,0,0,0-11.5-11.5H16V144.4a5.5,5.5,0,0,1,11,0v4a8.5,8.5,0,0,0,17,0h0v-4a5.483,5.483,0,0,1,4.6-5.4v29.9H38v6a11.566,11.566,0,0,0,11.5,11.5H198a11.566,11.566,0,0,0,11.5-11.5v-6H198.9v-56h26.3a5.591,5.591,0,0,0,5.6-5.6V38.8A5.591,5.591,0,0,0,225.2,33.2ZM26,183.7v17a8.493,8.493,0,0,1-8.5,8.5h-6A8.493,8.493,0,0,1,3,200.7v-17a8.493,8.493,0,0,1,8.5-8.5h6A8.493,8.493,0,0,1,26,183.7ZM227.8,38.8v5.6H114.5V38.8a2.647,2.647,0,0,1,2.6-2.6H225.3A2.63,2.63,0,0,1,227.8,38.8ZM97.4,52.9a14.8,14.8,0,1,1,0-29.6h.4a1.656,1.656,0,0,0,1.2-.5,1.592,1.592,0,0,0,.3-1.3,15.012,15.012,0,0,1-.5-3.7,14.8,14.8,0,0,1,29.6,0,15.012,15.012,0,0,1-.5,3.7,1.442,1.442,0,0,0,.3,1.3,1.457,1.457,0,0,0,1.2.5h.4a14.8,14.8,0,0,1,13.9,9.9H117a5.591,5.591,0,0,0-5.6,5.6V52.9ZM51.6,83.8a9.026,9.026,0,0,1,9-9h50.8v32.6A5.591,5.591,0,0,0,117,113h78.9v56H51.6ZM143,171.9a.9.9,0,0,0-.1.5,3.691,3.691,0,0,1-3.7,3.7H108.5a3.691,3.691,0,0,1-3.7-3.7.9.9,0,0,0-.1-.5Zm63.5,0v3a8.493,8.493,0,0,1-8.5,8.5H49.5a8.493,8.493,0,0,1-8.5-8.5v-3h60.8a.9.9,0,0,0-.1.5,6.7,6.7,0,0,0,6.7,6.7h30.7a6.7,6.7,0,0,0,6.7-6.7.9.9,0,0,0-.1-.5Zm18.7-62H117a2.647,2.647,0,0,1-2.6-2.6V47.4H227.7v59.9A2.442,2.442,0,0,1,225.2,109.9Z" transform="translate(134 729)"/>
    <circle id="Ellipse_39" data-name="Ellipse 39" class="cls-1" cx="1.4" cy="1.4" r="1.4" transform="translate(251.2 768.2)"/>
    <circle id="Ellipse_40" data-name="Ellipse 40" class="cls-1" cx="1.4" cy="1.4" r="1.4" transform="translate(257 768.2)"/>
    <circle id="Ellipse_41" data-name="Ellipse 41" class="cls-1" cx="1.4" cy="1.4" r="1.4" transform="translate(262.8 768.2)"/>
    <path id="Path_168" data-name="Path 168" class="cls-1" d="M168.1,55.1a8.018,8.018,0,0,0-5.7-2.4,7.629,7.629,0,0,0-5.7,2.4,8.149,8.149,0,0,0,0,11.4l11.8,11.8L156.7,90.1a8,8,0,0,0,5.7,13.7,8.1,8.1,0,0,0,5.7-2.3l17.4-17.4a7.928,7.928,0,0,0,2.3-5.7,8.1,8.1,0,0,0-2.3-5.7Zm14.3,25.7a3.744,3.744,0,0,1-5.2,0l-2.6-2.6,2.6-2.6a3.631,3.631,0,0,1,2.6-1.1h0a3.7,3.7,0,0,1,2.6,6.3ZM158.8,64.3a4.951,4.951,0,0,1,0-7.1,5.145,5.145,0,0,1,3.6-1.5,4.91,4.91,0,0,1,3.6,1.5l14.4,14.4h-.5a6.345,6.345,0,0,0-4.7,2l-3.6,3.6Zm7.1,34.9a5.145,5.145,0,0,1-3.6,1.5,4.91,4.91,0,0,1-3.6-1.5,5.145,5.145,0,0,1-1.5-3.6,4.91,4.91,0,0,1,1.5-3.6l12.7-12.7,3.6,3.6a6.412,6.412,0,0,0,4.7,1.9h.5Z" transform="translate(134 729)"/>
    <path id="Path_169" data-name="Path 169" class="cls-1" d="M95.1,139.3a1.929,1.929,0,0,0,1-.3l12.1-10,9.9,9.9a1.45,1.45,0,0,0,2.1,0l17.5-16.1,6.7,7.4a1.389,1.389,0,0,0,1,.5,1.5,1.5,0,0,0,1.1-.4l10.9-10.1a1.487,1.487,0,1,0-2-2.2l-9.8,9.1-6.7-7.4a1.389,1.389,0,0,0-1-.5,1.5,1.5,0,0,0-1.1.4l-17.6,16.1-9.8-9.8a1.52,1.52,0,0,0-2-.1L94.2,136.7a1.55,1.55,0,0,0-.2,2.1A1.433,1.433,0,0,0,95.1,139.3Z" transform="translate(134 729)"/>
    <path id="Path_170" data-name="Path 170" class="cls-1" d="M20.2,71.5h.1a1.52,1.52,0,0,0,1.5-1.4,27.274,27.274,0,0,1,10-18.8A28.1,28.1,0,0,1,52.1,45a1.5,1.5,0,1,0,.2-3A30.695,30.695,0,0,0,18.8,69.7,1.68,1.68,0,0,0,20.2,71.5Z" transform="translate(134 729)"/>
    <path id="Path_171" data-name="Path 171" class="cls-1" d="M52.9,53a1.4,1.4,0,0,0-1.3-1.6,21.7,21.7,0,0,0-15.7,4.8,21.323,21.323,0,0,0-7.7,14.5,1.417,1.417,0,0,0,1.4,1.6h.1a1.52,1.52,0,0,0,1.5-1.4A18.516,18.516,0,0,1,51.3,54.2,1.235,1.235,0,0,0,52.9,53Z" transform="translate(134 729)"/>
    <path id="Path_172" data-name="Path 172" class="cls-1" d="M42.2,63.9a11.363,11.363,0,0,0-4.1,7.8,1.417,1.417,0,0,0,1.4,1.6h.1a1.52,1.52,0,0,0,1.5-1.4,8.245,8.245,0,0,1,3-5.7,8.676,8.676,0,0,1,6.2-1.9,1.5,1.5,0,1,0,.2-3A11.632,11.632,0,0,0,42.2,63.9Z" transform="translate(134 729)"/>
    <path id="Path_173" data-name="Path 173" class="cls-1" d="M78,102.6a1.222,1.222,0,0,0,.9-.4l4.3-4.3v41.6A11.566,11.566,0,0,0,94.7,151h66.2l-4.1,5.1a1.285,1.285,0,0,0,.2,1.8,1.136,1.136,0,0,0,.8.3,1.389,1.389,0,0,0,1-.5l6-7.3a1.285,1.285,0,0,0-.2-1.8l-7.2-6a1.281,1.281,0,1,0-1.6,2l4.3,3.5H94.6a8.493,8.493,0,0,1-8.5-8.5V97.9l4.4,4.3a1.273,1.273,0,1,0,1.8-1.8l-6.8-6.7a1.268,1.268,0,0,0-1.8,0l-6.6,6.7a1.3,1.3,0,0,0,.9,2.2Z" transform="translate(134 729)"/>
    <path id="Path_174" data-name="Path 174" class="cls-1" d="M14.5,188.2a1.538,1.538,0,0,0,1.5-1.5v-7a1.5,1.5,0,0,0-3,0v7A1.417,1.417,0,0,0,14.5,188.2Z" transform="translate(134 729)"/>
  </g>
</svg>
