<svg xmlns="http://www.w3.org/2000/svg" viewBox="2944.085 2023.817 125.951 105.717">
  <defs>
    <style>
      .cls-1 {
        fill: #fafafa;
      }

      .cls-2, .cls-3, .cls-4 {
        fill: none;
        stroke-width: 2px;
      }

      .cls-2, .cls-4 {
        stroke: #fafafa;
        stroke-miterlimit: 10;
      }

      .cls-2, .cls-3 {
        stroke-linecap: round;
      }

      .cls-2 {
        stroke-linejoin: round;
      }

      .cls-3 {
        stroke: #fafafa;
      }
    </style>
  </defs>
  <g id="ILUSTRACION_IU_UX" transform="translate(2100.085 -813.97)">
    <g id="Group_1197" data-name="Group 1197" transform="translate(845 2838.788)">
      <ellipse id="Ellipse_174" data-name="Ellipse 174" class="cls-1" cx="1.229" cy="1.229" rx="1.229" ry="1.229" transform="translate(5.98 18.269)"/>
      <ellipse id="Ellipse_175" data-name="Ellipse 175" class="cls-1" cx="1.229" cy="1.229" rx="1.229" ry="1.229" transform="translate(11.141 18.269)"/>
      <ellipse id="Ellipse_176" data-name="Ellipse 176" class="cls-1" cx="1.229" cy="1.229" rx="1.229" ry="1.229" transform="translate(16.303 18.269)"/>
      <path id="Path_1060" data-name="Path 1060" class="cls-2" d="M73.8,93.688H25.462A6.049,6.049,0,0,1,19.4,87.626V80.662A6.049,6.049,0,0,1,25.462,74.6H73.8a6.049,6.049,0,0,1,6.062,6.062v6.882A6.173,6.173,0,0,1,73.8,93.688Z" transform="translate(-4.736 -14.713)"/>
      <rect id="Rectangle_611" data-name="Rectangle 611" class="cls-2" width="25.397" height="19.662" transform="translate(14.664 32.524)"/>
      <line id="Line_215" data-name="Line 215" class="cls-2" x2="25.151" transform="translate(49.974 32.524)"/>
      <line id="Line_216" data-name="Line 216" class="cls-2" x2="25.151" transform="translate(49.974 38.914)"/>
      <path id="Path_1061" data-name="Path 1061" class="cls-3" d="M0,0H25.151" transform="translate(49.974 45.222)"/>
      <line id="Line_217" data-name="Line 217" class="cls-2" x2="25.151" transform="translate(49.974 51.613)"/>
      <path id="Path_1062" data-name="Path 1062" class="cls-2" d="M25.2,62.692a8.192,8.192,0,0,1,16.385,0" transform="translate(-5.785 -11.08)"/>
      <ellipse id="Ellipse_177" data-name="Ellipse 177" class="cls-2" cx="3.031" cy="3.031" rx="3.031" ry="3.031" transform="translate(24.33 35.391)"/>
      <path id="Path_1063" data-name="Path 1063" class="cls-2" d="M40.714,89.211,36.7,85.2l4.014-4.1" transform="translate(-7.863 -15.888)"/>
      <path id="Path_1064" data-name="Path 1064" class="cls-2" d="M73.2,81.2l4.014,4.014L73.2,89.229" transform="translate(-14.461 -15.906)"/>
      <line id="Line_218" data-name="Line 218" class="cls-2" x2="33.917" transform="translate(28.837 69.308)"/>
      <g id="Group_1196" data-name="Group 1196" transform="translate(80.286 30.476)">
        <g id="Group_1194" data-name="Group 1194">
          <path id="Path_1065" data-name="Path 1065" class="cls-4" d="M99.6,103.748V46.892a8.217,8.217,0,0,1,8.192-8.192h27.2a8.217,8.217,0,0,1,8.192,8.192v56.856a8.217,8.217,0,0,1-8.192,8.192h-27.2A8.217,8.217,0,0,1,99.6,103.748Z" transform="translate(-99.518 -38.7)"/>
          <path id="Path_1066" data-name="Path 1066" class="cls-4" d="M143.348,115.9H99.6" transform="translate(-99.518 -52.654)"/>
          <line id="Line_219" data-name="Line 219" class="cls-4" x1="43.748" transform="translate(0 9.667)"/>
          <circle id="Ellipse_178" data-name="Ellipse 178" class="cls-2" cx="2.212" cy="2.212" r="2.212" transform="translate(18.733 68.071) rotate(-45)"/>
        </g>
        <line id="Line_220" data-name="Line 220" class="cls-2" x2="21.136" transform="translate(11.715 39.324)"/>
        <line id="Line_221" data-name="Line 221" class="cls-2" x2="21.136" transform="translate(11.715 44.649)"/>
        <line id="Line_222" data-name="Line 222" class="cls-2" x2="21.136" transform="translate(11.715 49.974)"/>
        <line id="Line_223" data-name="Line 223" class="cls-2" x2="21.136" transform="translate(11.715 55.299)"/>
        <g id="Group_1195" data-name="Group 1195" transform="translate(11.551 16.713)">
          <rect id="Rectangle_612" data-name="Rectangle 612" class="cls-2" width="21.382" height="16.549"/>
          <path id="Path_1067" data-name="Path 1067" class="cls-2" d="M118.5,77.782a6.882,6.882,0,1,1,13.763,0" transform="translate(-114.486 -61.233)"/>
          <ellipse id="Ellipse_179" data-name="Ellipse 179" class="cls-2" cx="2.54" cy="2.54" rx="2.54" ry="2.54" transform="translate(8.192 2.458)"/>
        </g>
      </g>
      <path id="Path_1068" data-name="Path 1068" class="cls-4" d="M91.043,35.284V25.862A6.049,6.049,0,0,0,84.981,19.8H7.562A6.049,6.049,0,0,0,1.5,25.862V84.52a6.049,6.049,0,0,0,6.062,6.062H81.868" transform="translate(-1.5 -4.808)"/>
      <line id="Line_224" data-name="Line 224" class="cls-4" x2="89.543" transform="translate(0 24.004)"/>
      <ellipse id="Ellipse_180" data-name="Ellipse 180" class="cls-1" cx="1.229" cy="1.229" rx="1.229" ry="1.229" transform="translate(14.09 3.277)"/>
      <ellipse id="Ellipse_181" data-name="Ellipse 181" class="cls-1" cx="1.229" cy="1.229" rx="1.229" ry="1.229" transform="translate(19.252 3.277)"/>
      <ellipse id="Ellipse_182" data-name="Ellipse 182" class="cls-1" cx="1.229" cy="1.229" rx="1.229" ry="1.229" transform="translate(24.413 3.277)"/>
      <path id="Path_1069" data-name="Path 1069" class="cls-4" d="M11.4,16.492V7.562A6.049,6.049,0,0,1,17.462,1.5H94.881a6.049,6.049,0,0,1,6.062,6.062V31.976" transform="translate(-3.29 -1.5)"/>
      <line id="Line_225" data-name="Line 225" class="cls-4" x2="89.543" transform="translate(8.109 9.012)"/>
      <path id="Path_1070" data-name="Path 1070" class="cls-2" d="M130.9,12.5h4.834a6.049,6.049,0,0,1,6.062,6.062V30.933" transform="translate(-24.891 -3.488)"/>
      <line id="Line_226" data-name="Line 226" class="cls-2" x2="1.475" transform="translate(101.422 9.012)"/>
      <line id="Line_227" data-name="Line 227" class="cls-2" y2="12.698" transform="translate(45.795 85.775)"/>
      <line id="Line_228" data-name="Line 228" class="cls-2" x2="25.97" transform="translate(32.77 98.473)"/>
    </g>
  </g>
</svg>
