<?xml version="1.0" encoding="UTF-8" standalone="no"?>
<!-- Created with Inkscape (http://www.inkscape.org/) -->

<svg
   xmlns:dc="http://purl.org/dc/elements/1.1/"
   xmlns:cc="http://creativecommons.org/ns#"
   xmlns:rdf="http://www.w3.org/1999/02/22-rdf-syntax-ns#"
   xmlns:svg="http://www.w3.org/2000/svg"
   xmlns="http://www.w3.org/2000/svg"
   xmlns:sodipodi="http://sodipodi.sourceforge.net/DTD/sodipodi-0.dtd"
   xmlns:inkscape="http://www.inkscape.org/namespaces/inkscape"
   version="1.1"
   id="svg3767"
   width="650"
   height="690"
   viewBox="0 0 650 690"
   sodipodi:docname="fire.svg"
   inkscape:version="0.92.4 (5da689c313, 2019-01-14)">
  <metadata
     id="metadata3773">
    <rdf:RDF>
      <cc:Work
         rdf:about="">
        <dc:format>image/svg+xml</dc:format>
        <dc:type
           rdf:resource="http://purl.org/dc/dcmitype/StillImage" />
        <dc:title></dc:title>
      </cc:Work>
    </rdf:RDF>
  </metadata>
  <defs
     id="defs3771" />
  <sodipodi:namedview
     pagecolor="#ffffff"
     bordercolor="#666666"
     borderopacity="1"
     objecttolerance="10"
     gridtolerance="10"
     guidetolerance="10"
     inkscape:pageopacity="0"
     inkscape:pageshadow="2"
     inkscape:window-width="1366"
     inkscape:window-height="704"
     id="namedview3769"
     showgrid="false"
     inkscape:zoom="0.34291444"
     inkscape:cx="435.11723"
     inkscape:cy="336.03589"
     inkscape:window-x="0"
     inkscape:window-y="27"
     inkscape:window-maximized="1"
     inkscape:current-layer="svg3767" />
  <path
     style="fill:#000000;fill-opacity:1;stroke-width:1.27140009"
     d="m 476.97235,687.51532 c -21.06854,-6.93685 -36.30562,-9.87694 -40.23858,-7.76431 -1.65521,0.88912 -4.05488,0.96891 -6.85274,0.2279 -2.36806,-0.62718 -7.73203,-1.41184 -11.91992,-1.7437 -7.07115,-0.56031 -23.35662,-5.43102 -33.6637,-10.06823 -2.42443,-1.09078 -8.69114,-3.43002 -13.92601,-5.19833 -12.97497,-4.38287 -17.09375,-6.14529 -36.16818,-15.47644 -9.07377,-4.43884 -22.54535,-10.92867 -29.93683,-14.42182 -15.32623,-7.24307 -33.71183,-19.12925 -63.43193,-41.00838 -16.7195,-12.30845 -27.48119,-21.00202 -38.97408,-31.48433 -5.08426,-4.63721 -11.07942,-9.79033 -13.32258,-11.45138 -2.24314,-1.66105 -7.2205,-6.36037 -11.06081,-10.44294 -3.8403,-4.08256 -14.85928,-15.71516 -24.48664,-25.85024 -9.62735,-10.13506 -19.82271,-21.53158 -22.65638,-25.32561 -2.83365,-3.79403 -7.86227,-9.78141 -11.17472,-13.3053 -3.31243,-3.52387 -7.50413,-8.7626 -9.31489,-11.64161 -2.90482,-4.61853 -11.4663,-16.14252 -28.18386,-37.93628 -2.79192,-3.63968 -8.6512,-11.44714 -13.0206,-17.34992 -8.13102,-10.98452 -14.95837,-19.46375 -29.503697,-36.64225 -4.542847,-5.36523 -9.788051,-11.76111 -11.656014,-14.21307 -4.925183,-6.46499 -21.4301316,-23.334 -25.1184386,-25.67251 -2.73715994,-1.73545 -2.92675694,-2.27682 -1.43093699,-4.08582 3.37905999,-4.08657 8.11828099,-2.50735 17.63267259,5.8756 8.470178,7.46291 24.456066,25.50804 34.543194,38.99291 2.44293,3.26582 6.13139,7.82165 8.19655,10.12406 4.11696,4.5899 9.36131,11.38003 25.49543,33.01032 5.86668,7.86517 11.67921,15.35606 12.916729,16.64637 2.530141,2.63807 4.392261,5.21064 14.940001,20.63999 4.07077,5.95476 8.67911,12.2598 10.24074,14.01119 1.56164,1.75142 8.59826,9.86915 15.63692,18.03944 7.03866,8.17028 13.24223,15.0485 13.78572,15.28494 0.54349,0.23644 4.99302,5.01537 9.88784,10.61985 11.37948,13.02925 25.11663,26.80018 32.35078,32.43032 3.11505,2.42435 9.09017,7.67386 13.27807,11.66559 18.67551,17.80074 68.10835,53.70297 88.83412,64.51871 5.58386,2.91395 22.08505,11.07801 36.66931,18.1424 l 26.51684,12.84433 5.20963,-1.65529 c 4.22505,-1.34244 5.47752,-2.48715 6.62704,-6.05688 1.66642,-5.17479 4.33322,-6.69191 4.20415,-2.39171 -0.14077,4.69079 -1.59956,7.32954 -5.45564,9.86844 -1.96879,1.29626 -3.03578,2.69421 -2.37108,3.10652 0.66468,0.41231 6.70475,2.14952 13.42236,3.86046 6.71761,1.71091 16.07908,4.85884 20.80327,6.99535 7.11862,3.21942 22.98933,7.34834 23.85071,6.20502 0.13055,-0.17328 0.59429,-2.19617 1.03054,-4.49529 0.70443,-3.71253 0.40537,-4.3265 -2.67309,-5.48778 -6.89318,-2.60029 -17.53237,-7.94823 -22.50215,-11.31103 -2.79194,-1.88917 -7.64609,-4.81558 -10.78701,-6.50315 -3.14092,-1.68757 -7.99507,-4.86274 -10.787,-7.05594 -2.79192,-2.19319 -9.64484,-6.90644 -15.2287,-10.47386 -5.58387,-3.56743 -10.81395,-7.05282 -11.6224,-7.7453 -0.80846,-0.6925 -4.52046,-3.26238 -8.24889,-5.71088 -3.72842,-2.44848 -9.44372,-6.63058 -12.70066,-9.29356 -3.25694,-2.66298 -11.38023,-9.28304 -18.05175,-14.71126 -6.67153,-5.42823 -15.4942,-13.30953 -19.60591,-17.514 -4.11171,-4.20449 -8.40934,-7.64452 -9.55028,-7.64452 -1.43925,0 -2.07441,-1.12226 -2.07441,-3.66527 0,-7.67621 1.82245,-7.47757 27.96894,3.04839 25.51528,10.27184 32.00319,13.05931 49.2002,21.13845 5.79894,2.72434 11.22416,4.96593 12.05605,4.98132 0.83189,0.0154 4.08236,1.21729 7.22328,2.67089 8.16768,3.77993 23.40018,8.24934 43.14801,12.66017 9.42276,2.10464 20.84429,4.93999 25.38117,6.30074 4.53689,1.36077 11.24016,3.10845 14.89617,3.88375 6.28293,1.33238 7.01329,1.20519 13.32512,-2.32083 3.6728,-2.05175 11.10368,-5.64046 16.51304,-7.97491 5.40937,-2.33445 9.83076,-4.57075 9.82531,-4.96958 -0.0114,-0.84642 -3.23897,-2.4643 -17.12239,-8.58337 -5.58387,-2.46105 -12.43678,-5.52208 -15.22871,-6.80227 -2.79194,-1.28019 -12.2147,-5.56366 -20.93947,-9.5188 -8.72479,-3.95516 -23.0017,-11.11681 -31.72648,-15.91478 -8.72477,-4.79798 -19.14692,-10.49299 -23.16032,-12.65558 -22.31093,-12.0221 -21.65975,-11.62148 -47.27245,-29.0826 -7.54166,-5.14143 -8.94298,-6.67481 -9.27783,-10.15213 -0.33592,-3.48845 0.0899,-4.21801 2.87186,-4.91878 1.79646,-0.45254 3.97272,-0.28276 4.83614,0.3773 0.8634,0.66008 10.13598,3.95402 20.60571,7.31987 10.46974,3.36585 21.60573,7.12844 24.74665,8.36131 5.70553,2.2395 28.42205,7.95269 47.58971,11.96879 5.58386,1.16995 12.15124,2.63145 14.59418,3.24778 6.06131,1.5292 23.86546,4.69111 36.16818,6.42323 54.56646,7.68253 69.97844,9.60281 86.61327,10.79172 12.1883,0.87112 15.48734,-0.46049 7.60755,-3.07066 -2.74409,-0.90896 -5.2325,-3.19841 -7.41102,-6.81843 -3.1515,-5.2368 -3.97028,-5.70435 -20.93269,-11.95329 -9.70907,-3.57683 -25.36241,-8.92565 -34.78517,-11.8863 -25.72427,-8.0826 -38.27951,-12.38614 -56.47312,-19.35722 -9.07377,-3.47672 -23.63622,-8.78015 -32.361,-11.78541 -8.72478,-3.00527 -21.99538,-8.10751 -29.49021,-11.33833 -7.49484,-3.23082 -16.63206,-6.78127 -20.30495,-7.88987 -3.67288,-1.1086 -10.67549,-3.98883 -15.56138,-6.40052 -4.88587,-2.41167 -9.82169,-4.38448 -10.96848,-4.38402 -2.19639,9.3e-4 -3.62569,-2.48955 -3.62569,-6.3175 0,-3.51909 6.3681,-5.54744 14.2137,-4.5273 3.69918,0.48099 19.57499,3.48357 35.2796,6.67239 28.79135,5.8461 47.32396,9.02985 53.46185,9.18434 3.18939,0.0803 3.30722,-0.15472 2.71625,-5.41719 -0.55856,-4.97383 -0.23019,-5.82847 3.4259,-8.91623 6.1425,-5.18764 8.87088,-4.32232 3.72068,1.18005 -2.16969,2.31805 -2.50904,3.78343 -1.82176,7.86649 l 0.84463,5.01775 7.86543,0.73722 c 4.32598,0.40545 8.81361,1.10239 9.97252,1.54874 1.29844,0.5001 3.16442,-0.24969 4.86225,-1.95379 2.1867,-2.19477 2.58783,-3.66053 1.94421,-7.10408 -0.90053,-4.8179 0.36877,-5.53656 3.54906,-2.0094 2.49005,2.76163 2.67183,5.70288 0.56198,9.09372 -2.0552,3.30308 -1.20045,3.8937 6.84036,4.72665 l 6.83833,0.70838 4.79604,-5.87452 c 2.63781,-3.23099 4.45071,-6.43531 4.02869,-7.1207 -0.42204,-0.68539 -3.17031,-1.83943 -6.10726,-2.56457 -7.77391,-1.91935 -36.60848,-9.9719 -49.12246,-13.7183 -5.93284,-1.77615 -13.92792,-3.96666 -17.76682,-4.8678 -30.99026,-7.27459 -54.21213,-15.62855 -78.68165,-28.30538 -11.51671,-5.96639 -24.93701,-13.54039 -29.82288,-16.83108 -11.90967,-8.0213 -16.58539,-10.36553 -24.11213,-12.08889 -6.05893,-1.38726 -6.36284,-1.66063 -6.73422,-6.057 -0.52455,-6.20993 2.79052,-8.13633 10.60353,-6.16173 3.02693,0.76501 8.81985,1.39102 12.87316,1.39115 4.05331,1.2e-4 11.93827,0.88018 17.52212,1.95571 27.63785,5.32341 108.65353,9.23273 104.47765,5.04143 -0.26348,-0.26445 -4.04606,-1.0574 -8.40573,-1.76209 -4.3597,-0.70471 -11.48369,-2.94828 -15.83112,-4.98573 -4.34744,-2.03743 -11.04536,-4.70064 -14.88426,-5.91824 -7.11862,-2.25781 -16.3565,-5.72546 -31.10866,-11.67733 l -8.26559,-3.33481 -2.61351,3.33481 c -2.70432,3.45068 -4.96742,4.34823 -4.96742,1.97009 0,-0.75059 0.85662,-2.22451 1.90359,-3.27534 2.63237,-2.6421 2.3993,-3.64054 -1.23816,-5.304 -2.51992,-1.1524 -3.88214,-1.01025 -6.88261,0.71813 -3.54247,2.04061 -3.87688,2.03135 -6.3053,-0.17446 -1.41044,-1.28114 -2.73911,-3.55915 -2.95259,-5.06226 -0.64251,-4.52367 -4.19534,-3.35015 -4.19534,1.38574 0,5.84488 -2.51681,4.54826 -2.6397,-1.35992 -0.11586,-5.56718 2.08871,-4.23202 -29.08677,-17.61654 -20.58268,-8.8367 -83.55671,-40.18573 -89.32739,-44.46793 -6.20293,-4.60296 -6.2412,-1.69222 -0.0621,4.72389 5.08856,5.28377 5.26449,5.65952 1.82443,3.89669 -4.84269,-2.4816 -15.19535,-13.09597 -15.21431,-15.59893 -0.008,-1.0455 -3.58362,-3.88818 -7.94601,-6.31706 -4.36239,-2.42887 -7.93162,-3.96065 -7.93162,-3.40393 0,0.55673 1.74247,3.76995 3.87215,7.14051 2.12969,3.37058 3.63471,6.36664 3.34449,6.65795 -0.86628,0.86952 -16.09998,-17.56818 -16.09998,-19.48625 0,-1.44827 -11.36797,-8.31641 -12.91077,-7.80023 -0.65831,0.22023 0.43819,2.68205 2.43665,5.47065 5.88468,8.21138 6.10378,8.72341 3.02532,7.06977 -3.33826,-1.79317 -12.85615,-14.29332 -12.85615,-16.88438 0,-1.05375 -0.99939,-2.76655 -2.22085,-3.80625 -4.11319,-3.50107 -19.5823,-12.71026 -20.24044,-12.04971 -0.35864,0.35999 1.10485,3.12504 3.25223,6.14457 8.10249,11.39327 10.46248,15.26799 10.05206,16.50379 -0.59799,1.80063 -17.1203,-18.94601 -19.66845,-24.69717 -1.16171,-2.62196 -3.18383,-5.10858 -4.49359,-5.52581 -1.30976,-0.41724 -4.24245,-2.3987 -6.5171,-4.40324 -5.12629,-4.51756 -17.27151,-12.78693 -17.27151,-11.75973 0,0.41649 1.47804,3.28866 3.28452,6.38258 1.8065,3.09393 2.92127,5.98995 2.47726,6.43559 -1.75031,1.75676 -5.21611,-2.3061 -11.37655,-13.33641 -4.7175,-8.44674 -8.667,-13.53896 -14.75811,-19.02813 -17.64076,-15.89749 -23.30226,-20.76479 -23.69476,-20.37085 -0.22383,0.22467 2.7469,5.45056 6.60163,11.6131 6.79035,10.8557 8.29378,14.63712 5.8195,14.63712 -1.2636,0 -14.65873,-20.01623 -17.02566,-25.44127 -0.7722,-1.76989 -1.91353,-3.58161 -2.5363,-4.02601 -0.62277,-0.44439 -0.87039,-1.59077 -0.55026,-2.54749 0.33439,-0.99935 -7.969263,-10.667 -19.515736,-22.72141 -11.053785,-11.54007 -20.097781,-21.91187 -20.097781,-23.04845 0,-2.53498 3.936964,-6.282577 6.600036,-6.282577 1.077155,0 5.029728,3.240537 8.78348,7.201197 14.088325,14.86483 41.340231,41.7133 48.069431,47.35779 3.8389,3.22008 10.40628,9.02985 14.59418,12.9106 11.37503,10.54075 20.75672,18.49408 28.55382,24.2065 10.29532,7.54268 30.49781,20.99913 35.10291,23.3813 2.20602,1.14115 8.40336,5.23785 13.77183,9.10379 5.36849,3.86594 16.69831,11.14105 25.17739,16.1669 8.47909,5.02586 19.98514,12.11815 25.569,15.76064 10.74245,7.00757 48.65442,26.68657 49.59448,25.74305 0.30478,-0.30589 1.14924,-5.37579 1.8766,-11.26644 2.58677,-20.94947 12.75859,-52.38323 21.57681,-66.6784 1.70261,-2.76006 4.52334,-7.62499 6.26829,-10.81093 3.59914,-6.57131 8.51996,-8.98246 7.14984,-3.50335 -3.21936,12.87432 -4.76648,85.69868 -2.14258,100.85232 0.72783,4.20336 1.32664,8.10459 1.33069,8.6694 0.009,1.3007 11.41052,6.42169 12.3029,5.52601 0.36469,-0.36605 0.57682,-8.30598 0.47139,-17.64429 -0.17809,-15.77248 0.91101,-25.64116 4.96102,-44.95346 0.73459,-3.5028 1.66586,-8.37488 2.0695,-10.82683 2.69131,-16.3485 12.85909,-48.76864 21.26138,-67.79231 3.05183,-6.90968 14.33135,-25.79996 17.86772,-29.92382 3.74532,-4.36751 5.61853,-2.96175 3.40095,2.55226 -0.90493,2.25008 -3.61754,10.3961 -6.02801,18.10226 -3.75233,11.99603 -4.59333,17.08497 -5.84736,35.38273 -1.46932,21.43914 -1.04135,29.56767 2.93214,55.69007 0.69265,4.55365 1.51829,10.28551 1.83475,12.73747 0.31647,2.45195 2.55267,13.62906 4.96936,24.83804 2.41668,11.20895 5.05261,26.18875 5.85762,33.28841 1.34089,11.82579 1.72728,13.02906 4.60663,14.34583 3.59978,1.64623 5.45019,0.92609 5.58364,-2.17302 0.051,-1.18463 1.0504,-3.68949 2.22086,-5.56637 1.17045,-1.87687 4.5676,-7.37723 7.54922,-12.22303 2.9816,-4.84581 6.83637,-10.14501 8.56614,-11.77605 1.72977,-1.63104 3.14504,-3.49781 3.14504,-4.14838 0,-0.65056 3.45596,-5.27943 7.67992,-10.28637 9.7582,-11.56701 9.80165,-11.62646 20.16152,-27.57282 8.33667,-12.83211 21.67567,-37.345 23.21971,-42.67046 14.20977,-49.01012 14.30546,-49.42966 16.27163,-71.32977 1.06611,-11.87478 1.1186,-20.16169 0.18559,-29.29614 -0.71558,-7.0056 -0.84696,-13.215647 -0.29199,-13.800104 1.2017,-1.265527 5.10997,3.953054 5.10997,6.823174 0,1.10512 0.53914,2.55384 1.19808,3.21938 0.65893,0.66553 3.90111,10.38103 7.20483,21.58998 5.94665,20.17595 6.00592,20.55843 5.92358,38.21237 -0.2121,45.46971 -4.71554,75.41243 -16.74091,111.30817 -6.33692,18.91573 -22.57774,52.3668 -30.84403,63.52915 -2.445,3.30161 -3.55424,5.86686 -2.8306,6.54613 1.29337,1.21411 15.82812,5.6203 16.41841,4.97723 0.19882,-0.21661 3.842,-5.83908 8.09593,-12.49441 10.12488,-15.84043 22.02907,-30.13503 38.71716,-46.49171 3.57378,-3.5028 11.63518,-12.61213 17.91421,-20.24296 6.27906,-7.63083 14.84292,-17.94817 19.03081,-22.92742 12.45206,-14.80505 18.68395,-25.6913 22.13553,-38.66777 1.48359,-5.57769 3.3779,-6.93551 4.73259,-3.39225 1.37701,3.6017 -3.22845,32.59686 -7.67046,48.29179 -4.10485,14.50358 -7.96808,23.79723 -15.88435,38.21236 -1.92361,3.5028 -7.09425,13.24695 -11.49031,21.65367 -4.39604,8.40672 -9.55298,17.57769 -11.45985,20.37994 -23.43312,34.43619 -37.43723,63.23839 -41.33935,85.02251 -0.4706,2.6271 -0.64748,4.77655 -0.39309,4.77655 0.2544,0 4.45826,1.1909 9.34191,2.64646 11.79159,3.51443 33.66155,8.76561 36.62636,8.79433 1.30118,0.0127 5.58426,-2.76464 9.51794,-6.17163 8.6432,-7.48598 35.12912,-23.92066 43.93787,-27.26373 3.49925,-1.32803 8.07551,-3.17529 10.16946,-4.10507 2.09394,-0.92975 5.23486,-1.98305 6.97982,-2.34066 1.74495,-0.3576 4.37881,-1.02923 5.85301,-1.49251 1.80765,-0.56807 2.92134,-0.21208 3.42043,1.09335 0.50697,1.32599 -1.33655,3.36821 -5.85301,6.48387 -3.6262,2.50152 -8.30631,5.81327 -10.40025,7.35947 -5.04763,3.72723 -32.36101,31.52428 -32.36101,32.93406 0,1.91445 6.7255,4.61042 13.7482,5.51109 6.04513,0.77529 22.16001,6.72404 40.1868,14.83479 3.48989,1.57021 8.91511,3.54655 12.05604,4.39188 4.11422,1.10729 5.81849,2.25746 6.09611,4.11409 0.53847,3.60122 -4.86205,4.50307 -28.93917,4.83271 -14.16896,0.19397 -21.71389,-0.26636 -26.97685,-1.64592 -4.69756,-1.23136 -10.42428,-1.69131 -16.03834,-1.28814 -4.80254,0.34488 -11.32422,0.23222 -14.49259,-0.25041 -3.16837,-0.48261 -6.72703,-0.33468 -7.90815,0.32875 -2.2095,1.24107 -12.02239,20.94596 -11.96396,24.0244 0.0201,1.05794 6.02019,3.74991 15.54597,6.97471 8.53229,2.88847 20.36741,7.08811 26.30027,9.33249 13.04447,4.93473 20.26381,7.36295 39.34082,13.23226 13.48369,4.14844 42.29394,16.03473 44.68692,18.43653 0.56805,0.57016 -0.37176,2.36104 -2.08847,3.97978 -3.10275,2.92562 -3.36122,2.94591 -43.48208,3.40946 -34.14867,0.39455 -43.29069,0.0924 -59.39666,-1.96291 -10.46974,-1.33608 -22.26939,-2.79826 -26.22144,-3.24925 l -7.18554,-0.82001 -5.95081,9.31233 c -3.27292,5.12177 -7.69602,11.1522 -9.8291,13.40091 l -3.87832,4.08861 10.11786,4.91095 c 5.56483,2.70101 11.36543,6.16312 12.89022,7.69353 3.03052,3.04173 4.81209,3.28169 11.97304,1.6126 3.66403,-0.85401 4.75897,-0.72024 4.75897,0.58143 0,0.92987 -1.14215,2.05449 -2.53812,2.4992 -1.39597,0.4447 -2.53812,1.20515 -2.53812,1.68989 0,1.49214 25.36615,15.03134 37.43724,19.98215 20.61752,8.45601 37.34034,17.79716 35.36221,19.75289 -0.60556,0.5987 -5.08003,0.24275 -9.98104,-0.79401 -13.01682,-2.75356 -34.13311,-5.31426 -56.47312,-6.8483 -10.81873,-0.7429 -24.86806,-2.0978 -31.22076,-3.01089 l -11.55035,-1.66017 -9.25427,7.44023 c -11.77841,9.46958 -24.01733,17.61471 -33.33398,22.18413 -4.02173,1.97248 -7.14013,4.1046 -6.92977,4.738 0.21036,0.63342 9.21164,5.70223 20.00283,11.26404 24.89486,12.83087 29.93317,15.8048 30.85337,18.21169 1.01107,2.64454 -5.19722,2.35119 -14.40566,-0.68071 z m -53.71976,-51.02085 c 5.39789,-3.72756 10.03742,-11.01337 9.00081,-14.13468 -0.69134,-2.0817 -13.31341,10.18554 -14.75713,14.34227 -0.7187,2.06926 -1.01101,3.76229 -0.6496,3.76229 0.36144,0 3.24409,-1.78645 6.40592,-3.96988 z m 112.4068,-19.59291 c 0.3334,-1.75059 -0.0283,-4.00491 -0.80387,-5.00959 -1.43547,-1.85968 -17.51903,-9.63999 -19.92785,-9.63999 -3.40285,0 -16.90462,12.13086 -15.69259,14.09922 0.40157,0.65215 4.5512,1.22821 9.22138,1.28013 4.67019,0.052 11.06109,0.55338 14.20201,1.11432 10.61582,1.89591 12.33504,1.65205 13.00092,-1.84409 z M 371.3232,604.38795 c 1.57046,-1.41903 2.85538,-3.27036 2.85538,-4.11408 0,-1.4063 -6.34212,-4.83076 -8.37573,-4.52251 -0.68171,0.10329 -1.08801,8.4611 -0.59833,12.30764 0.12348,0.9701 2.67922,-0.56327 6.11868,-3.67105 z m 116.20495,-38.11929 c 3.38732,-4.56667 5.44233,-11.14527 3.48153,-11.14527 -1.60882,0 -7.69203,10.41369 -7.69203,13.1678 0,3.01697 0.73395,2.6644 4.2105,-2.02253 z m -27.29151,-22.52937 c 0.31726,-0.95531 -0.15864,-1.43297 -1.11043,-1.11453 -0.9161,0.3065 -1.91548,1.30956 -2.22085,2.22906 -0.31726,0.95531 0.15863,1.43297 1.11043,1.11452 0.91609,-0.3065 1.91547,-1.30957 2.22085,-2.22905 z m 34.71543,-60.60998 c 2.56002,-4.52709 4.20993,-8.50687 3.66646,-8.84399 -0.54347,-0.33713 -5.77121,-1.44606 -11.61717,-2.4643 -7.80986,-1.36029 -10.86385,-1.47003 -11.51429,-0.41369 -1.35557,2.20146 -2.69626,13.70884 -1.71229,14.69691 1.51178,1.51808 11.33861,5.18812 13.98458,5.22282 1.81116,0.0237 3.87126,-2.3242 7.19271,-8.19775 z m 35.47951,-3.98578 c 1.27522,-1.54222 1.22865,-2.13814 -0.24035,-3.07606 -1.0021,-0.63981 -2.58254,-0.88273 -3.51211,-0.53981 -0.92957,0.34294 -2.44416,0.62351 -3.36576,0.62351 -1.42929,0 -4.46207,6.08074 -4.46207,8.94647 0,1.31705 9.68587,-3.66303 11.58029,-5.95411 z m 35.32332,-11.59015 c -0.13546,-2.50898 -7.50344,-9.28599 -10.81458,-9.94715 -3.03384,-0.6058 -4.41969,-0.0184 -7.44269,3.15512 -2.04305,2.14475 -3.3838,4.2316 -2.97943,4.63746 1.87661,1.88356 21.32862,3.85704 21.2367,2.15457 z M 462.20568,416.74422 c 1.07796,-7.8936 1.01949,-13.20596 -0.14477,-13.15444 -0.52348,0.0232 -2.55091,3.59223 -4.50539,7.93125 -3.33061,7.39417 -3.41493,7.99092 -1.34376,9.511 3.80064,2.78935 5.16028,1.8167 5.99392,-4.28781 z m -33.71724,-7.97402 c 0.89593,-2.03153 4.17625,-8.43596 7.28961,-14.23206 3.11336,-5.79609 5.66065,-10.65015 5.66065,-10.78678 0,-0.13664 -4.60351,-0.24842 -10.23002,-0.24842 h -10.23002 l -3.17882,6.51956 c -1.74834,3.58575 -4.24005,9.27288 -5.5371,12.63805 l -2.3583,6.1185 2.75928,1.02266 c 1.51761,0.56246 3.61589,1.34629 4.66287,1.74186 1.04697,0.39556 3.62017,0.76444 5.71823,0.81975 3.03557,0.08 4.14734,-0.6538 5.44362,-3.59312 z m -47.33449,-16.6776 c 3.32372,-6.45109 4.48909,-10.19861 3.17148,-10.19861 -1.45726,0 -6.33968,9.28001 -6.33968,12.04984 0,2.95635 0.98899,2.37846 3.1682,-1.85123 z m 90.59918,-32.80759 c 0.78869,-1.92655 1.6704,-6.37878 1.95932,-9.89387 0.28895,-3.51508 0.91321,-8.10057 1.38726,-10.18996 0.67056,-2.95546 -0.42576,-1.9122 -4.93784,4.69878 -3.18988,4.67374 -6.38893,8.86317 -7.109,9.30984 -2.17812,1.35113 -1.47718,4.57091 1.54616,7.1024 3.92473,3.28623 5.47965,3.06296 7.1541,-1.02719 z m -50.61937,-20.69837 c 0,-0.70055 -0.57107,-1.27374 -1.26906,-1.27374 -0.69798,0 -1.26906,0.57319 -1.26906,1.27374 0,0.70056 0.57108,1.27374 1.26906,1.27374 0.69799,0 1.26906,-0.57318 1.26906,-1.27374 z m 4.16137,-11.16572 c 1.97957,-5.22903 2.29938,-8.07902 1.56472,-13.94358 l -0.92337,-7.37122 -2.20369,7.1283 c -2.83728,9.17781 -4.21972,21.86092 -2.31328,21.2231 0.76313,-0.25533 2.50716,-3.42179 3.87562,-7.0366 z m 96.13659,-21.50429 c 0.72214,-3.23421 1.07722,-6.11702 0.78908,-6.40622 -0.61655,-0.61884 -6.93032,10.65332 -10.25545,18.30936 -1.28019,2.94759 -1.93628,6.35221 -1.46279,7.59068 0.66726,1.74527 1.83445,0.4786 5.23739,-5.68383 2.40835,-4.36128 4.96965,-10.57578 5.69177,-13.80999 z m -170.52476,9.18514 c -0.38507,-1.00716 -1.326,-5.29555 -2.09099,-9.52973 -0.76498,-4.23417 -2.42648,-10.02016 -3.69222,-12.85773 l -2.30136,-5.15922 -1.2379,10.54925 c -1.47833,12.5982 -1.10628,14.53538 3.2477,16.91007 4.3434,2.36891 6.96145,2.40655 6.07477,0.0874 z m -60.74121,-49.5275 c 1.6636,-4.61758 2.01692,-13.37846 0.68051,-16.87394 -1.11875,-2.92619 -4.1,8.27335 -4.17674,15.69063 -0.0671,6.48694 1.40586,6.98548 3.49623,1.18331 z M 463.4777,239.79246 c 1.05549,-3.10913 1.52445,-5.65295 1.04212,-5.65295 -1.16819,0 -6.59136,10.35334 -6.58688,12.57497 0.007,3.37211 3.55299,-1.05492 5.54476,-6.92202 z M 343.18895,637.2007 c -3.93699,-3.95153 -2.0866,-8.57955 5.55558,-13.89515 6.48223,-4.50877 8.42072,-3.12012 2.60229,1.86417 -3.49487,2.99384 -4.30052,4.57333 -4.1973,8.22877 0.1503,5.32184 -1.177,6.59607 -3.96057,3.80221 z m 11.90089,-1.2584 c -2.27676,-2.75344 1.19309,-6.2849 4.98758,-5.07613 3.13549,0.99884 3.58081,5.1573 0.67225,6.27753 -2.99453,1.15335 -3.86565,0.96844 -5.65983,-1.2014 z m 76.19639,-41.33279 c 0,-0.70056 0.80585,-1.27375 1.79078,-1.27375 2.55693,0 8.36169,-7.3313 8.36169,-10.56064 0,-2.52922 0.14867,-2.57349 2.09211,-0.62288 1.80539,1.81206 1.86785,2.64322 0.45578,6.06487 -2.18258,5.28865 -12.70036,10.5825 -12.70036,6.3924 z m -20.03527,-9.15505 c -1.69688,-1.70316 -2.02844,-7.23301 -0.56751,-9.46487 1.04062,-1.58973 11.90511,-7.09316 12.6087,-6.38696 0.24685,0.24776 -1.60353,2.02163 -4.11195,3.94197 -3.94724,3.02183 -4.50672,4.10048 -4.15899,8.01821 0.42461,4.78388 -1.2052,6.46617 -3.77025,3.89165 z m 11.97608,-0.36119 c -0.81715,-2.13734 2.28784,-5.76871 4.93254,-5.76871 2.62496,0 4.61456,4.36583 2.81345,6.17358 -2.06896,2.07661 -6.89367,1.82441 -7.74599,-0.40487 z M 265.03952,552.5759 c -1.62681,-1.05521 -1.58068,-1.23758 0.31726,-1.25425 3.18349,-0.028 2.75678,-1.57503 -1.58633,-5.75135 -2.09394,-2.01354 -3.80717,-4.15932 -3.80717,-4.76844 0,-0.60909 1.71323,-0.0917 3.80717,1.14981 2.09395,1.24149 3.80718,2.61487 3.80718,3.05192 0,0.43707 1.42769,1.44756 3.17265,2.24557 5.29744,2.42259 3.62954,-0.16682 -6.3861,-9.91429 -5.2573,-5.11655 -9.29667,-9.56587 -8.97634,-9.88736 0.32031,-0.32151 5.60915,3.7206 11.75295,8.98244 14.51296,12.42957 18.01875,11.39627 5.33587,-1.57271 -5.98172,-6.11664 -2.89611,-5.31623 5.22532,1.35547 5.22893,4.29552 6.37342,4.48915 6.37342,1.07825 0,-3.03694 1.94875,-3.37876 3.03687,-0.53269 1.36954,3.58216 0.75189,6.19412 -2.28231,9.65152 -5.61056,6.39306 -14.95296,9.30388 -19.79044,6.16611 z M 196.80598,538.556 c -5.92432,-5.71365 -8.83371,-10.18126 -6.6302,-10.18126 1.72816,0 6.10099,4.33582 10.59807,10.50839 4.54728,6.24147 2.68363,6.08782 -3.96787,-0.32713 z m 278.3828,-12.53385 c -0.36536,-0.59335 0.96261,-2.64325 2.95106,-4.55533 2.27629,-2.1889 3.91772,-5.37449 4.43175,-8.60094 0.68967,-4.32893 1.10644,-4.88281 2.68482,-3.56804 3.33895,2.78133 2.25435,8.75432 -2.44638,13.47241 -4.34661,4.36266 -6.39825,5.23807 -7.62125,3.2519 z m -18.60434,-6.71925 c -1.58046,-2.96401 -0.74982,-9.40303 1.5758,-12.21561 1.65236,-1.99831 10.01331,-5.80087 10.86819,-4.94284 0.30238,0.3035 -0.88473,1.49521 -2.63801,2.64826 -3.89947,2.56446 -5.82914,7.77485 -4.57615,12.35616 1.48025,5.41225 -2.59707,7.09158 -5.22983,2.15403 z m -285.43823,-9.71592 c -8.14629,-8.98028 -12.208,-15.25571 -10.79322,-16.67572 1.16522,-1.16953 20.92864,21.90403 20.92864,24.43395 0,2.37284 -3.09266,0.005 -10.13542,-7.75823 z m 297.33547,5.24029 c -1.86227,-4.87091 5.04242,-8.99946 8.07933,-4.8309 1.39317,1.91232 1.32405,2.65117 -0.43007,4.59662 -2.59883,2.88225 -6.59013,3.00452 -7.64926,0.23428 z M 315.80187,502.43221 c 0,-0.95775 -2.3367,-3.29343 -5.19268,-5.19039 -7.11378,-4.72507 -5.48427,-5.38717 2.99083,-1.21523 4.57901,2.25404 7.79929,3.10869 9.35184,2.48193 2.30364,-0.92996 2.30406,-0.99574 0.0153,-2.42199 -8.39989,-5.23462 -23.72965,-16.47196 -23.19829,-17.00529 0.35144,-0.35273 6.3744,2.856 13.38438,7.13051 7.00998,4.27451 13.29529,7.77186 13.96737,7.77186 3.67423,0 1.9609,-3.04102 -3.9611,-7.03066 -17.7313,-11.94553 -19.13581,-14.5594 -3.06688,-5.70769 8.36576,4.60833 10.93784,5.18991 10.93784,2.4731 0,-0.50845 -2.84281,-3.10041 -6.31735,-5.75992 -7.26644,-5.56192 -7.45761,-7.04334 -0.42863,-3.32178 2.66332,1.41012 5.85034,2.88625 7.0823,3.28028 4.89827,1.56672 5.64814,11.5869 1.37374,18.35652 -3.84007,6.08186 -16.9387,10.84437 -16.9387,6.15875 z M 146.8404,484.11207 c -7.83903,-8.60869 -19.80236,-26.54507 -18.54618,-27.80589 1.19223,-1.19665 23.7457,27.58466 23.78536,30.35338 0.0275,1.91902 -2.12513,0.87233 -5.23918,-2.54749 z m 13.04404,-7.29885 c -1.64771,-2.42852 -4.28289,-5.80941 -5.85598,-7.51306 -4.34175,-4.70215 -8.6333,-11.05191 -7.93988,-11.74788 0.71754,-0.72018 21.2334,21.2102 21.2334,22.69739 0,2.68217 -4.78677,0.47048 -7.43754,-3.43645 z m 313.94252,-23.10721 c -2.47351,-2.48265 -2.10231,-5.43162 0.92454,-7.34483 4.74244,-2.99759 9.81147,4.41452 5.28894,7.73368 -2.9444,2.16095 -3.72152,2.11231 -6.21348,-0.38885 z m -145.01383,-6.02448 c -12.7703,-9.39148 -12.74884,-9.78217 0.15711,-2.85995 8.52851,4.57435 11.6111,5.68032 12.69058,4.55311 1.06598,-1.11309 0.63268,-2.02076 -1.71683,-3.59644 -1.72846,-1.15918 -4.86938,-3.5597 -6.97982,-5.33447 -2.11044,-1.77479 -5.94392,-4.62787 -8.51884,-6.34018 -2.5749,-1.71233 -4.51587,-3.2797 -4.31325,-3.48308 0.47056,-0.47228 4.17039,1.52321 15.76936,8.50514 7.55911,4.55015 9.52681,5.26595 10.45031,3.80157 1.77649,-2.81695 1.565,-3.13384 -5.13597,-7.69616 -7.67693,-5.22678 -8.31771,-7.25348 -1.12964,-3.57286 3.99132,2.04375 5.48044,2.31058 6.21722,1.11403 0.53286,-0.86535 1.74031,-1.27625 2.68323,-0.91308 0.94292,0.36317 2.23414,0.68193 2.86939,0.70835 2.2777,0.0947 3.11291,3.68192 2.0076,8.62263 -1.31258,5.86716 -8.59687,13.32102 -12.97915,13.28129 -1.58071,-0.0143 -7.01279,-3.0698 -12.0713,-6.7899 z m -196.73727,-5.60306 c -7.51886,-11.27694 -11.93122,-19.39255 -11.405,-20.97707 0.26273,-0.79108 1.81803,0.52427 3.45623,2.92299 1.63822,2.39872 3.6349,4.9345 4.43707,5.63505 0.80217,0.70057 3.31848,4.55746 5.59178,8.57088 2.2733,4.01341 4.66935,7.62964 5.32454,8.03609 1.83464,1.13804 1.41093,3.13609 -0.66504,3.13609 -1.02097,0 -4.05378,-3.29581 -6.73958,-7.32403 z m -18.6571,-4.26452 c -2.55713,-3.57248 -5.00265,-7.4419 -5.43449,-8.5987 -0.43184,-1.15681 -2.56055,-4.68262 -4.73046,-7.83514 -4.64977,-6.75534 -9.9031,-18.65572 -9.17804,-20.79103 0.28006,-0.82474 1.81964,1.07981 3.4213,4.23233 1.60166,3.15252 4.46512,8.0246 6.36322,10.82684 2.74418,4.05131 13.87938,22.29659 16.07684,26.3422 0.25908,0.47702 -0.0555,1.19391 -0.69898,1.5931 -0.64354,0.39919 -3.26226,-2.19712 -5.81939,-5.7696 z m 422.68737,-14.9611 c -0.43916,-0.7132 -0.18008,-1.68032 0.57572,-2.14916 1.95115,-1.21032 3.21005,0.44754 1.58123,2.08237 -0.91142,0.91478 -1.62125,0.93675 -2.15695,0.0668 z m -400.9044,-11.41738 c -5.82505,-5.93583 -7.03298,-7.88781 -4.88112,-7.88781 1.34081,0 12.08892,12.69158 11.36416,13.41901 -0.29234,0.29343 -3.2097,-2.19562 -6.48304,-5.5312 z m -18.14994,-1.83751 c -1.16111,-2.27682 -3.65279,-6.43242 -5.53704,-9.23465 -10.7691,-16.01568 -14.20385,-21.64708 -17.16134,-28.13671 -1.80627,-3.96347 -3.01202,-7.47943 -2.67945,-7.81323 1.12984,-1.13401 3.56472,1.22001 5.39631,5.2171 2.04147,4.45509 4.00756,7.81525 15.2242,26.01903 4.28499,6.95423 8.17825,13.86897 8.65167,15.36609 1.35191,4.27526 -1.52525,3.22791 -3.89435,-1.41763 z M 75.27684,382.41963 c -2.77083,-3.91426 -7.07929,-9.78941 -9.57437,-13.0559 -5.82405,-7.62469 -16.415028,-25.30741 -16.36287,-27.31947 0.0395,-1.52304 4.17883,2.76946 7.23126,7.49879 7.58757,11.75591 19.13014,28.75675 22.08883,32.53424 3.57193,4.56044 4.59988,7.45917 2.64518,7.45917 -0.54459,0 -3.25721,-3.20258 -6.02803,-7.11683 z m 508.53441,-0.60525 c 0.30537,-0.91949 1.30474,-1.92255 2.22086,-2.22905 0.95179,-0.31845 1.42769,0.15921 1.11042,1.11452 -0.30538,0.91948 -1.30476,1.92256 -2.22085,2.22906 -0.9518,0.31843 -1.4277,-0.15922 -1.11043,-1.11453 z m -59.88371,-1.11896 c 0,-0.65921 0.57107,-1.55282 1.26905,-1.9858 0.69798,-0.43297 1.26906,0.10636 1.26906,1.19857 0,1.09219 -0.57108,1.9858 -1.26906,1.9858 -0.69798,0 -1.26905,-0.53935 -1.26905,-1.19857 z M 111.0176,373.29621 c -6.11511,-9.646 -22.88803,-43.53774 -21.99184,-44.43723 1.09608,-1.10012 7.53121,9.27474 16.30441,26.28635 2.70969,5.2542 6.58547,12.13242 8.61286,15.28495 3.65178,5.67841 4.89219,10.18996 2.80166,10.18996 -0.59619,0 -3.17338,-3.29581 -5.72709,-7.32403 z m 21.08658,-0.0166 c -3.66519,-4.01442 -6.47996,-7.85304 -6.25504,-8.53026 0.2249,-0.67723 1.796,0.40867 3.49131,2.41312 1.69533,2.00445 4.65287,5.407 6.57232,7.56122 2.95779,3.31954 4.38083,5.95501 3.17265,5.87569 -0.1745,-0.0114 -3.31606,-3.30536 -6.98124,-7.31977 z M 75.94974,360.33802 c 0,-0.64682 -1.45612,-2.91291 -3.23582,-5.03578 -7.15059,-8.52936 -25.229083,-40.54234 -22.262976,-39.42277 1.144296,0.43192 12.808196,17.11424 12.808196,18.31894 0,1.26259 12.36907,19.09339 14.44377,20.82159 2.58363,2.15215 2.68421,6.49403 0.15042,6.49403 -1.04698,0 -1.90359,-0.5292 -1.90359,-1.17601 z m 493.66392,-0.0226 c 0,-0.65921 0.54067,-1.53397 1.20152,-1.9439 1.36112,-0.84435 8.95094,-11.87557 8.95094,-13.00953 0,-1.54813 9.46269,-13.87287 12.52782,-16.31695 3.6269,-2.89201 15.22436,-7.60949 16.22878,-6.60136 0.97806,0.98167 -8.8199,17.25128 -14.07738,23.37563 -7.8888,9.18951 -24.83168,19.08033 -24.83168,14.4961 z m 73.09342,-4.97116 c -0.43916,-0.7132 -0.18008,-1.68031 0.57572,-2.14915 1.95115,-1.21033 3.21005,0.44753 1.58123,2.08238 -0.91142,0.91477 -1.62125,0.93674 -2.15695,0.0667 z m -511.89571,-7.56357 c -3.67825,-3.30536 -6.6764,-6.43963 -6.66256,-6.96505 0.0624,-2.37198 2.70523,-0.42633 8.21802,6.05029 3.27968,3.85307 5.77612,6.98736 5.54765,6.96505 -0.22845,-0.0223 -3.42486,-2.74491 -7.10311,-6.05029 z m -17.73569,-10.03634 c -1.52588,-1.28818 -6.30756,-9.22037 -10.62596,-17.62708 -4.31839,-8.40672 -9.7632,-18.61148 -12.09957,-22.67724 -4.26113,-7.41523 -5.0682,-9.81289 -3.29614,-9.79214 1.48815,0.0175 9.62917,13.43436 16.22357,26.73752 3.29906,6.65532 7.67813,14.55643 9.7313,17.55801 4.23845,6.19633 4.2748,9.35338 0.0667,5.80092 z m -37.41139,-1.41687 c -6.46649,-7.50899 -22.55761,-36.77017 -22.55761,-41.02029 0,-2.87795 2.3763,-1.0265 4.4599,3.47483 1.83075,3.95513 13.69976,24.62408 20.44217,35.59845 2.11445,3.44162 0.26519,4.97738 -2.34446,1.94701 z M 28.588058,326.16113 c -9.357383,-9.7043 -17.329631,-19.46817 -17.34801,-21.24665 -0.0067,-0.65541 -1.2540167,-2.51827 -2.7716526,-4.13967 -1.517636,-1.62142 -2.191696,-2.94803 -1.497914,-2.94803 0.693781,0 2.6015669,1.57626 4.2395286,3.5028 2.852003,3.35447 22.81404,25.74643 24.129838,27.06709 2.625981,2.63569 3.76309,4.97199 2.731392,5.61197 -0.65946,0.40906 -4.926895,-3.1223 -9.483182,-7.84751 z m 91.980012,-6.36224 c -8.53029,-9.64633 -10.26501,-12.04894 -10.31339,-14.28414 -0.0354,-1.63768 0.17262,-1.63768 1.70605,0 2.61395,2.79164 16.20043,21.60818 15.60218,21.60818 -0.28498,0 -3.43266,-3.29581 -6.99484,-7.32404 z m 431.91329,2.22906 c -0.43138,-0.70057 0.10596,-1.27375 1.19416,-1.27375 1.08817,0 1.97848,0.57318 1.97848,1.27375 0,0.70056 -0.53737,1.27374 -1.19415,1.27374 -0.65679,0 -1.54712,-0.57318 -1.97849,-1.27374 z M 75.46828,308.26967 c -2.52713,-4.17547 -4.59477,-8.17568 -4.59477,-8.88933 0,-0.71366 -2.05966,-4.36439 -4.57702,-8.11272 -5.89223,-8.77352 -12.19244,-21.28207 -11.60703,-23.04478 0.58966,-1.7755 13.27306,17.56142 19.96575,30.43948 2.85585,5.4952 5.87305,10.9786 6.70488,12.1853 1.10566,1.60391 1.13462,2.57319 0.1077,3.6039 -1.02692,1.03071 -2.64047,-0.63188 -5.9995,-6.18185 z m -42.603953,-2.70252 c -2.20505,-3.44894 -4.892365,-7.00651 -5.971833,-7.90569 -1.079458,-0.89919 -3.828364,-4.52564 -6.108682,-8.05881 -2.280308,-3.53317 -5.648127,-8.1435 -7.484033,-10.24518 -1.835907,-2.10168 -3.3387037,-4.34032 -3.3395607,-4.97475 -8.47e-4,-0.63443 -1.3269339,-2.92717 -2.9468499,-5.09498 -4.476012,-5.98991 -5.444729,-8.14671 -2.021239,-4.50026 3.998049,4.25847 12.7428386,15.15684 21.4643096,26.75034 3.8389,5.1031 9.194094,11.75824 11.900416,14.78925 4.853703,5.43599 4.877069,5.51091 1.718626,5.51091 -2.446777,0 -4.147576,-1.47902 -7.211154,-6.27083 z m 89.159853,-11.91156 c -7.51556,-7.76385 -11.08991,-13.66124 -8.27998,-13.66124 1.25335,0 15.95243,19.0827 15.24557,19.79217 -0.28753,0.28859 -3.42206,-2.47032 -6.96559,-6.13093 z m -20.29349,-3.78972 C 93.11779,275.26126 80.93378,250.06568 81.2867,247.5893 c 0.42919,-3.01158 1.78259,-0.81413 12.50538,20.30446 3.55705,7.0056 8.10338,15.60339 10.10298,19.10618 1.9996,3.50281 3.66837,7.08521 3.70839,7.96092 0.15039,3.29094 -2.05625,1.37654 -5.87276,-5.09499 z m -70.992348,-11.388 c -8.435428,-10.1068 -21.5357986,-29.99282 -20.465888,-31.06669 0.269444,-0.27045 3.592757,3.6247 7.385143,8.65586 3.792386,5.03118 9.100009,11.72142 11.794719,14.86723 6.758424,7.88978 11.312445,15.01579 10.725531,16.78302 -0.270529,0.81459 -4.51831,-3.34315 -9.439505,-9.23942 z m 108.525748,5.61117 c -3.06469,-2.65182 -7.14263,-5.81756 -9.06208,-7.03496 -1.91946,-1.21739 -3.48992,-2.77342 -3.48992,-3.45782 0,-2.62628 3.39379,-0.97173 8.88342,4.33084 11.41922,11.03015 13.67657,14.82172 3.66858,6.16194 z m 21.63399,-5.5263 c -7.97676,-8.80592 -10.74338,-13.29929 -7.31068,-11.87347 0.92319,0.38346 3.52388,3.10407 5.77932,6.04584 2.25545,2.94173 5.62189,7.22393 7.48101,9.51598 6.42799,7.9249 2.1905,5.29796 -5.94965,-3.68835 z m 19.92678,-5.23273 c -4.36677,-6.36381 -6.04965,-10.93187 -3.42821,-9.30574 1.70097,1.05514 9.35186,14.72882 8.64068,15.44263 -0.32614,0.32734 -2.67175,-2.43427 -5.21247,-6.13689 z m -65.12394,-3.80358 c -5.21848,-5.39697 -11.46984,-15.79498 -10.23886,-17.03049 0.35056,-0.35186 2.96187,2.39553 5.80293,6.1053 2.84103,3.70977 6.38313,8.32487 7.87131,10.25581 4.5897,5.9552 2.1376,6.43298 -3.43538,0.66938 z m -51.0688,-11.1502 c -8.51733,-14.53099 -13.997975,-26.08831 -13.909525,-29.33171 0.02865,-1.05085 0.719565,-0.47236 1.535355,1.28553 0.81579,1.75787 3.62479,6.40268 6.24222,10.3218 2.61744,3.91911 4.75897,7.58542 4.75897,8.14734 0,0.56191 1.45986,2.9427 3.24411,5.29061 3.2916,4.33145 8.77635,18.29536 7.15728,18.2221 -0.48589,-0.0221 -4.54867,-6.29303 -9.02841,-13.93567 z m 77.81149,6.56449 c -2.64797,-2.15501 -8.11717,-9.52372 -8.11717,-10.93635 0,-2.33619 2.86142,0.0256 6.94799,5.73482 4.99695,6.98107 5.36438,8.61572 1.16918,5.20153 z m 451.28216,0.48073 c 0,-1.09219 0.57108,-1.9858 1.26906,-1.9858 0.69799,0 1.26906,0.53935 1.26906,1.19857 0,0.65922 -0.57107,1.55282 -1.26906,1.9858 -0.69798,0.43296 -1.26906,-0.10636 -1.26906,-1.19857 z m -440.33908,-8.98559 c -6.79929,-6.78989 -9.1045,-9.87094 -8.12265,-10.85641 0.98186,-0.98549 3.94625,1.49132 10.44537,8.72728 4.99095,5.55681 9.07445,10.45724 9.07445,10.88985 0,2.02012 -2.61171,0.0127 -11.39717,-8.76072 z m 361.0229,4.45231 c -0.43138,-0.70057 -0.17954,-1.27376 0.55963,-1.27376 0.73917,0 1.34396,0.57319 1.34396,1.27376 0,0.70055 -0.25183,1.27373 -0.55963,1.27373 -0.3078,0 -0.91258,-0.57318 -1.34396,-1.27373 z m -122.46418,-4.45812 c 0,-1.05084 0.57107,-1.91062 1.26905,-1.91062 0.69799,0 1.26907,0.85978 1.26907,1.91062 0,1.05084 -0.57108,1.91061 -1.26907,1.91061 -0.69798,0 -1.26905,-0.85977 -1.26905,-1.91061 z M 34.705316,252.38862 c -6.972159,-8.56732 -17.310662,-23.52598 -21.290342,-30.80473 -3.9775566,-7.2749 -1.426111,-5.88598 4.739659,2.58008 26.490136,36.37291 24.167996,32.90297 22.019083,32.90292 -0.913675,-3e-5 -3.374453,-2.10524 -5.4684,-4.67827 z m 58.194264,-3.95233 c -4.82529,-7.27785 -13.14267,-23.43133 -13.14267,-25.52484 0,-4.52996 3.77088,0.9493 15.83581,23.0102 5.51347,10.08146 3.54337,11.921 -2.69314,2.51464 z m 27.93511,1.31545 c -9.53967,-12.49329 -12.45759,-18.15973 -9.35131,-18.15973 0.69799,0 1.26907,0.52065 1.26907,1.15699 0,0.63633 2.4784,4.21873 5.50754,7.9609 5.19144,6.41344 8.4521,11.46288 8.4521,13.08892 0,2.01613 -2.63099,0.20447 -5.8774,-4.04708 z M 64.96052,232.54732 c -7.60088,-12.07819 -10.36121,-17.41226 -14.254905,-27.54623 -2.24338,-5.83877 -3.851418,-11.55867 -3.573427,-12.71088 0.425814,-1.76484 0.663676,-1.69353 1.509603,0.45256 2.765909,7.01707 13.694339,29.10738 17.691149,35.76027 4.79485,7.98119 5.30806,9.45771 3.28742,9.45771 -0.68922,0 -2.78615,-2.43605 -4.65984,-5.41343 z m 447.12852,2.33882 c -0.62874,-1.64454 -0.14937,-13.49801 1.04267,-25.78206 0.39272,-4.04704 3.07271,-11.98408 6.98556,-20.6884 3.4916,-7.76726 6.34838,-14.76128 6.34838,-15.54228 0,-0.78099 0.90332,-1.07206 2.00739,-0.64683 1.10405,0.42524 2.41395,0.77315 2.91086,0.77315 1.8719,0 4.28137,15.36649 3.42521,21.84438 -1.0263,7.7652 -6.646,20.69785 -12.62156,29.04613 -2.36624,3.30579 -4.67772,7.1979 -5.13661,8.64911 -1.00394,3.17474 -4.08772,4.63328 -4.9619,2.3468 z m -381.76837,-1.70195 c -4.2459,-5.08551 -12.69716,-19.44371 -12.24535,-20.80414 0.2681,-0.80728 1.95826,0.74912 3.75589,3.45867 1.79764,2.70955 5.60251,7.74848 8.45527,11.19761 4.70005,5.68265 5.63044,8.37691 2.8927,8.37691 -0.54861,0 -1.83494,-1.00307 -2.85851,-2.22905 z M 28.99455,217.28129 c -3.8389,-5.72327 -8.415697,-12.15283 -10.170663,-14.28787 -4.451874,-5.41608 -9.3022647,-14.70875 -7.677362,-14.70875 0.742647,0 1.350263,0.484 1.350263,1.07555 0,0.59157 2.712613,4.28476 6.028026,8.20711 3.315423,3.92232 8.221151,10.57513 10.901632,14.784 2.680471,4.20886 5.964161,8.91456 7.297082,10.45711 2.801378,3.24194 3.097101,4.98007 0.83717,4.92057 -0.872472,-0.0229 -4.727238,-4.72443 -8.566148,-10.44772 z m 71.39075,8.8973 c -0.691021,-0.8757 -3.11952,-5.03129 -5.39669,-9.23465 -2.27716,-4.20336 -6.11295,-11.22313 -8.52398,-15.59949 -4.86288,-8.82679 -5.10682,-13.42339 -0.34996,-6.59427 1.67085,2.39873 3.39838,4.64791 3.83897,4.9982 0.90105,0.71636 13.91539,26.29079 13.91539,27.34508 0,1.26697 -2.22263,0.68328 -3.48373,-0.91487 z M 382.60447,207.7808 c -1.42919,-1.43448 -0.87044,-2.93745 1.09205,-2.93745 1.04697,0 1.90359,0.53936 1.90359,1.19857 0,1.60617 -1.98175,2.75652 -2.99564,1.73888 z M 68.71455,203.88805 c -0.44563,-1.22598 -2.60168,-5.09499 -4.79122,-8.59779 -4.74283,-7.58752 -12.36049,-23.7131 -11.57459,-24.50188 0.30532,-0.30646 1.5465,1.0688 2.75816,3.05613 1.21167,1.98733 3.64895,5.90606 5.41618,8.7083 6.15722,9.76332 11.61948,20.00014 11.61948,21.77604 0,2.53712 -2.46059,2.22069 -3.42801,-0.4408 z m 336.00443,-7.64248 c -5.88494,-21.82497 -6.84354,-27.13089 -6.73119,-37.25706 0.0661,-5.95476 0.76276,-12.52074 1.5482,-14.59107 0.78543,-2.07032 1.77125,-11.38458 2.1907,-20.69836 0.41944,-9.31378 1.10285,-16.91507 1.51869,-16.89176 1.70236,0.0954 6.2753,4.80946 8.06439,8.31326 1.05173,2.05972 3.0719,7.88137 4.48926,12.93701 2.28102,8.13622 2.44478,10.7698 1.42566,22.92742 -0.66365,7.91707 -2.48683,18.05182 -4.30402,23.92533 -2.65314,8.57543 -3.99419,16.04687 -4.40103,24.51959 -0.16253,3.38446 -2.57429,1.36378 -3.80066,-3.18436 z M 33.175687,191.78745 c -4.029154,-5.31988 -25.5104056,-43.939 -25.6668426,-46.144 -0.145939,-2.05705 20.6760816,30.11378 23.2753836,35.96137 1.325259,2.98142 3.177965,6.06082 4.117119,6.84314 1.91066,1.59155 2.312888,4.93168 0.593891,4.93168 -0.612518,0 -1.656312,-0.71647 -2.319551,-1.59219 z M 613.39619,189.5584 c -0.43138,-0.70055 0.10596,-1.27373 1.19416,-1.27373 1.08816,0 1.97848,0.57318 1.97848,1.27373 0,0.70056 -0.53737,1.27375 -1.19416,1.27375 -0.65678,0 -1.54711,-0.57319 -1.97848,-1.27375 z m -161.80501,-8.35452 c 0,-1.09219 0.57107,-1.63154 1.26905,-1.19857 0.69798,0.43298 1.26906,1.32658 1.26906,1.9858 0,0.65922 -0.57108,1.19857 -1.26906,1.19857 -0.69798,0 -1.26905,-0.89361 -1.26905,-1.9858 z m -180.16809,-2.42602 c -1.78785,-2.16218 -8.82291,-16.1178 -8.88187,-17.61919 -0.022,-0.55781 -2.03859,-5.29917 -4.48153,-10.53633 -2.44293,-5.23717 -4.4417,-10.18092 -4.4417,-10.98609 0,-0.80518 -0.92589,-2.49081 -2.0575,-3.74586 -1.958,-2.17154 -1.67748,-6.20059 0.43135,-6.19574 1.95982,0.005 21.31494,15.31057 22.13067,17.50098 2.5348,6.80651 4.7561,17.28056 5.26982,24.84878 0.54444,8.02058 -0.43311,11.10239 -2.12115,6.68717 -0.40176,-1.05085 -1.30155,-1.91062 -1.99953,-1.91062 -0.69799,0 -0.94036,0.85977 -0.53859,1.91062 0.93638,2.44916 -1.29727,2.4804 -3.30997,0.0463 z M 42.150411,168.08605 c -3.972179,-4.32381 -25.6436,-41.20823 -27.726544,-47.19016 -3.566031,-10.24112 -2.658343,-8.97796 16.223626,22.57717 4.325753,7.22911 8.499418,14.27213 9.274806,15.65113 0.775389,1.37903 2.738036,3.92638 4.361445,5.66079 2.096717,2.2401 2.558289,3.5483 1.593589,4.51656 -0.964701,0.96827 -2.044188,0.61621 -3.726922,-1.21549 z M 314.07388,141.79294 c 0.40177,-1.05083 0.95492,-1.91061 1.22924,-1.91061 0.27431,0 0.49875,0.85978 0.49875,1.91061 0,1.05085 -0.55315,1.91062 -1.22923,1.91062 -0.67607,0 -0.90051,-0.85977 -0.49876,-1.91062 z m 262.44806,-14.76423 c -2.65387,-4.30991 1.48854,-54.654898 4.49704,-54.654898 0.38466,0 2.55911,3.395313 4.8321,7.545142 3.47391,6.342366 4.17808,9.044097 4.41737,16.948481 0.26603,8.787515 -0.0726,10.128595 -5.1703,20.477275 -5.32766,10.81547 -6.8329,12.51514 -8.57621,9.684 z M 451.59118,112.42162 c 0,-1.09218 0.58038,-1.62576 1.28975,-1.18573 0.70937,0.44004 0.96121,1.33365 0.55963,1.9858 -1.08787,1.76674 -1.84938,1.4373 -1.84938,-0.80007 z m -158.03723,-5.72065 c -1.20588,-1.95836 0.44589,-3.22189 2.07471,-1.58706 0.91141,0.91478 0.9333,1.62724 0.0665,2.16492 -0.71057,0.44078 -1.67413,0.18075 -2.14124,-0.57786 z m 28.59322,-12.703967 c 0,-0.717319 -3.05134,-5.324019 -6.78076,-10.237096 -4.44359,-5.85393 -8.43262,-13.197159 -11.57329,-21.30476 -2.6359,-6.804527 -5.8664,-14.628985 -7.1789,-17.387671 -2.29979,-4.833839 -3.0489,-8.358536 -1.77646,-8.358536 1.96117,0 14.82433,9.451718 18.35325,13.485779 10.62052,12.140788 18.53962,45.106513 10.83557,45.106513 -1.03368,0 -1.87941,-0.586899 -1.87941,-1.304229 z m 53.30047,-5.776544 c 0,-1.092179 0.57108,-1.631543 1.26906,-1.19856 0.69798,0.432963 1.26905,1.326571 1.26905,1.985786 0,0.659216 -0.57107,1.19857 -1.26905,1.19857 -0.69798,0 -1.26906,-0.893607 -1.26906,-1.985796 z m 64.63761,-26.355042 c -0.0464,-0.175144 -0.8633,-5.477103 -1.81531,-11.782148 -0.95201,-6.305041 -2.33508,-14.61623 -3.07349,-18.469311 -1.63099,-8.510605 -0.86754,-29.0485779 1.15388,-31.04047587 4.09208,-4.03236803 11.35556,13.94452487 12.35794,30.58556687 0.63527,10.546686 0.3692,12.560065 -2.81951,21.335237 -1.93653,5.329259 -4.01555,9.689563 -4.62005,9.689563 -0.60449,0 -1.13704,-0.143298 -1.18346,-0.318432 z M 366.56422,22.697739 c 0,-0.70056 0.53738,-1.273746 1.19416,-1.273746 0.6568,0 1.54712,0.573186 1.9785,1.273746 0.43137,0.70056 -0.10597,1.273745 -1.19416,1.273745 -1.08817,0 -1.9785,-0.573185 -1.9785,-1.273745 z"
     id="path3777"
     inkscape:connector-curvature="0" />
</svg>
