<svg xmlns="http://www.w3.org/2000/svg" viewBox="2829 1560 230.8 229.5">
  <defs>
    <style>
      .cls-1 {
        fill: #fafafa;
      }
    </style>
  </defs>
  <g id="ILUSTRACION_CREATIVIDAD" transform="translate(2700 21)">
    <path id="Path_186" data-name="Path 186" class="cls-1" d="M13.7,202.4v3.8H9.9a3.5,3.5,0,0,0,0,7h3.8V217a3.5,3.5,0,0,0,7,0v-3.8h3.8a3.946,3.946,0,0,0,2.5-1,3.471,3.471,0,0,0,1-2.5,3.543,3.543,0,0,0-3.5-3.5H20.7v-3.8a3.946,3.946,0,0,0-1-2.5,3.536,3.536,0,0,0-6,2.5Zm4.1,0v5.3a1.538,1.538,0,0,0,1.5,1.5h5.3a.472.472,0,0,1,.5.5.707.707,0,0,1-.6.6H19.2a1.538,1.538,0,0,0-1.5,1.5v5.3a.5.5,0,0,1-1,0v-5.3a1.538,1.538,0,0,0-1.5-1.5H9.9a.5.5,0,0,1,0-1h5.3a1.538,1.538,0,0,0,1.5-1.5v-5.3a.472.472,0,0,1,.5-.5.52.52,0,0,1,.4.2C17.7,202.1,17.8,202.2,17.8,202.4Z" transform="translate(129 1539)"/>
    <path id="Path_187" data-name="Path 187" class="cls-1" d="M57.8,213.8a4,4,0,0,0,2.9-1.2h0a4,4,0,0,0,1.2-2.9,3.847,3.847,0,0,0-1.2-2.9,4.226,4.226,0,0,0-5.9,0,4,4,0,0,0-1.2,2.9,3.847,3.847,0,0,0,1.2,2.9A4.6,4.6,0,0,0,57.8,213.8Zm-.8-5a1.132,1.132,0,0,1,1.6,1.6,1.041,1.041,0,0,1-1.6,0,1.135,1.135,0,0,1-.3-.8A1.6,1.6,0,0,1,57,208.8Z" transform="translate(129 1539)"/>
    <path id="Path_188" data-name="Path 188" class="cls-1" d="M62.9,214.8a4,4,0,0,0-1.2,2.9,3.847,3.847,0,0,0,1.2,2.9,4.175,4.175,0,0,0,2.9,1.2,4.1,4.1,0,0,0,4.1-4.1,3.847,3.847,0,0,0-1.2-2.9A4.1,4.1,0,0,0,62.9,214.8Zm3.8,3.7a1.215,1.215,0,0,1-1.6,0,1.1,1.1,0,1,1,1.6,0Z" transform="translate(129 1539)"/>
    <path id="Path_189" data-name="Path 189" class="cls-1" d="M65.7,205.9a3.847,3.847,0,0,0,2.9-1.2h0a4.226,4.226,0,0,0,0-5.9,4,4,0,0,0-2.9-1.2,3.847,3.847,0,0,0-2.9,1.2,4.226,4.226,0,0,0,0,5.9A4,4,0,0,0,65.7,205.9Zm-.8-5a1.217,1.217,0,0,1,1.6,0,1.217,1.217,0,0,1,0,1.6h0a1.131,1.131,0,0,1-1.6-1.6Z" transform="translate(129 1539)"/>
    <path id="Path_190" data-name="Path 190" class="cls-1" d="M70.9,212.7a4.1,4.1,0,0,0,5.8,0,4.172,4.172,0,0,0-5.9-5.9A4.136,4.136,0,0,0,70.9,212.7ZM73,209a1.217,1.217,0,0,1,1.6,0,1.131,1.131,0,1,1-1.6,1.6A1.041,1.041,0,0,1,73,209Z" transform="translate(129 1539)"/>
    <path id="Path_191" data-name="Path 191" class="cls-1" d="M33.1,198H50.9a1.5,1.5,0,0,0,0-3H33.1a1.5,1.5,0,1,0,0,3Z" transform="translate(129 1539)"/>
    <path id="Path_192" data-name="Path 192" class="cls-1" d="M40.8,208.7a1.552,1.552,0,0,0-2.1.3l-3.4,4.8a1.552,1.552,0,0,0,.3,2.1,1.613,1.613,0,0,0,.9.3,1.425,1.425,0,0,0,1.2-.6l3.4-4.8A1.461,1.461,0,0,0,40.8,208.7Z" transform="translate(129 1539)"/>
    <path id="Path_193" data-name="Path 193" class="cls-1" d="M48.5,208.7a1.552,1.552,0,0,0-2.1.3L43,213.8a1.552,1.552,0,0,0,.3,2.1,1.613,1.613,0,0,0,.9.3,1.425,1.425,0,0,0,1.2-.6l3.4-4.8A1.552,1.552,0,0,0,48.5,208.7Z" transform="translate(129 1539)"/>
    <path id="Path_194" data-name="Path 194" class="cls-1" d="M222.8,15.5h-2.7v-7A8.493,8.493,0,0,0,211.6,0H125.4a8.493,8.493,0,0,0-8.5,8.5V25.7a8.493,8.493,0,0,0,8.5,8.5h4.9a5.484,5.484,0,0,1,5.5,5.5V73H57.4V67A11.566,11.566,0,0,0,45.9,55.5H38.2A11.566,11.566,0,0,0,26.7,67v7.7a11.542,11.542,0,0,0,10,11.4v57.2a11.566,11.566,0,0,0,11.5,11.5h6.6v24.5a2.112,2.112,0,0,1-2.1,2.1,2.051,2.051,0,0,1-2.1-2.1V168.9a5.1,5.1,0,1,0-10.2,0v21.3H19.7A19.65,19.65,0,1,0,34,223.3H50.1a19.686,19.686,0,1,0,14.3-33.2H43.5V168.8a2.1,2.1,0,1,1,4.2,0v10.4a5.1,5.1,0,1,0,10.2,0V154.7h67.8a28.369,28.369,0,0,0-1.6,9.3,27.9,27.9,0,1,0,43.7-23V84.3a11.566,11.566,0,0,0-11.5-11.5H146V30.3a2.112,2.112,0,0,1,2.1-2.1h.3a2.112,2.112,0,0,1,2.1,2.1h0V64.1a5.121,5.121,0,0,0,5.1,5.1c2.6,0,4.4-2,4.4-5.1V34.7a2.112,2.112,0,0,1,2.1-2.1,2.051,2.051,0,0,1,2.1,2.1v6.2a5.1,5.1,0,0,0,10.2,0V30.5a2.1,2.1,0,0,1,4.2,0h0V55.6a5.1,5.1,0,0,0,10.2,0V34.1a2.1,2.1,0,0,1,4.2,0V44.5a5.1,5.1,0,0,0,10.2,0V39.6a5.484,5.484,0,0,1,5.5-5.5h3.5a8.493,8.493,0,0,0,8.5-8.5V18.5h2.7a4.439,4.439,0,0,1,4.4,4.4V36.8a5.135,5.135,0,0,1-1.5,3.7L198.8,70.1a8.335,8.335,0,0,0-2.3,5.8v7.7a9.247,9.247,0,0,0-7.8,9.1v32.4a9.3,9.3,0,0,0,18.6,0V92.8a9.247,9.247,0,0,0-7.8-9.1V76a5.135,5.135,0,0,1,1.5-3.7l27.5-29.6a8.335,8.335,0,0,0,2.3-5.8v-14C230.2,18.9,226.8,15.5,222.8,15.5ZM64.4,193.1a16.7,16.7,0,1,1-12.5,27.7l-.4-.5H32.6l-.4.5a16.68,16.68,0,1,1-12.5-27.7ZM125.5,3h86.2a5.484,5.484,0,0,1,5.5,5.5V19.7H120V8.5A5.484,5.484,0,0,1,125.5,3ZM29.7,74.7V67a8.493,8.493,0,0,1,8.5-8.5h7.7A8.493,8.493,0,0,1,54.4,67v7.7a8.493,8.493,0,0,1-8.5,8.5H38.2A8.493,8.493,0,0,1,29.7,74.7Zm147.1,89.4a24.9,24.9,0,1,1-24.9-24.9A24.967,24.967,0,0,1,176.8,164.1ZM164.7,84.3v55a26.8,26.8,0,0,0-11.3-3.1V75.8h2.8A8.493,8.493,0,0,1,164.7,84.3Zm-14.3-8.5v60.4a27.987,27.987,0,0,0-23.6,15.6H48.2a8.493,8.493,0,0,1-8.5-8.5V86.2h6.2A11.43,11.43,0,0,0,57.3,75.8h78.5v8.4a5.012,5.012,0,0,0,5,4.6,5.121,5.121,0,0,0,5.1-5.1v-8h4.5Zm61.2-44.7h-3.5a8.493,8.493,0,0,0-8.5,8.5v4.9a2.112,2.112,0,0,1-2.1,2.1,2.051,2.051,0,0,1-2.1-2.1V34a5.1,5.1,0,0,0-10.2,0V55.5a2.1,2.1,0,0,1-4.2,0v-25h0a5.1,5.1,0,0,0-10.2,0V40.9a2.1,2.1,0,0,1-4.2,0V34.7a5.1,5.1,0,0,0-10.2,0V64.1c0,.9-.2,2.1-1.4,2.1a2.112,2.112,0,0,1-2.1-2.1V29.8a5.084,5.084,0,0,0-5-4.6h.1a5.121,5.121,0,0,0-5.1,5.1v44h0v9.4a2.112,2.112,0,0,1-2.1,2.1,2.051,2.051,0,0,1-2.1-2.1h0V74.3h0V39.5a8.493,8.493,0,0,0-8.5-8.5h-4.9a5.484,5.484,0,0,1-5.5-5.5v-3h97.1v3A5.226,5.226,0,0,1,211.6,31.1Zm-7.9,61.7v32.4a6.3,6.3,0,0,1-12.6,0V92.8a6.3,6.3,0,1,1,12.6,0Z" transform="translate(129 1539)"/>
    <path id="Path_195" data-name="Path 195" class="cls-1" d="M113.7,93.2h-5a1.538,1.538,0,0,0-1.5,1.5v5a1.538,1.538,0,0,0,1.5,1.5h1a13.467,13.467,0,0,1-6.9,10.8l-5.3-7.9h0a1.525,1.525,0,0,0-1.2-.7,1.387,1.387,0,0,0-1.2.7h0L89.8,112a13.385,13.385,0,0,1-6.9-10.8h1a1.538,1.538,0,0,0,1.5-1.5v-5a1.538,1.538,0,0,0-1.5-1.5h-5a1.538,1.538,0,0,0-1.5,1.5v5a1.538,1.538,0,0,0,1.5,1.5h1a16.308,16.308,0,0,0,8.3,13.3l-3.1,4.6h0c0,.1-.1.1-.1.2a.1.1,0,0,1-.1.1v.8a.1.1,0,0,0,.1.1l.1.1h0l3.3,4.6H86.8a1.538,1.538,0,0,0-1.5,1.5v6a1.538,1.538,0,0,0,1.5,1.5h19a1.538,1.538,0,0,0,1.5-1.5v-6a1.538,1.538,0,0,0-1.5-1.5h-1.6l3.3-4.6h0l.1-.1a.1.1,0,0,1,.1-.1v-.8a.1.1,0,0,0-.1-.1c0-.1-.1-.1-.1-.2h0l-3.1-4.6a16.539,16.539,0,0,0,8.3-13.3h1a1.538,1.538,0,0,0,1.5-1.5v-5A1.538,1.538,0,0,0,113.7,93.2Zm-33.5,3h2v2h-2Zm24,35.2h-16v-3h16Zm-12.2-6-3.9-5.5,6.7-10v10a1.5,1.5,0,0,0,3,0v-10l6.7,10-3.9,5.5Zm18.2-29.2h2v2h-2Z" transform="translate(129 1539)"/>
    <path id="Path_196" data-name="Path 196" class="cls-1" d="M158.8,123.8a1.538,1.538,0,0,0,1.5-1.5v-17a1.5,1.5,0,0,0-3,0v17A1.473,1.473,0,0,0,158.8,123.8Z" transform="translate(129 1539)"/>
    <path id="Path_197" data-name="Path 197" class="cls-1" d="M154.9,169.8a5.432,5.432,0,0,1-6.1.1,1.5,1.5,0,1,0-1.8,2.4,8.051,8.051,0,0,0,4.8,1.5,8.441,8.441,0,0,0,4.9-1.6,1.461,1.461,0,0,0,.3-2.1A1.552,1.552,0,0,0,154.9,169.8Z" transform="translate(129 1539)"/>
    <path id="Path_198" data-name="Path 198" class="cls-1" d="M153.9,175.3a5.3,5.3,0,0,1-4.1,0,1.523,1.523,0,1,0-1.2,2.8,7.246,7.246,0,0,0,3.3.7,7.111,7.111,0,0,0,3.2-.7,1.507,1.507,0,0,0,.8-2A1.434,1.434,0,0,0,153.9,175.3Z" transform="translate(129 1539)"/>
    <path id="Path_199" data-name="Path 199" class="cls-1" d="M142.2,158.1a9.7,9.7,0,1,0,9.7-9.7A9.709,9.709,0,0,0,142.2,158.1Zm16.4,0a6.7,6.7,0,1,1-6.7-6.7A6.7,6.7,0,0,1,158.6,158.1Z" transform="translate(129 1539)"/>
    <path id="Path_200" data-name="Path 200" class="cls-1" d="M150.8,156.2h0l-.6.6-.6-.6a1.485,1.485,0,0,0-2.1,2.1l1.7,1.7h0a1.713,1.713,0,0,0,2.2,0h0l.6-.6.6.6h0a1.713,1.713,0,0,0,2.2,0h0l1.7-1.7a1.485,1.485,0,1,0-2.1-2.1l-.6.6-.6-.6h0a1.5,1.5,0,0,0-1.1-.4A2.01,2.01,0,0,0,150.8,156.2Z" transform="translate(129 1539)"/>
    <path id="Path_201" data-name="Path 201" class="cls-1" d="M48.6,76.7h0c.2-.1.3-.2.5-.2l.1-.1.3-.3V76c.1-.1.1-.3.2-.4h0l1.1-6.3a1.479,1.479,0,0,0-.4-1.3L45,62.7a1.479,1.479,0,0,0-1.3-.4l-6.3,1.1h0a.367.367,0,0,0-.3.1h0c-.1,0-.2.1-.3.1h0c-.1.1-.2.1-.2.2h0l-.2.2h0l-.1.1a.1.1,0,0,1-.1.1v.1c0,.1,0,.1-.1.2h0L33.4,77.7V78a.9.9,0,0,0,.1.5v.1a1.38,1.38,0,0,0,.3.4.85.85,0,0,0,.5.3h0a1.268,1.268,0,0,0,.6.1h.3l13.2-2.7C48.5,76.8,48.5,76.7,48.6,76.7Zm-1-7.2L46.8,74l-7.3,1.5,4.8-4.8a1.485,1.485,0,0,0-2.1-2.1l-4.8,4.8,1.5-7.3,4.6-.8Z" transform="translate(129 1539)"/>
  </g>
</svg>
